<mxfile host="app.diagrams.net" agent="Mozilla/5.0 (Windows NT 10.0; Win64; x64) AppleWebKit/537.36 (KHTML, like Gecko) Chrome/129.0.0.0 Safari/537.36" version="24.7.17">
  <diagram name="PÃ¡gina-1" id="Qcgq2yUGL6Gamk_5G43O">
    <mxGraphModel dx="504" dy="262" grid="1" gridSize="5" guides="1" tooltips="1" connect="1" arrows="1" fold="1" page="1" pageScale="1" pageWidth="1169" pageHeight="827" math="0" shadow="0">
      <root>
        <mxCell id="0" />
        <mxCell id="1" parent="0" />
        <mxCell id="OMl_ndMxMbbxKL08wirc-1" value="Strategy to Portfolio" style="swimlane;whiteSpace=wrap;html=1;rounded=1;fillColor=#fff2cc;strokeColor=#d6b656;swimlaneLine=1;" parent="1" vertex="1">
          <mxGeometry x="10" y="50" width="315" height="650" as="geometry" />
        </mxCell>
        <mxCell id="OMl_ndMxMbbxKL08wirc-3" value="Portfolio Backlog Management" style="swimlane;whiteSpace=wrap;html=1;rounded=1;fillColor=#fff2cc;strokeColor=#d6b656;fontSize=10;" parent="OMl_ndMxMbbxKL08wirc-1" vertex="1">
          <mxGeometry x="5" y="40" width="305" height="160" as="geometry" />
        </mxCell>
        <object label="" Name="Servicenow" Vendor="Servicenow" Description="" Pricing="Paid" link="https://www.servicenow.com" id="OMl_ndMxMbbxKL08wirc-7">
          <mxCell style="shape=image;imageAspect=1;aspect=fixed;verticalLabelPosition=bottom;verticalAlign=top;image=https://www.servicenow.com/content/dam/servicenow-assets/images/naas/servicenow-header-logo.svg;rotatable=0;collapsible=0;treeFolding=0;enumerate=0;comic=0;resizeWidth=0;noLabel=0;fixDash=0;container=0;shadow=0;backgroundOutline=0;" parent="OMl_ndMxMbbxKL08wirc-3" vertex="1">
            <mxGeometry x="10" y="30" width="99" height="15" as="geometry" />
          </mxCell>
        </object>
        <mxCell id="OMl_ndMxMbbxKL08wirc-8" value="" style="shape=image;imageAspect=0;aspect=fixed;verticalLabelPosition=bottom;verticalAlign=top;image=https://img-prod-cms-rt-microsoft-com.akamaized.net/cms/api/am/imageFileData/RE1Mu3b?ver=5c31;shadow=0;comic=0;strokeColor=default;align=center;fontFamily=Helvetica;fontSize=12;fontColor=default;fillColor=default;" parent="OMl_ndMxMbbxKL08wirc-3" vertex="1">
          <mxGeometry x="130" y="30" width="70.43" height="15" as="geometry" />
        </mxCell>
        <mxCell id="OMl_ndMxMbbxKL08wirc-9" value="" style="shape=image;imageAspect=0;aspect=fixed;verticalLabelPosition=bottom;verticalAlign=top;image=https://wac-cdn.atlassian.com/misc-assets/adg4-nav/HeaderLogoJiraAlign.svg;" parent="OMl_ndMxMbbxKL08wirc-3" vertex="1">
          <mxGeometry x="220" y="30" width="75" height="15" as="geometry" />
        </mxCell>
        <mxCell id="OMl_ndMxMbbxKL08wirc-10" value="" style="shape=image;imageAspect=0;aspect=fixed;verticalLabelPosition=bottom;verticalAlign=top;image=data:image/svg+xml,PHN2ZyB4bWxucz0iaHR0cDovL3d3dy53My5vcmcvMjAwMC9zdmciIGFyaWEtbGFiZWxsZWRieT0iYXNhbmEtbG9nby10aXRsZSIgZmlsbD0ibm9uZSIgaGVpZ2h0PSIyMiIgd2lkdGg9IjExMiIgdmlld0JveD0iMCAwIDExMiAyMiI+PHRpdGxlIGlkPSJhc2FuYS1sb2dvLXRpdGxlIj5Bc2FuYSBIb21lPC90aXRsZT48cGF0aCBmaWxsPSIjMEQwRTEwIiBkPSJNMTA4LjIwMiAxNi43MDNjLjA2Ny43NjUuNjc5IDEuNzM5IDEuNzQgMS43MzloLjYyYS40NC40NCAwIDAgMCAuNDM4LS40MzhWNC4zNTloLS4wMDNhLjQzNy40MzcgMCAwIDAtLjQzNS0uNDE0aC0xLjkyMmEuNDM3LjQzNyAwIDAgMC0uNDM1LjQxNGgtLjAwM3YxLjEwOWMtMS4xNzgtMS40NTItMy4wMzUtMi4wNTUtNC44OTctMi4wNTVhNy42NjcgNy42NjcgMCAwIDAtNy42NjUgNy42NyA3LjY2OCA3LjY2OCAwIDAgMCA3LjY2NSA3LjY3MmMxLjg2MiAwIDMuODkyLS43MjMgNC44OTctMi4wNTR2LjAwMlptLTQuODktLjYzM2MtMi42OTIgMC00Ljg3NC0yLjIzMi00Ljg3NC00Ljk4NiAwLTIuNzU0IDIuMTgyLTQuOTg2IDQuODc0LTQuOTg2IDIuNjkzIDAgNC44NzUgMi4yMzIgNC44NzUgNC45ODYgMCAyLjc1NC0yLjE4MiA0Ljk4Ni00Ljg3NSA0Ljk4NlpNOTMuMjEgMTcuMTcydi03LjA2YzAtMy45ODEtMi41MS02LjY2Ni02LjUxLTYuNjY2LTEuOTEgMC0zLjQ3NiAxLjEwNS00LjAyOSAyLjA1NS0uMTItLjc0My0uNTEzLTEuNTIzLTEuNzM1LTEuNTIzaC0uNjIyYS40MzkuNDM5IDAgMCAwLS40MzguNDM4djEzLjY0NmguMDAzYy4wMTIuMjMuMjAzLjQxNC40MzUuNDE0aDEuOTIzYy4wMjkgMCAuMDU4LS4wMDQuMDg2LS4wMDkuMDEzLS4wMDIuMDI0LS4wMDguMDM3LS4wMTFsLjA0My0uMDEzYy4wMTctLjAwOC4wMzItLjAxNy4wNDgtLjAyNmwuMDI0LS4wMTNhLjQ0LjQ0IDAgMCAwIC4wNTMtLjA0M2wuMDEtLjAwN2EuNDM0LjQzNCAwIDAgMCAuMTM0LS4yOTJoLjAwMnYtOC4wNmEzLjg3IDMuODcgMCAwIDEgMy44NjgtMy44NzEgMy44NyAzLjg3IDAgMCAxIDMuODY4IDMuODdsLjAwMSA2LjczOHYtLjAwMmwuMDAyLjAxOHYxLjMwN2guMDAyYy4wMTMuMjMuMjAzLjQxNC40MzUuNDE0aDEuOTIzYS40NS40NSAwIDAgMCAuMDg2LS4wMDljLjAxMS0uMDAyLjAyMi0uMDA3LjAzMy0uMDEuMDE2LS4wMDQuMDMyLS4wMDguMDQ3LS4wMTQuMDE2LS4wMDcuMDMtLjAxNi4wNDUtLjAyNGwuMDI3LS4wMTVhLjQ5LjQ5IDAgMCAwIC4wNS0uMDRsLjAxMy0uMDFhLjQ1Mi40NTIgMCAwIDAgLjA0OS0uMDU3bC4wMDMtLjAwNGEuNDM0LjQzNCAwIDAgMCAuMDgyLS4yM2guMDAzdi0uODkxWk03My4xODggMTYuNzAzYy4wNjcuNzY1LjY4IDEuNzM5IDEuNzQgMS43MzloLjYyYy4yNCAwIC40MzctLjE5Ny40MzctLjQzOFY0LjM1OWgtLjAwMmEuNDM4LjQzOCAwIDAgMC0uNDM1LS40MTRoLTEuOTIzYS40MzguNDM4IDAgMCAwLS40MzUuNDE0aC0uMDAydjEuMTA5Yy0xLjE3OC0xLjQ1Mi0zLjAzNS0yLjA1NS00Ljg5OC0yLjA1NWE3LjY2NyA3LjY2NyAwIDAgMC03LjY2NCA3LjY3YzAgNC4yMzcgMy40MzEgNy42NzIgNy42NjQgNy42NzIgMS44NjMgMCAzLjg5Mi0uNzIzIDQuODk4LTIuMDU0di4wMDJabS00Ljg5LS42MzNjLTIuNjkyIDAtNC44NzUtMi4yMzItNC44NzUtNC45ODYgMC0yLjc1NCAyLjE4My00Ljk4NiA0Ljg3NS00Ljk4NnM0Ljg3NCAyLjIzMiA0Ljg3NCA0Ljk4NmMwIDIuNzU0LTIuMTgyIDQuOTg2LTQuODc0IDQuOTg2Wk00OS4yNTcgMTQuNzQ4YzEuMjgzLjg5IDIuNjg0IDEuMzIyIDQuMDMgMS4zMjIgMS4yODMgMCAyLjYwOS0uNjY1IDIuNjA5LTEuODIzIDAtMS41NDYtMi44OS0xLjc4Ny00LjcwNS0yLjQwNS0xLjgxNS0uNjE3LTMuMzc5LTEuODkzLTMuMzc5LTMuOTYgMC0zLjE2MyAyLjgxNi00LjQ3IDUuNDQ0LTQuNDcgMS42NjUgMCAzLjM4My41NSA0LjQ5NyAxLjMzOC4zODQuMjkuMTUuNjI1LjE1LjYyNWwtMS4wNjMgMS41MmMtLjEyLjE3LS4zMjguMzE4LS42MjguMTMzcy0xLjM1Mi0uOTMtMi45NTYtLjkzYy0xLjYwMyAwLTIuNTcuNzQtMi41NyAxLjY2IDAgMS4xIDEuMjU2IDEuNDQ3IDIuNzI3IDEuODIzIDIuNTYyLjY5MSA1LjM1NyAxLjUyMiA1LjM1NyA0LjY2NiAwIDIuNzg2LTIuNjA0IDQuNTA4LTUuNDgzIDQuNTA4LTIuMTgxIDAtNC4wMzgtLjYyMi01LjU5Ni0xLjc2Ni0uMzI0LS4zMjUtLjA5OC0uNjI3LS4wOTgtLjYyN2wxLjA1OC0xLjUxMmMuMjE2LS4yODIuNDg3LS4xODQuNjA2LS4xMDJaTTQxLjg2NiAxNi43MDNjLjA2OC43NjUuNjggMS43MzkgMS43NCAxLjczOWguNjJhLjQ0LjQ0IDAgMCAwIC40MzgtLjQzOFY0LjM1OWgtLjAwM2EuNDM3LjQzNyAwIDAgMC0uNDM1LS40MTRoLTEuOTIyYS40MzguNDM4IDAgMCAwLS40MzUuNDE0aC0uMDAzdjEuMTA5Yy0xLjE3OC0xLjQ1Mi0zLjAzNS0yLjA1NS00Ljg5Ny0yLjA1NWE3LjY2OCA3LjY2OCAwIDAgMC03LjY2NSA3LjY3YzAgNC4yMzcgMy40MzIgNy42NzIgNy42NjUgNy42NzIgMS44NjIgMCAzLjg5Mi0uNzIzIDQuODk3LTIuMDU0di4wMDJabS00Ljg5LS42MzNjLTIuNjkyIDAtNC44NzQtMi4yMzItNC44NzQtNC45ODYgMC0yLjc1NCAyLjE4Mi00Ljk4NiA0Ljg3NS00Ljk4NiAyLjY5MiAwIDQuODc0IDIuMjMyIDQuODc0IDQuOTg2IDAgMi43NTQtMi4xODIgNC45ODYtNC44NzQgNC45ODZaIiBjbGFzcz0iX25hdl9sb2dvLWxpbmtfX3RleHRfX1lFOWZYIi8+PHBhdGggZmlsbD0iI0YwNkE2QSIgZD0iTTE4LjU1OSAxMS42MDVhNS4xNTggNS4xNTggMCAxIDAgMCAxMC4zMTcgNS4xNTggNS4xNTggMCAwIDAgMC0xMC4zMTdabS0xMy40MDEuMDAxYTUuMTU4IDUuMTU4IDAgMSAwIDAgMTAuMzE1IDUuMTU4IDUuMTU4IDAgMCAwIDAtMTAuMzE1Wm0xMS44NTgtNi40NDhhNS4xNTggNS4xNTggMCAxIDEtMTAuMzE2IDAgNS4xNTggNS4xNTggMCAwIDEgMTAuMzE2IDBaIiBjbGFzcz0iX25hdl9sb2dvLWxpbmtfX2FzYW5hLWljb25fX0gzWHFhIi8+PC9zdmc+;" parent="OMl_ndMxMbbxKL08wirc-3" vertex="1">
          <mxGeometry x="15" y="55" width="76.36" height="15" as="geometry" />
        </mxCell>
        <mxCell id="OMl_ndMxMbbxKL08wirc-4" value="Service / Application / Product Portfolio" style="swimlane;whiteSpace=wrap;html=1;rounded=1;fillColor=#fff2cc;strokeColor=#d6b656;fontSize=10;" parent="OMl_ndMxMbbxKL08wirc-1" vertex="1">
          <mxGeometry x="10" y="214" width="280" height="160" as="geometry" />
        </mxCell>
        <mxCell id="OMl_ndMxMbbxKL08wirc-5" value="" style="shape=image;imageAspect=0;aspect=fixed;verticalLabelPosition=bottom;verticalAlign=top;image=data:image/png,iVBORw0KGgoAAAANSUhEUgAAAiEAAAHKCAYAAADVfJtbAAAAAXNSR0IArs4c6QAAIABJREFUeF7snQecVdW1/3c57dbpzAwdBESaBVREjGAPaiwJPBNLNLanib68RE1/jqYYS9SnpmBM7OWBiR3sWBAVsSKIFOnTZ+7cfk/b+/9f+9wBRKyUOyPrfD7zuTNz7z17n+/eZ+/fWXvttSjBAwkgASSABJAAEkACJSBAS1AmFokEkAASQAJIAAkgAYIiBDsBEkACSAAJIAEkUBICKEJKgh0LRQJIAAkgASSABFCEYB9AAkgACSABJIAESkIARUhJsGOhSAAJIAEkgASQAIoQ7ANIAAkgASSABJBASQigCCkJdiwUCSABJIAEkAASQBGCfQAJIAEkgASQABIoCQEUISXBjoUiASSABJAAEkACKEKwDyABJIAEkAASQAIlIYAipCTYsVAkgASQABJAAkgARQj2ASSABJAAEkACSKAkBFCElAQ7FooEkAASQAJIAAmgCME+gASQABJAAkgACZSEAIqQkmDHQpEAEkACSAAJIAEUIdgHkAASQAJIAAkggZIQQBFSEuxYKBJAAkgACSABJIAiBPsAEkACSAAJIAEkUBICKEJKgh0LRQJIAAkgASSABFCEYB9AAkgACSABJIAESkIARUhJsGOhSAAJIAEkgASQAIoQ7ANIAAkgASSABJBASQigCCkJdiwUCSABJIAEkAASQBGCfQAJIAEkgASQABIoCQEUISXBjoUiASSABJAAEkACKEKwDyABJIAEkAASQAIlIYAipCTYsVAkgASQABJAAkgARQj2ASSABJAAEkACSKAkBFCElAQ7FooEkAASQAJIAAmgCME+gASQABJAAkgACZSEAIqQkmDHQpEAEkACSAAJIAEUIdgHkAASQAJIAAkggZIQQBFSEuxYKBJAAkgACSABJIAiBPsAEkACSAAJIAEkUBICKEJKgh0LRQJIAAkgASSABFCEYB9AAkgACSABJIAESkIARUhJsGOhSAAJIAEkgASQAIoQ7ANIAAkgASSABJBASQigCCkJdiwUCSABJIAEkAASQBGCfQAJIAEkgASQABIoCQEUISXBjoUiASSABJAAEkACKEKwDyABJIAEkAASQAIlIYAipCTYsVAkgASQABJAAkgARQj2ASSABJAAEkACSKAkBFCElAQ7FooEkAASQAJIAAmgCME+gASQABJAAkgACZSEAIqQkmDHQpEAEkACSAAJIAEUIdgHkAASQAJIAAkggZIQQBFSEuxYKBJAAkgACSABJIAiBPsAEkACSAAJIAEkUBICKEJKgh0LRQJIAAkgASSABFCEYB9AAkgACSABJIAESkIARUhJsGOhSAAJIAEkgASQAIoQ7ANIAAkgASSABJBASQigCCkJdiwUCSABJIAEkAASQBGCfQAJIAEkgASQABIoCQEUISXBjoUiASSABJAAEkACKEKwDyABJIAEkAASQAIlIYAipCTYsVAkgASQABJAAkgARQj2ASSABJAAEkACSKAkBFCElAQ7FooEkAASQAJIAAmgCME+gASQABJAAkgACZSEAIqQkmDHQpEAEkACSAAJIAEUIdgHkAASQAJIAAkggZIQQBFSEuxYKBJAAkgACSABJIAiBPsAEkACSAAJIAEkUBICKEJKgh0LRQJIAAkgASSABFCEYB9AAkgACSABJIAESkIARUhJsGOhSAAJIAEkgASQAIoQ7ANIAAkgASSABJBASQigCCkJdiwUCSABJIAEkAASQBGCfQAJIAEkgASQABIoCQEUISXBjoUiASSABJAAEkACKEKwDyABJIAEkAASQAIlIYAipCTYsVAkgASQABJAAkgARQj2ASSABJAAEkACSKAkBFCElAQ7FooEkAASQAJIAAmgCME+gASQABJAAkgACZSEAIqQkmDHQpEAEkACSAAJIAEUIdgHkAASQAJIAAkggZIQQBFSEuxYKBJAAkgACSABJIAiBPsAEkACSAAJIAEkUBICKEJKgh0LRQJIAAkgASSABFCEYB9AAkgACSABJIAESkIARUhJsGOhSAAJIAEkgASQAIoQ7ANIAAkgASSABJBASQigCCkJdiwUCSABJIAEkAASQBGCfQAJIAEkgASQABIoCQEUISXBjoUiASSABJAAEkACKEKwDyABJIAEkAASQAIlIYAipCTYsVAkgASQABJAAkgARQj2ASSABJAAEkACSKAkBFCElAQ7FooEkAASQAJIAAmgCME+gASQABJAAkgACZSEAIqQkmDHQpEAEkACSAAJIAEUIdgHkAASQAJIAAkggZIQQBFSEuxYKBJAAkgACSABJIAiBPsAEkACSAAJIAEkUBICKEJKgh0LRQJIAAkgASSABFCEYB9AAkgACSABJIAESkIARUhJsGOhSODrSUBKSV944QWe79+fZ6w2FmoxaELXqWummdml0aymUYNz6ht5VshwqnOuxiCd5dSrK8LS9X3JQo7gTkho0YLQ7ZjIu640qqrE4DVrvClTpviUUvn1JIhXhQR2LwIoQnav9sarRQI7hMCsWbP4hv79DY0xXXNdnjE9s2nNhujbSxeXN7W3xQnXoh6XISmo5lGhuZLohErNE1QjknBJiC6JYKagTEpKCZOUSEk9SQRn1INfKSculdwJm6ZjO7ajU+owSjKVZZHUfvvs1zV04OAug7q5Kua4ltbfnT5qlIviZIc0L54ECewyAihCdhlqLAgJ9E4CDVKy+Kuvmk42axTCwnz9lYWx1nR7dSbvDfKkKPd8J850rcwTojpne7V6yCzjISOcKeQtynUuGdXA2CGIkhqalIRSShlnjDD4XTICFhQZjEbSJ0SwwNIhXNf1LcNwnVzBDZm6Kzw/X8hlU/FwtFUjckOY0NYQ07uI8Nr71dQ0H77vwc2WYeRCnpc/c8oUG0VJ7+xzWOvdhwCKkN2nrfFKkcAXIjBz0SI9kUiEC44Taky2lq9tbqtpTLQOsIWoy3p2VSqXr5FU9rEikTrBSJwyHmOcmZRzjXKmS8445zqjnDMhBfV9nxICf3IQH1T6QtWDckZcXxLdtIjv+8TxPMkYo1JKeCVCCFArhBEhiZCSUykZob7veb50PE8j0pa2mxG2mya+28UEbdJ8b01Y09v69aleM6C6bsWYYYNacxmRuvy44/IoSL5Q8+OHkMAuJYAiZJfixsKQQM8jAFaIKx5/PGTn8xHXItG331ncP+d5o9oz6QEOIYPy0u3jc62ah61KZmgRnxKTcE3XDYOTwLoBr1QySgilBF5BPMDh+xKsHIQUhQfoCTg0xgjlOqy3EEkosT2XGIahPutLQYQnCeecMAYFEAJnE8InjFDCqSSBnUQQ4XhCk8Sn8EOE49uFnJvPpYRdaNakWBszjHW18Yplw/r2W15XE9lQVxNL/GTSjHzPawWsERLYPQmgCNk92x2vejcnAMLj0rvvDmcsWd6USFW2t3YMz9m50S6R/VoSiX6aZQ3wOatipllBTV2jusEEp9ynhBJYK6GcMGAoYPFEEE8IAsspID4EJQQ0AggKznUCVg0QD8Hn1VoM4SQQK7b0iUclcR2PmKapLCLKCuIKJULAGkKIILB0I6VQ39c0TQkRx3EII5xolKnvUKVwhJTCE8J1PM91CtR307murmbLJxurQqFVNZHoG8MHDnqrnIi2G878cRKtI7v5jYCXX3ICKEJK3gRYASSw6wicN3OmHg+FKroynXUrmptHN/vOfhlPDPWJ7Ec5q2OmXqabIYsbOtesEM/YecY1QwkLx3NhyYSAeQKEBIgMS9PUK0gFeFV+HSwQGIElxCcaiBLwO/U9ZdEA0QCWDEHANZWq7yjhAV6pQhDLMINzisAaAhYQONT5fXeThcTzPCVCCEgc6RNf1cMnjBOiaQw+J+1CXuiUiIhueOuXL+8KEW1tVNOXVUfi7/eNViwcXla7ctLkyR0zRo92dl0rYElIAAl0E0ARgn0BCewGBC665554Itnap7Gzc2DO8Se2d7Uf0GkX9vDLYrXCMqORSMTghk4pY5RyjSaSSWK7HolEIgRmdWXNAGsEjBhS2TSIJL4SCEqQKKEB//GD3ylVPh/wHXA1lUL5dhBOGTGUJYMpK4rnO8R3XBIKhYidd5RoASuJsqgIIsHqAWKj2yIC4gb8RmBnLwgU6gbLPSBsCIcSJMm7BfU/KF+AlaVgk1g0TCxNF046J7pa27N2NtdeZpirB5bXvl4fiz0f0tgHF+0zqW3q1KnebtAd8BKRQI8hgCKkxzQFVgQJ7DgC4Nv5k9mzzQ1ta8pak+khiUxudMopHJXK5kdY0XCtGQqX8WjI9KwQ8/XAspF3bLXEwUEkcJ3ouk4cxy0KgMBaAQspShCoLS4SjBDqVVJYLvGJB/4cajEGDqGWYUCacEIll7APhkrPKUjhea70PDukMzufyjihUMjxXeG6tl1gTEtTtfZCpOd5VAkRX0jYUaObui4ZsQSVBmfcYoQanicMMLCErJDOdc3yGeECdIzGlSRyXFdtx+GUq6UjUzeU7UTkbS/Z1pHwM4UNVfH4S30s4+lKPbTsx6d8v3Ha8OH2jmsNPBMSQAKfRgBFCPYNJPA1IQB+HksJ0R+ZO7ds/rK3BnU59si17W2ThK6PooYxUBp6lWA8UnAdXllRTTywRBBJHOkHrh0k8LeAVxAlYJXQYSkGHECLP0pGgE+HWpKRhDJ4z1PLLerv4jINOKJK4UmNUOG7js89YVMh06LgdDq5XCfxZauuyY6IztuFY3fpmp7lRMv7hUJq6B57NjKNuxpj1HddZhkmTWa7aFtXEnbdxHxKyl3Xifo6LfeYX1Zw/LhrOyHPdeMuIdWEshjTtCjR9KgesqKaZVmaoWtCUmYYFgs23zCSTCZJyAwT4btuurWtQ3e9DVWh0FtDaqrmWIK9ed1ll7eOphSXab4m9wdeRs8kgCKkZ7YL1goJfGECs6Tkhffes+bMmVOTJIURrXZ6XCLvHphnciSLhGttQuJ6KGy4klDBKaFMUxYPOHQdfCqCA5YvQIQUCgVlBYFlEBAXTNfUEomAnS5CEAj7EexWAf8QQXzhEth2qzNOTK5JjRK1hVY6dl4W7ISbK2wghcJ6jbANBmFrQyZfW1NRs3pAWSxdXhbJM17uVhlJQbJhb0kk4s6eMSNwAtnGMX3WLH5INKp1+j7PCcHTPKMVmK25eVfLtCfDbW3JmrSTq3Fcu84Rsj6ZK9QIRqsT6XS1EYvUG6FIlW6aUSsc0iPxMi3nOUxtIfYFEYWCbaeSXdxxV9fGIwuqrfAzowYNWfTd757XNZVSXKb5wj0SP4gEvjgBFCFfnBV+Egn0KAIgPtKvvBKe8/6CunWNzfu5jOzdniscYFOxBw9HKrWwFfEI5xR8ObimlkxcqewcRIkRqtwoiO8HSy4c/DiKP0EkD7V6obbMasovRCNewVUCROcayeazhJiExONR4hVsSW3PNTyZzyeTHSRbWEeyueXlIWtlhRX7IETJioMmjk/YOVYglZX2zdOm7ZTljoaGBkYGDTJIrW7YhbCethPm2o3r40nX67u+tWmUz7WByXx2MNH0gVrEqpOmGZe6ZlnhkOG6Lrcsi2STabuQTCbKQuElNZr18Lihg14/+ojJS0+vHZfD3TQ96hbAynwNCKAI+Ro0Il7C7kUAxIfz+uuR5996rf6jdOeE5a2Ne3uUfcOMRwe6jJUJXbOopjPCtWDLK1gulNMmIx4RaqcLhA9TsTyEkilFR9Fg2QXWZrodTSGWBxz5vE0s3SCcakqACMclkgpiWlx2dXU61PXzTjKzUff8pVWGtaSMWe/uv+eID2or6tprPC/3kxmli82h4qC88IKZ99pM6TqxV99ZMiidTg3zuN6/y8kPbE9nRvCwOcgIRyok55GyygrNMAzavGFD2hJyreX4bwyMlj28/9ixb5xw8mltaBXZve43vNqdSwBFyM7li2dHAjuMAEymd7/3dPjp+Uvq17a1TEh53oSEcA7JCH+QEY2UEVO3JOOEGhpxYQssRBwF39HuLbVqfwq4iUris8DWwaTayqo+B9tfqS8374SRwe+wLKMil4JFxZPEtR2iU0ailpnPt7d2pTs714e5tiRuRd8q14139h46+KO9+o9IXnLUURCltNuossM4bO+J5s2bpy0lxMqTjLW6qaP2nVVL92xp7Rie9dxxnsZHG9FwPYtYZUzTjEKh4LjZTEdIkLerLOvp8XvsNX/iuInLzp8wIbe99cDvIwEkEAQixAMJIIEeTmDOihXmw88/X7usac2YTr9wcIHSyRnp7ylDZrnUdZMZJrF9LwgYphctICA+QEgUt7yC62m3CFExN9SyCjieQkCPQLBonBNOYNsrbJH1iA+xOBgj0VCYpLqSIDzgNHnhuMlkU+OyqO0uqItEF/fr3/eDaQdMXVddWZntTTE3wEn18TfftBK6HZ3/5ttDFi1eMirhZPcVljVehoxhQtcrQvEwS3V2pXOdnWtrw7EF/eOVj47dc8SbN00/q6Mniqwe3pWxekjgYwRQhGCHQAI9mAAsvay67774m43r9l6f6jq8Q7gTUtQf5Zh6TagsZuUcl1JNV86jrh8IBqUpXFctm3SHOGcgOagoBhYLXsE3hDGDSA+WZrj6PEQAcV2b+C7kbZHEMgxi53MkaliEeK7jZDIJJ51ZQ33xXl0o/GRfw3z7p9NPb02OG1eYQemnOpT2YMSbqrZo0SK9tcwLPfbMa/WL160d1erkvtnhFSbQiFUXikerNE2TTjrTkutMvFUXr37ikH3GPz1z+hkbeqoQAcvZ7NmzVVCXpUuXyssvv1ztne72awH/mVGjRtGlNUvpqLZRcsZnOAR/kfZT/jj//2hoaOhx1q8vUn/8TGkIoAgpDXcsFQl8LoFL7ror0tbePviDjRsPymr0mAz3x6eo6ENjEYuEDCoYp4zrgR8H+HwUE76BVcN1CsqHg5Likox6FZDhBQKbE6EECSWMW8VAYsEuGen7RHi+2iUT0g3i2gUS5tzraGxMao63zpRkQUTnL9SWR5ec861T150+blyPXHL5XLif8QGwjry6YYN57ay7B7Tm0mNWtTZPcgx6hBa2+nHOw26+kGNCroyb5iuTx4x+cDCrfqthxowetZX3z7NmRVdsXD2g3c2HhEa0rO9THrJcj3plvidtUzI3n8uHI9GQiBgGzSW6tIE1/VfFzv7hevLCC6xzzXtD1q1vig8ZOsSpqaxo/uW0GW2fxfSqe++tWPDWwmFVfWt4Rbhq/Q0XXLBxe9oAv7v7EEARsvu0NV5pLyEAT5TLysyBK1ra9k96/nEZX+zD4+FBejQcLXDJXMg0C+HONaby3qscKuDXAT4eDAKZByHSDV0nxPeCwGIQCES5ZwSBxJQIgYUabikriPL1gKBeErbt6rDVljBfSieTyaVaW9ZGBHk7ysizleHoG2ce8621F06ZAjtFvtZPvGBJeLypKfTP++/o/2Hrxn2Sbu6wZK5wkBYy6/v06WNkU8mETvyFI/v1vXXi0BFvNEw7LdUTutg8OU+77YpnJ7z9wbunZj23P4ta3OaMafGI7nMa9T3pxM1wwbNzMpNMME0IyvN+vr62dsGYUaMebEwmxYqNa89JZtNjq8oqC5VW6OEFV/3tgU/bGdQwa5bxwqsvHNbY2fKDUKyM1cViT03dd9Ssn884P9kTeGAdejYBFCE9u32wdrsZge/95S8Va9rXj2xOpY/vsO2pnqEPj1ZVlVNDY64UKs4HRDSFbbNBgjiuHEdBOKh8LIFRhAg3cCaF31UIcwF+Hj6hkJK2GHkdlmN8yYnKDeP7xC84xOAGieg6cfMFkWrrbGW283ZMo3MrrND8CkusnnL5DamGr7n42LrLqWWNDa9adz74dP2G5vZJjamuY10m9jPCZr0n3HxdWdnre5RV/WP88BHzeoIQgWWl6x6fvf/7y5ednnedISwWJXmd6rwsXJ33RT/btmm5FWuU+Xwn9Qqu7vjCkCQbj8Zeqqzr8++cwSre/PCDX9vCO7gsHpd9rNgDBw8dfsWt5/98m6LinJtu6j//gzcu68imvk0Zyw/uU/vA4aMPuuGq73+/Yze7ffFyvwIBFCFfARp+BQnsSAIwyV08d67x1ovPDMsZ2oEb06lTE8IbXTtkUJUWiWi2L5TQ8ERgqQCLhtrNokKnB7dwYAeBI8jrot6HHbgQXAz8RNTbwe8gRmDrroqQaoWUBYR5gpSHIkTmPZFt70jTnL2SFuxXqiLh2aP7DV46OpXqwrV+QmYuWhR+7PnHR25MtJy0vrN9qlkZHdLZ2SmH1NQuHlpVd8/EYWNe+NVx0xtLHU9k1oIFoefmP9ffFTLs6YQliDBZReSAjxobz+tKdsWGVA+4PSz9Z0OEpS3flxoxhOeSZm/UqETHmjf2fn/jut/FaqumhgxT61yz8bnDx+5/+d3nX/r6J/q9lHTSz398yJpk6+/K6voclMukWqOE/2368P3/1HD++biDaEcOFF/Tc6EI+Zo2LF5W7yAAjqdL58yuefzpF8euz6VP0SrLD9KrKoeKsGWmXZtQ0yQuLKXA7hUiiKYWUeAHNEUxa23gbLgpsVy3GAHhofw/imHYNxGhQdRTrlFS8FzlPxLnluQF18u3dm7keee1GiP08B71/V89/ogjms6fMMHtHTR3TS0bpGStd/ylz7rOlkOXbFhzbF46+woh4hHGPxrWd+CDB4we9/jvpn0PHFZ7jKPuzEWL9MdeeeIbH25c/5tkR6Jmr4Ej/jiuon7WzRdf/Imgcf85668H3Pfsk7+tHzbokHg8zla+9d6yIdHqG7818Zj7tvZ9uXDWn6MvLHz3zLZC9uLho/catHTJ4rbaUPj248dO/eN1Z5yR3TUtgqX0ZgIoQnpz62Hdey0BsH7cMHu29czKlUNWdzRPzghxfKiqfHxBY7WOzhkLh0m6kAN1EVg8QIBQ8PeQm3a8QNr6wMKxpQjZnOlWBRzjGnH8zXE+YFkmsKQwFSmVMp+Edd2nqXw+ua7pwwrJ58d87f+OmXjMBzeedVJXrwW8Cyp+02tz4s+88sqoDZ3txzYlOo9IZVPV/fr2XTO4T5+HDxt7wNyJh5+8ricFNjv/zlsOen3Z4oY1a9bWTthj9JXP/va6h4IshB8/zr3jltH3zXv86hH7jduvtra2fcHzL7IBVtlj0/ad+L/XnvXD5i0/fcHdf9nziTdf+ZVeXn7w6LFjnHnPPc/6mKEHT9r3iD+gCNkFnfBrUASKkK9BI+Il9C4CsPvilw89VDH/1VfHrLbT07xw6Ehf58P0SCQiDM6yrkd42CSGaZJcLhc4nMogIy2jYAUJ/EFBnAimsrgo59JuC4hahgF7CSXEg4S3lKjdLuo7jqeSz+nwPqS8F55H7UKHn0i/HXHknMPG7P3U0OGj1zVMnVroXVRLU1uwiiy57neD1nZtOKnVTh2e85x+FtNbRtUOfOTIfSY99pOjTtjYUxx4f3TXzRPmvPpyQ3tLR9/xw/ZqmHfNLY9ui9rF9/5t+N1PP359n2EDBx846cAnX3pu3je81q6mMQOG3jxRxud1L8uBkD7ufy8/6vVlSy8dNmZMtqa2OvHay6/sE3bJ08dOnXzlX2b8MFOaVsFSexMBFCG9qbWwrr2eAJjFl639cMBzr71xYGvBPsaLWodoFWX9POEbzNCJFY8S23VItpBXfhshA4KDgSWkKDHUc2sgQsAKInkgQmC77aZDBj4g8K+C4xHN0IkGYgXyw3iSGIwTXVLBnEIh3dzaHCLkpQgljx1+4KTX/zr9jKaeMmn2psa+8eVHBz780rOTVjc3Hpkv5MbUllc17lld/+A3xk54+qJvTm8vtY8IsPzx3bfsN/eNBQ2tre39Jo0cc8UTDddvU4Sce+efRsx++qlrrJrKPuMm7PPbNSs/mtaxrnG/uljZvdOP+MYdDccHvh6whfzxRU/9oDmfPnHMvvv9HxV+9QfvLf1WBTNePGn/I353zdlnp3tTG2JdS0MARUhpuGOpuyGBa596KvLgvHkjU8SZ1uW7h7khcxSLRiqZZWku7E6RHnFkEKPDBF8Q1w0cTosipLixRTmfKhnCAn8PEBxqmWWLo3uZhsD2W1i2sV2V5TauG0Tarp/uSHTKZHpZTJCXqgxzzokHTHr/8lNPTfeEybK3do2rXr634rVFi8ev2rDxW51dHfv0q+qzcXh1/d2H7znx5bNPOKHkE/IFd/zv+Cdee6Fhw7qN9ccdNOXKR39zzTZFyHm33zzy0Xlzr/B0XjNmnzEXtnUlx7RuaPxJRTi24MRvTrv+mqO+2wht9LNZMwf+84lHLzXKo/X9Bwy5ysvl9l/+/genDKute/moQyZfdzVu0e2tXXmX1htFyC7FjYXtrgRueGhe+X0vPDyuS5On2pHQoRlO+4cqy0K26zBIJqcMGZwRx3NVQjnI5mrnC0RToddht0uw6wVyvcCHlchg4CkSJKQDEfLJ1X2iziWFIB4koOOMRCn3su2J5kIqs6CPbj02ZZ/xr08cPHj9Wbj8st1dE5Ynbn59buyFV14Z1dTVdEJzc8v4wTX1K+sjlbMPHXfI6+cff3xJd4tccMd1419a/N4VTU2NtYeNO/B3D/78949s66Iv+udNox5+du5vclRUDxw+4r883wu1tG38qbRd58Bx+8w846jT3qxpbRVXz39k8lsfrTq7vK5qQ1kk/BfN41OXLnrn9NF7DHvtkIMnogjZ7h61e5wARcju0c54lSUk0DBrVuXsl+ZNzmn829FB9Ues6WyvCVdX6TnHVv4ZYPXwIcCHzlVmWtu21W4X9SMJ4fAqurfewhbbomhRDqnBhSnn1S2XZIpByQp2jsRCFtEhCqrj+n4ysz7V3Pp8v3jl7MP2mfDmIWed1dnbw62XsGm3WfTt8+ZZj7z80OjmVOKYjrb28YPqB6wcXNHn9qOGjFu+vaHRt+daz//H1RPmvfv2b9vaO/uMHzD8ymev/vM2RciPZl65/tTEAAAgAElEQVQ/9t8vPPlLLR6rrO/X75eOyDQlUvnvt7Q0H7jHwCGPDaivfdSyTbp0xeJT0q5zYEVl5eNMDz9ZbulHL3t36VnD+w9YeNSBh1/bcFrPCN62PczwuzufAIqQnc8YS9hNCcyaNYs/kkzWv7V8yTEtTv7b4dqq8TJkVeY8h3s0iPFhMQ1WVQhYQyAQmXrdFNVUrbioQ2XDLVpDup1QlYXE99TyTRD3g6lzQiAzeIV4IDolEHad0EzOyba0rGWpzJMDovEHpu49cfHVP/hBFv0/dk7nnDNnjnn7wuf2WN2y8UTLMMdWxGILa2PVs/9+2eXgqPqJHSk7pxYfP+vFd/xl/Jw3X/59W2t77fghI658/o9/fmhb5V7w92vHPfjSM//D45GK+n59f82YuzSV9o7YsH79GeFobNnwQQPvSG1otvKJ/DmUSbeyT81tNXZ4RbLCPW7lByvPG9q3fuGhB+NyzK5o069DGShCvg6tiNfQ4wjcNGeO+e+FC4d80Nx4ooyb3zJqq/YmlmEVPJdRzohlwP4UQnLJbCAYYGkFQrFzWGLZbOkAC8cmEaJMHoFFpPt/BviHCKGS18FyDmVa0YoiCROSCDtHwpLm/Y7ECpFMzRpVXf/YgOGjl99x1lm9dvdLw6wGo8XtEynY+agrqOn7Bc2ThGme2ipEmKZJj3MpXEeYhu5bRsy3Ozv8UMh0CQnnZp53XmpXCIF58+Zpty2cW7ehsWW657mj+lXVPTmqdo+nGn5Yml0j/3nbTfvOWfTyValksv7A4XtdeRCreGhbAej+87Zrxzy44Lnfs2ioYkDdwEtjTvLdNt/cs72r4wLJeKy+vu4u2uXEm1evPrk8El4waOCge+NLNiQ3jqg68YMlS84bMWDwwm8eeDRaQnrcqNQzK4QipGe2C9aqFxMAB9R7nnpqRJub/o8Up9PK+tXvacTjeiqfpfl8ViWWAwuFY9tE03UlQFQIsqIIkcU1FhAnsEoD1pBPPjsHviKw0wUcWEHAgLiB2CFqIpaCcNeVUcrtxLqNS7R05s8H7jnyucd+1tBjs75+WpPDNtgV994czbZ1Vna42X5dTnawx9ngTD5Tb7t+uSNEyHU9y3M9HoROocBFMko95hMvFoo4wvXtsGEkI6a5mlPt/b61A1rsTCpdoUczJ33zm6kZo0fvlAR04Cdy9u9+NqIt0flNUzN4uRGd018Lf1iK6LMX/eOmvR9d+OIfurqSAyaOHvu7+MiD/jV7G5lzz//ndaPuf37OteW11RVDawddWJOLLF1pry1LFuzTEoX8SXuN3OstJ5HROhsbq8qsyG2/OP+yl5+dP19+uHHxicuXf3huXXnFa5MnT77u5tMu7hG5dHrxULJbVB1FyG7RzHiRu4IATDhXPPVUxcPPPDa+Q8r/yBr88Ehdn/6+qYE7Bik4NtEoIZamE+J4xHVtwiyj6GBaDDK2hRVEWTu6fUG2vIBuJ9XiMg0sv3BdVwIELCJQBvc8oTtO1k8kl7BU7rZD9xr/+P0//nHLruCwI8pYJKV+9RU/ibURv6+r6/VrWxpHZr3CaFv6/XwmKwRnEc20LEf6mm5a3DAMqjHOpKRMeoIyQqih69TgBvUdl1qaLtPJlOfZXs73/KTr2EnflV0hK7JhQG3tMi7p+5WG2Tysz4D28ePH584bP97bUdYSSEjYpTu1axtbxwyqqV5xw+VXrd1R5/4yrH90+81jH3913u87k8mhk0fv+4f+tcNn33r++Z+IhnvurX8Y8cCLT98YLotX7NVvxLk1bnR5prKSrln71jezwrlsyB5DjdbGtryfzb5XE4vdNP+3f1l+/q23ass2vnvykvfeP2/PQUNfO2r//a5uQBHyZZpnt/0sipDdtunxwnckAQhAdsWc2X3mvr7oyOUdbTPiA/sfkKWyyjc4d8GyIaTaImtAdlrhQ4ZalcfFKe5uUdFNi0svatWluMd2066Yj4mQzbetTyAxnSC6aRDPc4jwbWIQ6Yt0rtPIF95incknDh170EP3XHRRyXwRvihnYDiXrNRvv+GO6g3p9MiUXxi5sb11P9v3a82IFdd03cym0q5lWI4QosAZKxBDdxhnLlURUCSnjFr5gm1IX1pM0yOca1HXdUNl5RVGwXXMUChiabqhua5DddMSndms49teLt+V6qi2ImstV7w1sKr6vbhhrqznofU/vewyezSlO8RKAj5CS5cupQ0NDd4XZbIjP3f+364Z/uRrL/8xV8iOmDR2/LX7Dt//ga3DsEN53/7DT0e+uPTdq4nGqg7Z+4BztX7jls+aPl0c9rsfj1jV2PiTzmz6G9FoLFdXXvbA8H797579w4bmKQ0NmkUTJ7399ls/HD5g8KJjJx70+1+cemFiR9Yfz/X1JIAi5OvZrnhVu5AA5H9595FH+j704lNH5MPWDC9qHZjnvIxETJa1HSU2NMaDmB++UD8Q+VT5gvDAAtKdiE5VW8X82Lwlt1ucgK8IK27PhS25KiAZuEFQqXxMPLCsOAUQIK2F1tZXKyi9/xvDJ7xy949/3NLTHVDnrFhhPvz8v2rfXbVyz4SdnexobGRHPhMlnBUc4bXXVlQlY2Y4TR2xMWzwVlOy9NCBwzJW2MwTRlyXCl9IxjXGtfZkwuzs6IjnHNnH9uw62/Or0nY+ni4U6q1waKDPeF/DsiqIrof1sjItlckx5vpC8/08t/0utyvVFCZkRZluza8wzeXjRgz7cPrUaW1TBg92ejrHz+r2P7ihYeizb7z2m0I+N3zSmP1uG1Az9P5t5Y6Z/oefjpq/+J1fMq7F9h0x+n8miPhiWD46+7brKxe++/a3N7S2nFhd2yfVv6bP/T8/9/vPHV23d/a8mTP1DRvfO2Xx24unDxsw8J1vHX70X//726c37cLbEIvqpQRQhPTShsNq9wwC8HQ7c+lbg5qyuWOTRJzsWMbeLB4t83TGbM8nphlSO1dAhIAPhy9cwjWNMC3w5ejOiKuWXsD3g/KPBR5T4deVhYQGYkUGu2fAQqJEiKbeIWFNIyKX8Wku30pTqZcqBZ01YegeC26/8NLWnjxxgvPm403Ly5etXLbXxo7msU3J5Dips1qQUrV969eFLevDqvKaJYOqYm2DovX5UEXEDqV0p3PhQvez/CqgXTYQYqSiUZ0wpmX9lPHuB8v6NSXbxnZmc8Ns4Q53GB/mREJ11DTiFbF4yCs4HHxs8sm0rUmapa7bblKyznLlm30rql4aM3zYh2OGjWk6b/z4Qk9m+ml3xs/v/UvForcXfae9rXPI+NFjnzht/8Nenzp16iesMg333NT/sZdePp5QqQ2qH/DEvy6/fjUsHy1atEi/+bVnRyxe9v4B3LBy+4/Zd8Gfz7pQhaVvkA3sg9+mx6cSXQeajK2aeOCEBT/HYGU9Y5Dq4bVAEdLDGwir13MJwET3t/feG7wqlzgh4RSmR2qqRptVFdGcFBQy3+rgp+EI4jkOMXWDcF0jeScfOKAamhIhBqOEb+F4CttwP7YsQ7kSHZsDt3cv24AIEWpbL/EcEpLUl11drWbWfqlcytkH7TVy/lHn/Fd7T40BAksv1zz6aOTFRc8Mbst2jm9rT+zjST9KNb25vq5+dTxevaoiGlm77wGjU9FKK3Px8GmfyPb6ZXsGOLiS1+dGcy3J6JtL3hvUmE6PSkg5PEv80YTSUaFQqNaKREJc05jnCcgu7EnHy0vXSXhd6Q8rQ9YbfULRhYdNOOC9PcbWNJ05eIpdCt+OL3vd3Z+H/rqGZGtWr15VdvDYSU2nTZu2TcfRWUuWGI0r361wNI0OzpLOGTNmbFqOAiGysLk5miSEHHlsXWYC3Zxheeaix8KhDjeaZ5593hHTd8kOpK/KAr/XcwigCOk5bYE16UUEYEJ79hc/Gby8M/ltVlX2bb0sNsY39IjDYYkkSCYnfUE4+H5AjA9YeiGEuIwQX6PEY0H+Fw3yuRRFSLALJliGUUno4O6knOQ9h2i6obbigkABcQPnhsMlLglxJty2zg4zmXuxD+P3f2Po6AVTLrywrScLkKtm31710jsL92tJd+7f1tU5UPd5uramellFvHLRiYcdtd4g0czOjOIKE3K6b9/w4rb1Va8ve3dkY0fnpKznHkRC1nCzoryaWGbYlT6Fbc/pzi5hEZrXHdHBs/llVWbo1apQ9MWj9jlw6XDbbi9lALKvcsuAA3VvEk9f5RrxO72HAIqQ3tNWWNMeQgAmsOvfWjCgQ/jTkz79Dq+Ij+bRUMSlkhREEEadc64y1cIuGK2Yfm7bIoQQDrtbAk3xCREC+zw8sISwIB4IiBDp+cpvBPxAKPOFnejsDBXEK+UF794pe+35Uk+2gAC75TzV//kFr0zKeYXxiXSGh8OhD+srat6eMvHQtYMHj+7cWdtlt9V9YEKe/eqr1ourl/Z5Z82KUW12/sD1icShek3laKM8XiUZZWDVgqByJO/4lkdyyY0tTZWR6LvVVmR+DaUvHXDoPisbps7AjLE95P7EavQuAihCeld7YW17AIEpVzUMW9nZcrpjGsdZkYq9hKZZDicURIgPyyOcBSnmXB+y1W6ydIB1Q0VEZWAJgU2kgfhQodm3iIzabQmBz7qwGMMZ8X0ZCBvGie95aneNTol0sl1dNFt4OZzO/+uQEXs+e/KPLmvpqRaQm+bcZL7x5kdDmzrbx65ct3ZKWUVFe3VZ5csnHzdtcU2fXSs+ttWNwDn2/hee7Pv2xlX7Lm9tOckx+SHVgwbWcsuyYOmMCUa460vuCo85MiNy+XU8n3uzOhKee8TkSfMj05a2NtCGopzsAR0Vq4AEegEBFCG9oJGwij2DQEODZOuH/2PAK8tX/CDJySmeqQ8KmVHTF5IUpEtAhFBdI0xnBKKM+a4XiBAIOFa8BAhE5sPbNHAshaBiyiE1SIq7KShZt2BxGYQC1YjneYSCg6orCeTFtYhOvGw6L9OJV8oou2N4/YDnz/7xL1t7qgABC8jTSxfVr21bP2PJ8mV96wcOWDxgQP93Dz5o4opLjjo911OWB8BX5fGmJuvKO28avTGV+GZjKvWtUFXlHuXVNWWUc5pJ50hlvIxk0zkZ1jSX5LPJQqJzSQWz5o0dMOjBQ4aNWnXxtO33X+kZPR5rgQR2PgEUITufMZbwNSAAPiDzGxr6v9/WND3Uv+6MJPH3YpalS1+q3C1Eg2UTQWwR+PCB1QKMIsTzN1k61DZccDwt+nuA8aN7x8uWIqT7fRApnvTUTho4H5xL5D0SYozoPvNybc3vkPbWvxwycswz/yphTpLPa14I1tWoO7Ud7c2nNba11JfH4/P69u373gE1IxrP30awrM873654f56U2hVX/Hf/1cn0pIRrf9+srNrXM7TqeEUlzTkucXyhIt96hbwoD5l2cl3T6rgkL+1V3fdfx06e8uaFhxyCMTJ2RUNhGb2eAIqQXt+EeAE7mwAIkJd+/esBH2USJ+cM7RQ3bI2L1daa6XxBpZuDOCBU5XyRxCe+ShwHggOsH4wEmXCVlQNER9EmorbXbhEddUtrCFwPvB/8CLWLxtR1olNOwoQT2PubaGlbShKd/zh80MgHZ/3qV409xZKwrbY4r+Gn1Tnfmdba0rqXrvGnp0zcd+Elp1/SY6wfn9Z/wF9kxhVXRFYVOicva2s5N9ynZnKsX31NayZNdStENNNQy2Jc+NJJJH2SzrZq6dzCUf36zR5klT9/+6WXQnyWkiSr29n3BJ4fCewoAihCdhRJPM/XkgAsI9zy3sKB67K5EzOMfjdUVT3WY9yiulX07RDEkS4hEAWVMcI5VYHIwIlUeC7RwYIBR3HXCyzDdM9Km3bAgOUEfEOKSzKBCBEEIrarpRjHgWghhDs+iVDdT7W0r8i1J+6ftNfIe5+/7DerejJ4SOT39sLn9kjnUvuapvnegTUjll988cXbvd12V17zvNWrrf+5668HL2lrOZuUlx1m1FbVOExjBc8lwnEJ8wSpr6kmvOCIXEd72mlr/2BAJPJIv1D8wWOP+87a8yds3sa6K+uNZSGB3kAARUhvaCWsY0kIgAC57r2FAzuJPHFjV9d/VA0cOI5oeohwneSyBWKGQ8QmNvHBb0Mpi27/jsA6osF2XG/zg3Bg/di8BRe+Af4hcHQ7qHYLkSBquyCe8IlhBAnv7M4uX3fEmmxjy5xh1XV3fuuq695u+P+BokoC5wsWOnPmTH1Zdl2fEAt7xt5uR8PU0oQs/4LV/dSPPda4KHz1nQ9+Y1lL25l2NDSFV1RUW/E4951gua2QSZOQrhFNeJLZhUK+ue3DQZWVc6uk9shp3zny/TP2Pjq7vXXA7yOBryMBFCFfx1bFa9puAt0+IMszHSclNHpKrLbPOKu8PJxKpYnjOMQwLOL7btHjVGwKu65CexSz4IKI2OySGiy/bHmAJcSjQdZb+A4XLFi2EbCUQwlY8lVOGeGRWMgQyaaWVq+pde7geNldR4zb443rzri0V0xs4BNSiqyx290JtjrBP+bPj13/7wemNnn506y6Poc6Gq/2JWfReIzYtq0SEuoaU2KEeZ6d2ti4IeaTJ4aUV9131glTUIjs6AbB830tCKAI+Vo0I17EjiQAvgB/eOqpun8++djxqbB5OqmI7UtNK+L4vlpm0TVNiQbf9wh4gnws78vHRMgnhcfWIkQyqbLfggMIZJfhEsK7Q1j2YmRU4cFSj9B9N1lobX2lUrLbjxq2z4u3/PCHnehvsCNb/Yud68zbbyh/5Z0PD0/p7AdWdc1kzzRjrpTU9V2imyahTKow/WC58jNpx+1Kra+g5PF6LfzAOUcc/87ODMD2xa4AP4UEehYBFCE9qz2wNj2AwHXz5lXf8dBD30wa5AwnFjowVFMVyzguyeSyJBQKqRDs4CyqEtCBgNjq2FKUfK5XIocsuBCALDgJY4HAgWBkIHjilkmcVDLbsnLVov6R8N1H7n/QU38/9RxwRO3RyzA9oBl3ShVAoJ5+6611L7yz6DsZg51ZPnjQmIzv6b4U1LAsIqRHfMclpgFLM4KYvnBSjU2NpmM/May85u4zDjv2XRQiO6Vp8KS9lACKkF7acFjtnUOgYc6c+NyXn53cQcgFBUM72A+bZTQUYnnXU6IARAjE7IAlGcuyVEK6LY+trSKfJ0K688RI0R0ylRPKA0cRCvlnPN+x29o+rPDEffuPGDX72+ddtKanxgLZOS3S884KSfduWfL2nq8u++BMr7riO3pF2UCfElZwg+3Z4A8ElhCIhMs8j3DH80g226oX3CeGllfM/Pa077yHzqo9r12xRqUhgCKkNNyx1B5I4PoFs0J3PPTyhHbhnq1VVR0jTaPGpZQ5ArbccpWzBfw8wArSncPFk5sNElsLELjEzxMhIGw41dT5VFh2CJ3KmbKG6J7vOe3t60Np+7FDR46545L9J70/AXda9IieA9FVr7r/ronvtDZdHBvS/xhiaOF0Pkd00yA614ibLxAO+Y3BnycSJm4mK5zOjg2hnDNr735DZv73xEPXbCuDbY+4OKwEEtiFBFCE7ELYWFTPJdAwa5bx7OI391pZ6PrPNKXHxuv69LWF5Jzrao1f0wzlKAoWEBU+XdeVGAHB8FnH54kQ8AWBJ2c4VLZcKpRfgfB8we1Ce3ZN47OjK/rccdaRx736w6lTMT9JD+pCP7zzzqqHFr3yXbs8chGLhUYIwyCGZSoxmU9lVB8Jh0JECE85MWda292I4y6vkuze4eUD7nnk179e34MuB6uCBEpCAEVISbBjoT2JAGzFnbl06R4fJFvPyoToKVZNVX9mmJrtQKh0Rjj4aHCixAj8GIamcriAICFc2wEihBMJsUXAbsIJob5H/Gw6TxPZF2NZ+/bpBx/x/HXf/W4HOqL2pF5DCOygevHq3+61uGXj/8h46DirpioMOYFc3yPCCbZpQz+BqLd5O0f6lJcTkczY7cs/entUdf97D95jz9n/e+65LT3rqrA2SGDXEkARsmt5Y2k9kMAZd97Z77lFr3y/EDNOYxVlw2k0rEF8D/D90IimRAhEQhVSEq7B1llKpF/0JCXbK0KCMO4gQsAWAudnjuv7HYmlXkvbXdMPPfyBv596zkYUID2w4xBCzrz9duuFt14/JRvTfh2qr9kjYReI5BoJ6yHiFZ2Xod8wHSLnCmJ4vvSTmYKeyr8xNBT/56lTjnz4/COPTPbMq8NaIYGdTwBFyM5njCX0YAJgUp+7+M1vdUnnAqu2eh8vZOo+52qHg+8KYmjgBwIiQRQDiwkVbgwmFBVqneqf6fexZdwQMNPDASJGCRnYist04kOyOzi/7xITktGkMo2kLfGvKSPH/vXBH/30QxQgPbgDEUKm/aFhxMKNa64LDayfmjG1qC0lKQvHiZ0vEAbLbTojnu8T17OJQTnk/pEkmcv4bR2Pjampu+HgQ494v2Hq1ELPvkqsHRLYOQRQhOwcrnjWXkCg4aGHyme/9tIhG/zchb5lHhrrUxMqSElszyUWN9VWXLXkAjYKJlQuFxAjEEiMqeiobFM49k+73G4RorbhFn+6BYhyRvUJMUMW8SFRnRSSFfKdnR+uemZYtOKv/7HPxIUNZ52Fk1MP70uX3HVX5OG351+UMPlZrK5quKdrVLiCaBTy/WhqWcYFEeI7ROOcmJwRmbOFSHQ189b2B0bU97/1gnETVs6YMeOT+717+LVj9ZDA9hJAEbK9BPH7vZLArAULQtfPvv/gldI+h9VXH2ZLWRUpi7OC7SqHUw5J6SAJHexcKYoPyagSIcqaAUnp1Dbaz3ZMJWCKZ2yTAFHWj6IVBH4HJ1cN8slIn4Q5z6x+443X9qis/dO08aMX3HzaxaleCXc3rPQhv7x0v8WJxivMoQOm0Gg42t6ZJNUVNYS6gWuyL4VyUAVHZuWH7AvC87Yj2jqW12rGXccdOOWe3598cjNavXbDzrObXzKKkN28A+yOlz9LSv7MnX8fOXfhq+e6tRUn0cqyvrmCo1nhECnkHRULBOJ2qOUT2e2zEYgPSCy35cEkU4LkU4+i6OgWHkrAFMO6w/ktrpNCLkPCmu52rl+/pE43/jpl//EP/mPGOZ27Y9v01mv+6X0zqx9atPDcFo2eH+/fb5BPNZIvOCSswe4Y6DPFEPxMBtmTmSC6L4iecTJ+e+fzA8sqbj35kPHzf37kDPQP6a2dAOv9lQigCPlK2PBLvZWAlJJdfO+9fR9e8MJ/+LHQWaK6bESBSV0lnNM0kkimSHl5OTyoqr/BOVX5fhQvWE0gEJJ7q8RznydC4P1uK0i3CKFCqp0wui98mU5vsJs6HhxcWfn3Rdf874e9le/uWu95UmqXXHbxYetF4be0unI/V9M1R0gSNiJK0Co/IB44OENsGQjXbzBOaM4RfjLdFMm6/x5WXnPHf06f/v6M0aODNUA8kMBuQABFyG7QyHiJmwn87JlZZfc9/PQUNxq5wIsYk63yWCTtFEjYsoiklCTTGRKJRQlESKUccrkQlVROE5stGD4knuPBObuz334a4y1vsC0dU+HzDIKgua6IEdbR+dGaZ4eVV/3tu+MPfuMnM2bksc16FwEQt1N/demoNYXsL/Lx0DRb08sj1VXKsgYSFgKXMU7Vdl0QIWBRg6U4g+rE6UzZpKPzg3o99M/vfePwf//quOOaMCx/72p/rO1XJ4Ai5Kuzw2/2MgIQkOzxd1/dZ0UieZZWW32CCOm1mgYr9MESC9M4EYwTYmik4PnK4kE8QnRBiO4HGW7h8DglLlc554gOT7mfsRyzpWMqxBhR5XT7mwifaI6dTqzZ8EY/Yt4+/chpc686+eSOXoYVq1skcMuzz1bdNPffZ2RN7Ud6n+ohCduhzDAJYcWsyBJ6mq/iwahlPcaJxg2ieZLQRFcX7+x6YYBh/v2bex8wv+G009AfCHvWbkEARchu0cx4kfCkevBvLhuyJtl1qlZX8z0nag3NurauEUnK42Ukm82qIFOaZZIM7IjRuHpSBaWxpQgB4dFtCQEnVU1C/IfNyzXbJE1pEJJdBmoFnF5BiBi+cLMbG1eE84X7+url9y+8/vo1+ATce/sqhHL/3e0zj1hr535FqsvHeyHTcFSgOy0QsLAVSnmH+EQoJ2dCfI+SkG4Qksn5Xkvbxlpu/Ku/Zd1+3pV/XIo5gnpvX8Caf3ECKEK+OCv8ZC8mcPZtt1W+uPidaR3M+ZFRXzPO1mlIC5nEydqE08AfBNbtPeETz4cn1cAnBCaPrUVGt19INw4KQcZguabo99H9f/icC+/pGvFEEHHV1Eziux4JG6Z02jpbrPbEo/Vcu/PCk6a/hdlVe3EHI4SAw/Ot//OLcR+0t/3MHFB7tB0JledAcjDYSUVVX4LX7szLIEKgz2VTOdKnsopkWtscksi+188I3XD4yNFzbjzrrK7eTQRrjwQ+nwCKkM9nhJ/o5QTOmzlTf2PlskkJnf63G7OmiIgZd8En0C4QnemESa4sE/ADFovuZRNlCfmcA3Y5gEjpFiHgbApHt8WE6px4sNMG/AIoU/FHpOsRJ5vP5tdvfG0o1W87+/gTn/7vo49O4PbMz6Pd89+fuWhR9Y333PGDFub+SKuvHuCZlhIhaku3spgF/QWsaCpOjBfEjzGtMLGYRgptiS7ZmXpyTLzyxkM5f6OhoeHj27F6PgKsIRL4UgRQhHwpXPjh3kjg8IaGoWtTiYs6NTlDq4rXSZMxCYnnGFWTAGzD3TKKKQiR7r8/73oDERIELgMnVipgminuoKGE2MRXDq6wmYb5knBfEpNy10/nVoVzzt0DdHr/j3577breaHpvaGhgL6hwKYeSmlFtH/OMaVu69GNjSw0ZxTKVzTTq1bHR/YnfMGPG13IHyGONjeFL/9BwYptGfh0dOmCvLKGBE7OQwZKM9DeJkG61ahgGcVxfLct4XRnhNrevGhQKzewfZnc+1vCn9s/rg1/lfWi7yy+/XO4U4SuDJAQ74gVbBLgAACAASURBVNxQT7g+FGNfpZV7x3e2W4Rc+9RTkVffWFHd0tEZdTSu60QnzLKk6QuZcbIkZBhKyXePOJJzVSb1uTTUMimssHe/68B2RepDjChhcpcQokvqUTeTiYac1kevuSb9VbHOmrXEuH/pS+WJQlfYLDO1sGfquUyakYgBNnPiSyqY5kvX04qDqR0U9RlDpQszCkwuYL8vHox3f39zTR3fkxZcKyQGKR4CFoPhf1rAw9zqwtxtnGfrstT3rK2/SYjreVLXNAqv2+JFt6ivq328vszzpNA211P3gnrKYj2FB+0V1Fv3PSp4uPgaXIf0fSo0RvViOzPYjAhtzBmHjYkQBN3zuaS+kIK4wjJYIUpI+32X/7RzZ/hDnHrTTfEFHy4+IWXwS3lVxV5aNKT5GlNbb2HpRdfMj0Uy/VL9C55mwaReFCHBun9xrb+4jVdomgpEJhyXWFQjUaZLVih0dq5tfqw+HLrt59NOeLMnL8PcNGeF+eRz/1eXkKIy6dkRYWphx/ENx5M6Jcz0ONUZdA4pOZOUS0a5z3zKpAcpdzRdGrRgC2ZEQpz6PvcLmXStId/7zhET3/rZCSd85fv5S7XTLvzwrCVLjBvuvuOwDcT5tRMLHSBiUd0tei6DlYzJomGj28tZULVcB0LYzRdIiGrE6+zKyrb2V8bV9f31c7/94xs7svqQrPGBV5cOcgyrb852DSsS8nwRmO98BrUDV2tPSF/6jLjC9oXPmA+xgYsVN+AXxqhknOiM6RpTrrfc53YmZ1jhOG9tbZNhTaZqYpG1s/7wi/avKka++/sba5sTqcFMC8WkVxBGJObkvIwIR8ol8VySSaVFJBoFogLGE8q5+p2p34WEcQYGcDXeFMfqTeO0F1yz63PJiu+5PJiT1H4mf/OYDnNW9//hVY1nmw74DyFbvr9pXvBhbA3mEZgX4DcYrbd+3bp9YUzu/hyMx93vbzlub/2d7vF50/ziwTjcPUZvMTZz+B+nQgvG9WJAaPU1nW++Lk4M5hO4mxm3cy4LhUPEKWR9k/kuFU7BElpifIx07ghxuF0iZM6cFeYvHrxt/3Wp7AlGRfkwIxIJp9I54nmCmZouYE1d+kL4TBCfQ5wEokYpKSnTBZOEQhxr8NzyiaAurMgTDdJpwCOq5FQlfiK+ozvZVdWGvH+8Vnj91ltvBW3ypY5FixbpP3tg3l5ru1LHiWhoVCqfjzLXs8KhCLMhMyoIdwpBDaWQwQETk2LDGQv+oWZYAp+DaQdsqZQwuHtVU6lAmhKuTFIJTcklTD0qKSoRlEq4HeD/TEoa/B8CB0jKKIzfEhaKi04F0GOD9WMw6UNgcPUWVAlSjmx+FfC38PzgfVW94ivMg0CXEaFRDvG0IOq4mh+DYBXqUV1S4E+pqickcYUrCl5hNoH6Ugr19wjc0+oiKFQZ3B8YNA18zQ8e8mHJm0LTEfhU99+MsWAEgvOq36H+6rlQSqEJz6X5zMZ+sdCDNfHyFx+95mc7dFKCLKfPXPGz/ZYnk5f70eihsb51sfZkgjDOSTwWI7Ztw+PaJhECTbylBaS72T+1s21DhEAjQWB3ePqF9ga2msYJ9VwSEkzSZCZvt3YsrA1Fbj1l2glzG6ZO7bHr/rMWrA9defst+yalPKbL88bzcLQ8Y7vlejgSyWezmhaNqKYngkrmU7hf1f4PCZmAmYCr1qRLqYCNRpRJJjyXu+lmK5+Y872jD/vrLWd/t/FL3ci94MPz5s3Trnz+qb0/SHVe4pVFj+UVFTHYSdXdl2CaV4HraLe1jRcj9OqkkM+TimicmI5HOlZ99NGgcPTGcZHK/7u7oaF1R1366dfeFXn3vXd+laXaJEc3IoIJ6ap7EsICQ/tx4apBG/aPw1MDE2qAgrfVTc+JhFtd3e4U5npKhE9lIcdM09SjsXJWyGQdkU+t6hcx/n3aEROe/eGMGZkvW//L/vFI7MmFLx3XmvVO4eHoAOEKynTNFYYm4aGO+xrRdZ14niMVS2VrUkteovgcoEQTo0r2wdAMg50kEKMlGKfhD1AaME5C6iZ4oIBxszh+g81Kjd/wN+OQYSF4hb/V+FgcL7qzQG1+hYTYxccT+AwA3DSeSyoFDKLFV+H7QlC4O6RU433wf/V5IMspZNgmfjCeS5/COAyTCPiYqaFVDa7BPK5aKaiWalAYh2G0D2YtGKPV72oGUPMYXJxipwZxOAGH8mEcp5J7hOmcMS2by/GwZUjqeEKnfs5LpxvLwubz3znmqMf/eOpxiS/btlt/frtEyD8emR+75vE509dlnAt4LDbMiETDed8nnOtE53qw5ikCRekXA0sCL+WgpfJuQPEA2SOCOsHMJmCTJFf4QaZYuizkWxtX6l1t14/bs3r209ddl/2yFz1v9Wrr0j/dc9SqVP4nrKp8jM+ZyQXToPmKoaikv9WMA40CvXhbQbmhP6tOQaHjqKfhLToZgc4Ede/uzGoy6hYhW76qqN9FfdPdSZUc2kJRfIr4KIoFCD0APTLodVu8FusHD+HQ5eE+gPoWxUnwGuAPbjKoX/fNtfVrd/1VV4fzwM2i6gkTLFVWE7gdQIYEHTsQS5s+H8ztFHo2Bb+L4C6RkvuuQ1OJDTzdftt+w/rd+egffrXD0ppDE51x2y2DX1y29MyNdu7smqFD+mnRKEllsqpfWoap1uchedyWYdS3R4RAb4HGh0juPmTehYFbY8TJ54nm+6RatzzZ1rXGbmq5f8zAYf+cd/nla7/qU+KXvQe+7OfnzZPar+des0eLbX+vOZv/tllR0y9UURmWTNcT2Swtq6omuVxOdXRQt8wPxBxsQYWbAToAxMbQiUF0big/G2HnpOVl2p3W9Q+dOGnvq//6g1M/+rL16umfh3531t9uHPTk4iU/YjUVZ4qySJVT7PPFCUONf8AouP8CqxwBuQ+WEkpJXDcIz2bt/MbmeYOs0OX9Jxzy5uwdlFfmzBtuL3/x3Q/+lqXW0TwWKychg7gw7QgOD1PKIgNbiGFOlGC6EVJFd4XKwbgG7wfPOkH2aOn5NBqyCLHz6uaXnpQaIa7d2fJBtSZnXnLiCfecfcLkL/1w8bNZs8oeefHdn2zMe6fHa+oH+56gtucTHg7LnO0Q7nNimBrML4Gg+/jDWfdDVfCQBlMvXMfHxz8YewVlVK2gQpcF8bJZLBTHcRipNj2cEUg9uGl8VwLDD6h8fHylgY5QtALL6KbxNniQBXEAsz8Mieph8mPjfDDvwDgMFmNVv+K8sOU4rs4bxHTeFEtx0+1R3LC3SZSop62i0Cg+q6q/4B4NGrQoiom6PgYebPCq6SYTvksNsAvYtoxQahe6OltMRv514pTJN9582rQN23tPbpcIuee11+JX/vOJMxJa+OJIn+qhMmTxjO0GOwuoVtSmwdMlWEOCJ3qItxD8AD54kIaJ3OeuMlUquQYnEBAoShCDeiTXsmFtX+ZcO9hltz92a0Puy140rNP+5k93n9Tis1+J8soROSE57FLQNIPYm1KyB2fdFM0y+KNoh/h4iTDYdndWJb2Vgi1aLr7E68fK20JEqIeMbpEQ3Dxbi4wv/P7WN8FWYkVd2PbUXz0uBE8gwSC2pUVG/RE8MgBX6PDdfGFQ0H2XaLmuJtLePHOvSPQvc2/+ZduXbdtP+/xF99wU//fzr5xYqK26iJTF94lU1WjZgk1AE6v+6HnEMHSVubZbGG2d5bbbN+RT67SVJQSGDhhRAgEC5idCQKMJxyFxpkkrX+gSTZ2P7REr+/v3pxyxqCcvw0y6pKHPio7csWlunVPVf8C+BUlDhBkEJgJqmsE1Sp9I31PJ/JgIJiU1gQEXeKCAe8ERyvlXTbB+QYbdTE50bvjXSRP3ufLW889ctaPauyed55bXX6+6efY957QK7+JQv9q+jgazYFF8Ays1RgRLeZ4nCON6kENI00gunyGaT0hICtK+cs3qsdW1N+1TU3X/bT/eMQL9e1fdW7Goce3fSHnNiZ4VNvLFCK4UpIPK7sxBRm66qbudaKFlYZzY9FgGn4fDJ8TQOZF2XkX/9WyPxCzDzzVvXBG10zdcdvLB95x//PFfesy+6J574o++/uHlnVL/fqxPv0pJOKXgM8MYWK7VEjrkXPKI2y1CtjlOft74B2PBZ41/EDr5097/tPH7s8brrcdfJdw/Y/6AMfMz67e9HR8sIcooXzxRcT6DfqBM1kKopIschLJdIHGNy3R7W9L03VnfOnD/P95yxtGrt7cK2yVCZj6zqOyq+/71/U4z9F9mRcUgVzd4DtbZTYtwSPwFA1ZRgIEICWYo6BZg9FOWe+IRCBAFDe2rmUyZudTWAkaYkCRiMGK3rFuntzddO7Gs4p9fRYQ89W5z5JLbb5++ziG/klXVwxwNLDUGcWxXrccGN9fmyXRLqFub5LcMTBU8yWyfCNny/Jsm6O1t1S/5/e0RIZvQFe+8YKV18wIR2D/gbzCLwK/qcQMGNF8SzbcJTSZaKvz8bdUReeObf2rYIU54N82ZY9755MP7N+n0IicWPkqvriizPRhfNeI5njLjQg19EdjBiu4rn/AN6Q6z/kVESPDsonLrqh8QIUH/EIS4LimnzBVtHW9FMvafj5982BM3zJjRY3PDXL9gQeiv9z4zeV3BvrCs36DJLuPVYNNgDPwBKMk5LpE6V/crLM6BWU6T4O0TCHcITQ4WETi4ZOT/sfcdcFJV9/f31el9ZgtLNzZMYuyxRYlGExN7JCKKnSaIBUWKsii9CxLEihUEu4KxRIwxGg0WRKnSlrKN3Z3d6a/+/9/vfW92dlnY2RkWcH/MJ2ZZmPbeu+/ec8/3nPNVJJWIvECsRNK1+uqYUrHttevPO2P8Y7f3z3sCa+NQPyhPf3HTJvcj8+f0i9uF+0nA2y3FwW7bED8bWSFwjmB8cLwVJ3pomgjN7WAswh3DyQrhYvGksr3ivfOPPv7hpfeN/v5AaKauKH3Wu7qmfGHK7r8yxvECBPOBjVzXqEMMblIsR8PCCMJt6HtjgEp6Z9PjwJobPmCeVgmvqfgTrrVL4FSpZvdGtxKbNezCv7x0T5+z2pwAPGDhUs8/1q19JG713kgcHnc8KRHR7iLheJxYLQ4cV3DvqrpEad02PJrPs/ub/5AM2gdIoMM9ryUUv3Wu82/mutWGw2/yVFOaZB6HydDpWIinIETggAWRiUVViIfjSXj3zoiVkGXXXXj25Nl9ev+U62ebr8vrDD67cqV37HPLb4rZvcMsAX+3JMtwusVKoHEksh20zoifhbsjvGicYWmkUgIdhFhEIRrXSIvDFpJROaw+WhiVRHdu2R5Mhif8yiO98N68eYZiNPtDX/pjlXPcwievrWYsoyWvrweAEPweBpfVfDAhMjSslq3qAkw6q2k5ZJ/MRUtMRPZH0n7PbP69svm9ET7DtUWEYZCDYEmlBS1s8AboWqVCEgCn0E0UGBQroxO5tmaPmKh7toeHnfW/6aUV+R4hhJL1f3Rq5082rr1N9rr78aFgtxQhHBS4kYsBJASTq64Thai4m4IqaE4Po5kdHA+UIOEcwM4WgQjLUeslxxIRKOO6cLUtmnyllz+44IxR49aXMs064eX0BQ78i5Yu1bmHPn2o1/a4MlByOK9yhQpDms7yAtiYCYddhTWGIUldJbKuYJ49lldNJgT3DzSWHJcow3kE2Sg2ViFCvC4u7dqytN9ZZ4x/fPDN2w78ERz6d3xn1Sr7Q0sXX12lp0YzAc8xslVENQXEtZuSb4hvZzhg5UG4jMoyOulzRhkLSoaKpqe2V6zvaXXNOfPYXy49ELkh10xZ6PlyR9X8hCPQR7M7UDQLZUOGMUBkWl6As7bBblIgQv/GKFBnghBkr1PIXIPbzKKrilpbvdGrxGfd+JfLFpdeempOTMibX20aFxYct/LeoBsa78gobuMIKPFExoJ6BlxXDsCtlM181xLDkc9oa9LU8pCvH8b4Q4EILSXj9QbWX1OJSFgiyBLxCSKJV1VGLKq67Ned/ZPfHnXbYQBCFr17c9TpGyb6/V2ToPgzQAhaFgEl4mJuDGAjnIeiZ5yiqPoGyjEs1EWBFoKsBjh6jvCEIRZdIdFdW8oCyfD4Ez3yS7mAkLfWr3eNmvda30reMkr2eboDCOF0qllBBGi2Z89AtSa43j8Iyeig2hYOLmPEo7Qi1zvgALzOFHjst+azv8+BXVQLk4Axl1GFlJEYiiUZI4sDaE4LLGa1tTXWRPiZox3io1/MHrsrn5saXjv9/ecdL77/Ze86CztUdzvPUW02u4xSL6rMgqhsnWEJTL6aDiCEnv6cHwzttsuwsDgb9X1gfTiWMIpG/CCAralJyFV7/uPXmfnXXXDJB6U50NM5f782vvDKSY8FPisr71etM0OLj+nVLZpMilAaFRRgO+hu2fSzKVDIZqAcwxDOACGQiQEqPxgTsLAC2AeQgkFtjKyL8bpEsmzz0j7n/Hb8og4KQiA5dfpLz/15Q33tKDbkPVG1WQRgxkwQgkSvrhCWhbxeyjzAucIavyFYhX+xyYwu1sei1nD8zZNDnWa8PHr0mnw1ROAW+3R97byEM9BXczgFxaD7AaBnKuDM+9eIek2PItx9oy4EdekGKIGwPoWq2gFs6poi1+xZF5DjMwddffar9118cZt1fLc8/Zbrn99980Atbx/I+4NYjoHvigyjzhAL+FFUOF8KFXLkOP/mO//lOn8j34VUjiEjzfH75/r5GbrZ9LU153FI84XrjNMiuLcYHV09TCJOvJxIEtWVESaWXNrDxU7+fN6DeZdU82JCZq9c6Z22aMXNEYdnqDUY7BZnWY5YbAQGCwt6HaC60xM8rYFSAS/tw2H+Bz4SlVNMYQHRjFIN2CwsukYiuzaX+WJ1404KqItzBiHzl11XzdgeUHzu7ilIwiQm8m8sGWVSayZN1docDqCJQsamTID5O0qeMxiC5s+jOwtTAnvwf8Ludn/fb1/HZf69BsVZ47EvehDPq1F7hMAuWLThPwvLkGRNuMaSDC86VmRn/eex0rzcEiv1lfzcWV/0/HZH2a2K39VXtlo7EZFHAT+U9qgrgbIUMrAzOu5D8wMhBmWJhi6Ww8U2rX+RZWLXGF2pDW/2M+yCbl730vdGluYt5GptTOb677QMs/y03Qo7gi/qdEGcELvVYkfWCkCIqelBLQMDei6DtgcBKtjf0pVUnWgs8EwwRVLQhyCESLoYq4slt29ceu3Zpz/89NDbtuf6XQ/n1y1ctUp4Zuni8yvkxP1qwHO2ZrfaQMsAIMTUqAJ3iOMRQQgtYZkgBI4Nwu9E0IYkZEWrqFnVzeJ99PJzz1qer60ZQci6qrlxZ/BazeawIGOHm0PwgTST4SMgytghp086LT3CdVXwOHTw1CBzTZkQTVHr9qz1y9EZ9/35t6/logkBEPLxd9+MqOGsg0VfKEgYNBFg8BuUjkRdQLaa+htynzdx/t7P/Nzq/IdorW2fT88pnffz/fzW1pfWvn/m/gstlLiUNYIQIAQQEMO8HY8RDycQrSEckSORVwJ6cvKaZ6bkLS7PH4Q8t/ymiN0/TAwGuyVZltOsNur1VCkAwePCHVNTEII3GnYnhQUJyjGgCTHskqDUBiZEh0q0SqJlP233perHneTXl+QMQua+ct0ezvqA7Pd1lxCE0EmTll1oKch84J+Ncsz+a36GwHY/M2Jr5ZwDUdfLZ0I21dG5vAeK62CFwlLbvsEUNcPRcgwIlvF6Q1M4liGJPbU1YrL+2eMt3Ox8QcjslW9457/10aWVanKAq6TTKcRus6qqCkactMsJQAhMZLAowN/DxJkPE0JZHqDRqegW3DaQgwZdd7mURPyED9du2f7+8cHQ9Icenry6N8MouZzr9n4N5Ec89r8NPb+trL9V9QauFYMFXYjFxqJzQ9PxPsW9r6nxMkAIgAwoufC46aAic5DwY0kGb36UrSIIsTGqzkXrosntm5b2633Gw08MvLGsvY/rULw/xLc/PnbsKTvkyH1Jl/2PmsPmVFmOSOBnN0yBJgvbWI4x+sqY1l2dAj8+JuliXK72ytrzv/D6H3t97Ni8gNstU592vb9t66MJR7CvZrNbgbHDfZKxKaOmfISTeG+bTHHjYmVuuqiWDr2jaJmTwdNINEUjFo1AOeYHvxKbcd+fr3xjYA7lmCHzlzpX/LDmnjrRfgfvC4YYhmOAeYP7Fj7YoovUXorfP8dyqiGoz2eMpEW8Wb5J8/Uk283uvt6+tfWlta+Vee5MDRvMZTBjIhsC1QJFI1Y478kEcUPiQywe0aLRJW41POX7p2bkrevKG4RMeea9m2JO/1Ax5O+e4FiOEW2oXob5B9A8lFRoHAiUXKh63hwyAEIEDaxpFISgKAYzOhhEu9Tip5Lojs3b3fGacSGlcPHaZaVtTlqEcszIR5f0reVto0wQguUioBMz3BsISozywb4ubvNBAxT8/h4HQrjU2kDK59/zHcQIMDJ2IvR8NO4MzHAToB1xx2SAEPgdQUhNTbWYql90vMjOyQeEwO5z2b9W/HLNzorBmst1Jed2+hWaxG5EoxijzlDDw/ek4CSvW4AuvMAI8FDfp83JBIYQC7geYgmJ1ES+88jqYyf6i956qbT0sO2MevPcpaF/fv/NldUKd7Orc/eTY4QTBYeD2kfxelIBqvlAX7hBy8N9LhiONwQhrEoUBrJ/aBN7FOqqKrGyROeitQ3J7T+9cu3Zv33kqTuvP2xZoTzvKea8kSOPK5OiI1Sf66+ay+42QQiKeY1ECYzbUCkTAUyIuRmCfwfLM8yPIoR4RBJJSzz+oZ8I02684IL/3XnJJW3WxZnHc9nUp13fbN0yJ+4sACbEDiYXqtWjzLC5OTOvubFTazwdabYE9se0NxLEEBIdLAaQQKwRC9FktbpqtU+JzbjjgsvezkWYCiDk/R/W3rWHtwzjAwYIgfRZE4TA/lyF2DRazj9Uj9bm972MDc2ErPnPv/nNXzTNij7MEhxtrgjzGu34rUhJBCEMuPwYVpfD4QYtHl3sVZJT1y+akreuK68jgHLMlGffvTHi8A+zhkLdkyADsQATwiETArtBMHKB8M8EITA50amM6ikEjWozdBZqe3BCKF1PdB4HNaelSGzn1m2eRN24oFywJGcQMmtJ32qLc5Tmd3dPYYw2BTlAZwH9hH0dWlA6p0HKPkZ50x3C3rQc3Vm0ja47mM+nmWy5fz/Tlpt5etL1ZEPYhJOuUY4BISh2lIVyDGpC9tRYEvXPHu0U5uSjCSn9/B/+RUve6BNx2IcQp/N4YhF5wQrN4iSDUqbiOoh2gxsMAafBhuU+gdEcSQTWWFIHAA0iLkIEcF41xKtIVc3iX3ft+fflo8Ztyreen/v33P8rR7z/vuO11/95VkVEuqNzr5PPjeicryEhM4LNTkXEWDeloMJs6EctZUDJU0pZgCQnw1UBOhFTnEp3+sAQEWIDEBKri8S3bn65f+9zJjw+uE/eGqD2Oif5vu8VpaXd19RX3Z10227Q3Q6fzltIEtxYeC4zpl0sY4GYGeZAOpuAlo7VWIz5dwg2Eq3eo1okZZNTUeb3P+u8xaOvuqom1++HIGR72Zy4LdhXsztsIOWh9zB1vcDnph+4uNP/qBHQ/DfDVABBhjCJsxBFT0GICrtmoslyddV3Prlh+rALr3w3VxDy3pofhtcKjmF8IFBAWJ4BPQha3zWN2HSaPZNvOcYsi+T6s7X5PXN+zSzDmJ+X7/zb2ue3dly4vmWAOLytwaaN0gm6TmuKTKwcS3hZIU6W1RM1e+rlSMOSQpGZuv7x0kMPQqY99c5NUbd3GGhCEhzk21pptKdqtEDHeDZgQag7RkblvIG+oeSiWekkDhZdKMmgMBUGPk94oMu1FInv2l7mTYXHneQlOWtCRsxa2rfGYh+l+T3dJQ6cOwhx6ESKbM3+7VYt8R2on8WLduiEUbkKsszXHVBhUwszY5p2NkLBMjUhVoYhUk11rS0RXnSUU5iVKwiBqOwpzz1+cqWm3qF5/X/hvB4PpLzGYjFiFQVjcqdAmI5CKBPSSbexUJPLtN4UhGDsoqYQETJQEkmJC0e/6ibapnbm3R8sK207g5fLN2rra0pXruRfeOPD4yqjqcFWb9EVxOYpYi1uNiVBvDHs0jV0bCicwWyAtgbKLxAbyRIi4cZBI4IKvXNoyRXFggZDpkHBKwOE8NH6eGzrTy/97fzTH35+8I0dFoRMXbGi8zMf/2N4xC7cTDyOgCZYMJMIExjBFWMwsBglnQFCaAwxrOuwAWOJyIvYFkKNRMNSVcXLJxUWzHm/dErOjgQAIV9v2/Fo0hHsp9o9ogKhJMbmizoXM2c60xVDHVD0QfUg8DDLMejs1WQcD4qsEquuyUp1xWq/HJ2WKwgZ8fzzjmWf/XRXncV1Jx8IhHRWhCWFqBx1x1g1Wo6BNQPKf7nOg/nOf60JW9F4R5McW1wn8v38XI87/boM40iaDQEQYuT0q6pGeBYN+oSRksRnEfV4bU1EitS/UiSQyRsee/DQl2NMEGIJgSaE4RjRjpMOxPEDE4J53hh0Q8EHJAikd8rAmDDgk4edJBVBpcsxOmOAEJnEdm8v86XqHjrJk7smZMScV66rEWyjdJ+vW4rjMZkQRXOmNiTNgsDiREtCuFvej3MinQPRbObPZAJaWxSavH/GL03ySIySQdpxYiykaQcPKtabkVoY4bfvTzcCT/fz9ZprPFp+akvHau6YcVAbDiQAljgWDHcM7mYgc6i2OmyLhZ/vbmOmfzkvN9HmuaNGhXbG6/5WJacGObp2OVazWvmULBGbzUZUGSZHU5NEO5fmDEKaC9iM8D3KhCDUxvAu6JskxJK7+Jr6RScWd3rynZGlOw5HFgTSPQcue6fL4g8/7RdRmetDJT2OTqqcwPAOYrU4iQSNJViq71CwnArJmnBfQqkArNeEpBgJ72sLBkfi0mSAPXrPMwQ05ehhQAAAIABJREFUQJA3QIgD8qWjdfHYtp9e/tt5Z4zvyCBk3mefdZr+8qJhWsB9m+Z1BzVBoMGIwLpCpL85Dg0vJG7CzHIwnFs4qaDFYVjicbrInp1lcRJu+KSbaJl184V//izXkgyCkO075iadBX01m9MiY0enRiakOQjBOSTNiDRasXGHDF8RxoShCYHxoEkqETRdVmuqv/On6qcNu+iK5bkyIcu/X3tXjcV2p+gvChIEITSNGAO0cFwZa0YefL6ZMdLkLTBatTG/o3HmMzpeZEyF5uvMuNV07KrhdgEQQqOSWoq1pm9EdYHGvGSe7+Yi4X3O1LkfPGI3QxxB1wq4dwEsQYmL2nSxvxasl6DdjMVJwG4lUjgckevDS7vwyqQ1C0oPvTAVyjEpb2i47nF3Uy0iSxgRF3DezGnHAU5FapTKNe26FE3DooDLkwECTDEbwF7YWUHlsb5syw6vFH7oVG9u7hgIDyqd+XK/OkEcqfuC3VReNBZoligA7DM+v0k2ufH9Mq9/C2v9XsMjzY5kCPma44FGapsOItw5QsdViFA21PE4KSE1ZtzwxnijCZWUGjcHsVliML8MvA+VBJoZ6jpRzNIpw6GdFG8Qw6209xinIMSkC/cSUCGr0AL2QQdKI3gzQQi6RjAYDHYyFAzYYHGrrQxbo+GXjwq4J/5n2sg2u2OeXbnSOmP58rPKEw1DeK/rAktBwBtTVcKKPHVnQAsMI8M40ypO1f17H7UJ3Ggv3OYPWraCkgucb/hp5ucTHvpYaLhj4FNSjK9t+LiQsz46auKN/+7DnNBmHdM+55wD9A8AQO5Z9r7v+Q8/vUxyeW4R7I6TdF50YJIFIxBoWQZ6EOjwSl1tdLCZ5wVkAOYiBH8POSFoxUWXh2HbZrS0FR7KnqKu6Hy8Phrd/tMrfz3j9NLn7+m4TMj8lSuLZrz20tCUxz2A9blDEssTFQR/sLhBWYYHhkil4mgsg5gX1pgXITMbmOOURFw2K+GJqtaV7dhczFkW3HBR7xdGX5hbSQZAyKrtZXOTdv/fdKfLpnA0IRWTrNG6Y8wLhuuFXvQMkarOG5oWCrpRKwRkDoB9I2KBVxQ5VbX7a78am35zvz+tKO3dO9nWYXvL00+73v/fprvCFs8wMVAc1HQR9JEY5gbWeh1YcwRtPAVsOTxoMBdGvlP2KT2fQttNKmA35wPqrjM2dvhvdA4Dxoq+lgpkochPNSrNtHHNtHKUgaflLFO+TctedN42Qz2blsAa2fq0Dg/Byt7H35q2scnpMo4rcz1JgxD4RrpCrHCRk3Hihk1kQ0OUicVfDXCpiT/+vTRnVi69VuVw7dIvMTUhKW/hcM3r7KZawHQJGg8AIYZlD5xfxkCGEwMqe/qg9WRTIcLpcPEAWeOySsPKdPCfE1K3a/OOgFo/7lSn8nIu7hgAIQ/PeuGGPYLtft0b7KoZIAQFYTjBGhqBjPhaRIm4izfV4o1nKs1IYDmtKbzIvB8y8zOoPTTjPWAnhO3f6WIIkzzuHGFhw16WtAaLtk9E5SzeFHBuTFeRyUJiCSujhmcCPRzMsAjDJAcJoVCzB1gHwBAFovQGbFJqaobATXBo7nIzxwv9znsDkcznmMJPACHwMEEIZUJUotZWhi3x+iW9nPYJH7cxJwQW0t+OHFmyumJ3f2cocJOrMNg9weuCzBLMAYEYbLQGGyDEjNZHAalxLczrlU4ONC6nudim4/kzQIlZ0oHxIfAMkVWFyGBh5QTi5GyqVhfdJtY0LDzzF8e8tHjo0PLDkQV5duVW68OLHj+9yu68TXN7/mix2gI6NDuEXSAPVw2ACIhRjfFvghBjE0HZTeNKm20YMMWbZocgECUa4TUBAwsBhPC6pHPxcDS6c+OSv55+5vgOD0LeWDwk5XIOZL3eAigBq1CGgXsG7juIcjdEgXAuYdNmzot4Dg3NnBUSTRNx5GyVhoY91vrEi0f5/PNXjpu8OZdx1QhCfNfqTqdV4UD6nwFCdBqyh53O0oh8bxACyyX9/uAG0zAdG1tH6TzhFUVKVe38JqQmp/fvd1HOIOSDrzfcUyd477AGOgVVTWTArMBDyUeXiSrIuK5A3lOzGazJktaa8NOco2GdMVpfpTd96Uui0SRvgA0ItKEhq3G5aNms8SPTm+lmuKClDQ8CUoQccP5p6QtMz2DkgLuHzp0UGJo9fegnGd27YU1BMVrTB4LBVhZ289Kacxk9BroBhk9XjTwgZJ8grAwYvGSCeAC01tdHmWj09QKiTlz9ZOnGfDAEQoN83gBByDPLb0r5Cu5sTxASLt+8wy+FS0/o7n35k9LSNqPqpZs3e0bNeLH/HtF6n+4NdlEFkwmhaLZJPoihXE8vShnixZYAd0sWK9NvDec2032TCVfo31NtCga2YWa/gYLREmnGpjQFIZThoGAuDULSlF6meMy4srDrgoFkhCJh2gNOhgAWAfDAoDeRe8ZoyLxroAVuE6zVeNe1JEzNHFOmBbglEGIBF0Vdddgaa1jSw2mb0FZNCMSzz3333fMiFvFeq891BuO0evZE64nN50FgwFtEDE/aFwjJLBuZ37mRCTH/JuNYjbvFvKZw/jQpRUAAC2FlcC21aLJBrqz74Jf+0PzR1/b74pKjj87ZyZDPvbm/10Kq7K0LXu/++n8+u14JFPQjTld3QbSKOPoMuzELjGY6XDBjkj1AIOSys08rXTLs1jYzX+11Tg70+05bubJowasv35HyugYQn7dABisp2MINEAI7euqIoSZmE4RgF2asxNAdttNuJfGGegR0gixFxUji40KNm3PvjQP/0+eEtjNsJghJOHzXEkc7gxA5MWPoHy9bkUs5BpiQj77ZMiLMOYdY/CUBXbcwmFkBmzIiEQUazXPGvJR16aLpVTY3UOiUROkA5UrNsg9WyrBPGP0c/A+zSoDZN+T8qJHaG4TsazztzaSb+iADhOD9RedjBBPQw8VYeLCtMc5B1BVE8UjTTXBzc8X+SvIGnMG3gePHVcLofWb2vkIdjipj8jObTBE3nP/6cJSNJd4oYuKTvn5i8vp8750DAkKSUI7xubq2FxOCIESpH39CV89LuYCQN77d6r37qUX9a3n7CN0X7KLwxgSLNBxc2sackDT9Zu6IM5iQlkBIWmPQrHGdSf03HxRN13YaT492KLMRnsFe8KCON5rCIW0HyBTpwUYmxBiFRv3S9O9n8hqGyBe7Y8JRGqUvjoemzYTRZcICSCFgw2wuvW36+17R5i3Y4lpyFwFThPkZLTAhFsiTCO+pEyL1i48JeNpcjjn//vs7r28I38oH/bdwTlsnVeT4SCpBHD4PiSXiNDQMYtkz8gBMUXTLNd9G+rXxxjDLh423Gu4eUJavEivPYdlCAkuupitcTNpojyae+MsZp7wy/5qbKnPZreZ7U7cCQJiBT7wbePOTj/6o+wtuUZ3u01SLxcFxAgNMGfS8BjCCaZ7YP6SpUNHUCDQyRBT4YkPKLJmQhrKNS644t2ODkPlfrSyasujFobLfM4D1ekMtgRAov5pUPIAQLE3DXGBsUOB3j8NOkokYlhXZZFIh9ZGNnRnrvL5n/G7J3VdeGW7rWDFBSMzuuZa43FaNbRcmRE5V7fomJMen5w5C3nJ9vOqrEbW8fYgt0CVgMiEI3nSFKJxs6FHonWqOx+Y/99f7BTdm2LYBFuHG5pqohTAYfCyXAeOJEwZdFOCPCoYTQhmSlnvNR6uW3YwVl36ukSgMIyHTjZRedwwRsAFOaamftmnH7wKb6CzaTrS00GfCF2B6Go8DmB7KrgNLhkGDkACdTBIPyxI5XB9lY7HXitnUlMMahAga7YkAbFE+5RiwqdWXbykLKpFHenq1l76YPbvNzZAoCHmmfy3vRBAiC9CICwYfBSBQ/jAHTzrEzBhVLdF5hoTIeAZdpEway/zZOCqbBqE1mTSQogailQKM9KDQVVTGp+t6eFNQDYapnm8sa5mx6ZS2ozyJUWICah0mNPDS478ZRQYWeqgAlScRDtiQlkCIsag0LccYKJxCcOMm2DeOxddmgBAEBYYmBChpO7graspr+Ibwi708rqn/njOmPNtJFViQJz54+8ydijpGDATOEp12uwqlEWQuGZKUJWKBHkEZpRj81obgrHkZJj2JNBfvNPtCWDozFgkodemyRASep9qJeCqs1ta/293pnH/vldd9k8tONdvjz/V5Nz37rHXlpxvOauDEAarT09vi9gRVDuLVoFxnJHgaQkWMoEuDEGOcG8I5OtkbIzIHEPLXM08a9+LdA7O+3rke76F63cJVnxZPeHrRUDngvZ3xeUOwiQAmBKWAINLGzrpNQQgFcfD3MMbofeWwiAhCBIGj6dFlu6uCOrfoFH/nv780ZkxZW0EugJCvynY8mrC5+7Y3CAmqiRnDLro0J2EqMiFfbRkRFhyDrcHioApMiM7h/CFrMhoZmpS7czTImJsvACF0VqPdr8HphkwpLWBjZ2NgTNA4wdC8EuwUjfKCRra0LblDcA8BCDFUk1Q7aTIdBghJVzzTAB+meTqfm5/bfPvY0pjfFyPSRFpgMCE4Do0GnLgx0WTMCWGlFHGyDFHqwhESj71WwjBTv36i9DBgQp5+98akr+CuTCYELp2pCVFB/IOrNC0ftFUTAiAkUrG1zK9EJvT0qC/mCkJGPP30DTWsYwTxBbuaIASFRRkhTKawCr7uvpLsMuvgFH20JGBsHAaZYTDNBwcmTWIjKBYXT1MfAwOP0oN0CCLybgGEmPXJxpyPvUEI3mQgpEIBMC0BmbVeKqw0SkDNmRADhOydk2Ier7ko7X0LNClvGdbndJx5BgixsDqRqndXi5G6Z3p6PLO/fDT7duVnjhlTUharvoUPFtyqWsSuKs8w4D7grRaSlFJ4M1sFI1UxY6eUCURaus6t0ZdUkEq1MLDLEowGT3Cn6tH4uqAuLOh90vHL5l91Y85ZDu21cEIZ5tfDxh9TFkvepjj9VwtuX2dG4KABqtHnBXZYVDOE7Bykv3KNCZo43I0JF4A7vRdovboNTEikYceGJX/97cmlHRmElH7wQadnli+7M+V23cp6vcEWQUg6o6GxHGMyIWmdGuy0waEgchidHa+ojhUw4gclMj/5t5Mnf93WRojXzJ/v/PePVY8m7J7riNNr1ZoLUw+MJkROVe38NqgkZgy7+LKcckIoCNk4op53DLKESkKqbmVUYG8x/t5I2Mal2Ei+zhmE0LsNu7ojEAddIjjCKMiGcQ6BmyIIhXVwiwB7whAJFmUMTpPT9wS9G7IvLiAIMe3OVOlB/98otdBImcZdEY2ygH0dzTpqXkRvbe7C+zdjk4UbKmPeR4IFSv3GJoOyRHTtgXKMjeMII6WIgyFEqquLMMnEqwWcMvX7BRM25DtfZX/GWvgk1IRQEILCVM1qRWFqe4CQoB6Z0N2ZGwgBTcjYGU9fH+Yc9+m+QDeJE7GRGW2wRU+B+dPUMDRerJZx5l4b5n2AEWojg/ru3mAFBEhoNdMZFFIqmFsB3wUEq1RMStNmqRiKuk6oeAhyGWDA0lAoYzFAxNIocMOEFgAzsAsDsRsyP6DGpxHqFCBRlXbjo/H1+HfNao6ZqB9v3n0EfjW/Gc1yTBOLLmhCasrLLZG6vx8bdDz+yczSPdkM6AELFwpf7fzp9O+2bxlfePxxZ6mCYEOgBj0OHHaSUmQUysFnQgt5sxxjAkiTDTFByP5u3uauI7gIaRAC10LViUsQdDUaC7ORyHtHOXzzhhzT6399+vRpjCLM5qAOwnOunL6g4MPVm66U7d7BtsLOxykMb4FJjtri6b1AG/E1Cnf3YkKOgJCsrtQNC+d0/WzduuFxl/NGxucJyABeIXXSYELQ5YECVGAiaSYI3m4Zkz/+LkvEahWJokiEUxXCxlOaTyFrvFFlzMQ/X/5+796929QGAEDIpz9UzknZ/dfpLret3UBI9a7vglJyxrA//uWdXDQhw+a+6H5z7fcjIoJ9gCVYXKAw0E+dR1eRDL3GoOEpzIPAJCAIbrTUmlqvVn+iJcl0bZrnn3YVhnnVuBqYKAUWdJjCgY2BWDYZFLJwv4DrL4MJSa8nzRaIfW1q6WAy3I8o6jaZc+N7QRkONXn0/jTvTQBLhlQ2XUpvAjDMHJpmo7X594Drj/O4oQkxn25+fZwrFQnLzqwkEwfD6PG6mno2EX+10K5M+27uhE1Z3RD7edLPB4RoDRO7u7QXcmFCVmza5B45/Zm+Yc46gvEGesqcwMLJB0QJCz7uag0w0hyENO7qTfqr8WfTxkmZZ5mqm7EVNjIBLSuAkYnRGAQfKaD4sKMlMBUUhNAuxBR8tARCsGZnhMAhkGoGQuBXSDCk7hjYKshg9SMC0IiQXGu4ZcwSTvpbZgi9EGRk5mMYU+VeGpJmjaBgYgDGhZqhNKKqFPSA1gAsivC7jdEUUl+1lY/UPdYz4H7+kzmlWdW4r5o9sXjl5s13siF/f8ZpLxYdTkaWZWRAMP2WZTFfAeu5xs6kuTMmsxyTMwjR6OQgKqqU2F2xushqffwvZ5/+9sxLr8sKTOV787bl9QDcln+5+Zxdkj7KUtDldHugyK3qhKGaIAMgg3bHbGWQmeqZvuZ7MyHUxdFGJqRs4+K/nnnS+I7MhPQee/+xmxvCIxIe5zWcz+tpCYRQMNsIQkwBOYoejXTaVCJOXE4nSaTi6FCwyCrRqsNlQYWdOOaWgS/3OeGEaFvGAYKQNZWzUg7/9YzLvbdF90AxIdW7vgso8Zl3XpRbbPutTz3lX/nVD8OiouNmS7BTV4URGAXE31iOARBCF2ko+9NNBrXItu2nYTE2G8kBGMBrQiMl8P0wkwSCN5GfJrLOEpmwROItOLFD8nPmxqytIMQEFdQpY8SJGBIBlAnIKXRGQSsIHoWqhhMSS8vAQgp045ox/wKwbalxXSN30sihQANDXDtQdEurFdR9Y4AyDeZuEKZSEGJniZYI11bqidSbXezKzM/nTTj0XXQhJyTpaZkJ2Z8mBK2A4D83mtZBgiV6s3FnpmLuAJx4MIdDOSaoNUw8tbPrxXdKS+Ntuengue+vrnDcN23inyolfQBxeo9VedEqa7LAiwInG+UCo7YKTByu5QZuQJYK/wO1Om5k4H9NQQZKqBslHVTep4HbUdEVWYfrDDJTsDppqqoquq7LmkZ9Gw53gGtISZ1CXbvYUgxHFMzS4LEbJe3w2tji26yB0nKNQR8aO6pGVwddUMDyDDeEIstE5FiSjEUVnlUa9Hg0EQvv0R0ip0qSDMVplg5xSOuF/RmjMwzLGDcTw2GWtCGfS/cZQGjVmPqIL0b1q9Em2egOiYJfjmE5hhV4kYMyKmRBapqi6DojM2oyxkbq15Y47Us6+9wfvT1tZKS1a1taWsovTyTO2qbHJzMFvjNUQeDSVrqMF6fdTc2YHLxQhi4Ez5ORlpveAewFy2nzNavViuFdmqqj/gODvHSduO12XareU8vVhpceZfM9doHFsr60tHT/NbrWDrId/v3XQx/psb62bggJFl9r9Rd2YgQHC8cAVz+TC9tLfG2cyDRQSzN+hiaoGQihk2qjRZdVKAw0LbpsrK4hsmPDkmtPPbN00f03V7TDoR7ytwTr+IVj7vvVT8noSMXnvUyy25y6AIsFLFpGvoVxQim7SV0YuIcwmRCjlQSE38GNAysuxGeLikr4SGKPL8U++stQ8eOLR4xoE+AFEPKv7ytmAgjhPF67DIL3DIsuhMthCRZ1cqY6P2OhhWYzpubMaHIHGxqwwvOwsYPkXFmWpepdqws0ZeYdf/jTW7kwIYMWLCj46POvb9kZTV7Fuf1dBZvbqnMi7TVMGQEdrKOCxsF0zEAjDo0BuT3+hLaK+DuGGDO6zqKwEzYNmT9R8WCwIaipwyuh6rquMMBNazrEDcXCDarH6VHhXeMpneVdXpvo9TsZ0cYj62rMGZmsevONzT7L+wB2UDsJeRxULwQKLQ4i6VOJuBKLVKTCNTELAy3qMe2OYxiGZ+jEympEZHHCxnVLZxmYbXEfBu+Cm2Aznxz9kWn1os5gxxLNWMzg+4L6A6NTiK7TaVNnNU1nRFHUlVSKYZWUbGe5RKyutiroca346+/OfGHa7Vfn3f8pfyZk0fL+SVdouOZzdm9ejjlcQMiqVauEh194r+e3P207idicJbooOFVdsrCiRdSgyyrkIugErZQoHdNRM43rMccY7VHp4E8XPppM1ngb4K2raaqi6QyjMpoOSERWVS3FcazCMayma5qsE1bSdTWla4qUYvhUUnD64oS7vuTYY36XIiwfTQHNSDuSQlwuKLMxOrsZ4wEgBCYsCFszd03o8sGJgVrKUIPDsERKRuVkXd1Gt8h8wMmxdXK0TrcSSRMFmyoriq7qoJJjAUawugYyaERaplKr2aSeUWXQdUYF5Aivw7ubsHAXUDuMDlMAQ3QFcB20U3GwLNxxJKUzJMGxJMbrathtEat6eL0b3pk1BvI0Wl28Bz23oOSD79YOqxL0G909uhSBADUThGS6m/DGonehMcEbPzNGffOy0d5+/sZyHLwXz9Hci2QySQTcHUiSvKfm606En3vTuRfk3Wq9PVbQi++e5f+yaucVDRbbA95uR/dQOCsPfelQ76HBvi6j7tx8RmgPELJ94+JrT//t+I4KQpbqS7l5Y1edsi0VfUDzeS6SrFYHgBCwfgJ9j5g9SxAC4mfIr1BhoVc0IsIYjCZijpj6Uk+Xf9Z7Y8dCT6JW7xtzXGWAkH6cx+s4ECDEzAk5kCCkdP5S5wdf/+tXO6LRs3WLI0A4CyfhggItqimzq8NEjca+fSxjwPQ1+7cmXi8M5MCJCiZZuuNTeQ2WXoVVAMEojKaBsUnmNE5NqTqT1HiBdfpDnDtwVozoJ4tulx1EnOajLUwITZulbh/s12KU6mDzyclJSY1H17Lx6IuCIq2RGsKSg+M4iwDkDMNrsmpheFHQdYZXGI7XGVXQNV1gdEbUWYZnoQ09gBGGZQCltDiv4G4YwBqgGBWOV2d1neJkVmd0nWFsoo1IqYSWSiY4C0NkpyiGE/UN9V07BTdffPGlm0r79G4TE9fS98gLhCz8cJXnoReX3Hi4gxDEdP//jI4fP577ssbPOXsobLLBwaSiDYzHGWMICeG5ScWje50Plx3CxZs+JGt8r78Tk3acySO2hG5JOHVrNK6HnTFdqfGrzkCt7isu1jeWl+NzjikuxteXlxPhh+rq0I5Yop+npMu9KZbzy4xABNFC6TUNqqCwszRAiFEWQfoRmRAAIbROiDVDTNqjZRYMUTNCZkgyEY/W7nnPqyuPd3bz3xV080e6WCya+X0yjy60v+SffayQ0Rp/k/NRGKhN/x5zu/HPUR6STwhx1tJzUefzaSesXau3hTWAPicrVrx95rZUYoIW8p8l2USetdAupHtZq411tSV3U+Zh7M9Cjc+DzBaeR+YDyjyCYCFSkkZ/OEVBT9bUVYqx+OKjLLYFn06Ynnd99ECDkGFz51re/nb32VGb64GoaDvTESxyJsFOjGUx2hfCPHktnav0bjg9yzZd70wq2BSmZsGE1Ee2b1zSkUEIbHrue3vp77Ykog8oXs85ktVqBRCC66UR1ohaHJN+z2BCUJhqlIdxI2EwJwhCNB0Fgmwkrojh5Gc9HLZH5o274bMT2pDIiyDkh4rpks1/A+f2OjBELU8mxAQhSHVC93NZluU95asLdXnW4Av++GYuTAgMt9KF79g3lG+ws0SUzHm1PhrXC42xmHTajXmmOovbhs7x+3vAnG3+e9jp1q3uGP5uzl2FtS4m5q5j1mxOdimPpwZINsf19sKiQjiH6dtjL7Hgfj4RE1ZBt6fQBGt4qg7sjkb0RCys1Ne9Z5Mjj595TK9vd21Wkpd2Kld/7NULj7l67Vr8CWtJXXk5nWNr/EwiUMuE6umceyAeSU8DY613Nzkqn6eB6XTeeVJpG/VI+/o+eX1ZBCEvvNI/6QmCMLXH4cqEHIiL0V7vcX7pbO+X26puIS73CGJzFhO7i1isDhiL2AGWLhIwSI2eO+n26Shbpa2taTWxGQiBuqAKoWc6ScbqEzUVyzo7bHOuD5DDslyQzfkd9swzobe//u/tksc12N6lpKQiUs8INiBZ6MKYSXmaoORAgRDQnIAVF0ozUEiz2RxE1FVpz4af/tvJYp89/C9Xf3RH7/x3Bdmch2yfs1TXuYXj5x37z2/XD7N36XG5q7hLcV08Ttw+H0nGE3gsAt80cbH5+ToCQrI9243PW7rjc9ujC1/70045eb/i9ZwsWa2CBmPHaFuBrRQMxtJsHmeWY5qDEGDgUSti5LrbIQU4kiRsXezHEkF8+J4/Xf5On7POyjq2IBOEsC6PQ+abxrbnUo7ZBwj5vlCXZ+YDQtp+5g/OK66Z9Ezora++udlW0uUOPlTQReJpORse2ThUMr8lZ4TXZb6eB/dPNLxHrq16q1gg8yY8PuWHPozRXOjgHOJB/ZQjIOSgnu69P+zS0oXBDzdvGCgGC4ZZvKFCWbAQGYKLVEgHNASlGSDEFAJCOQZ9MiA4MdMFYNdkBN7gLopoxGNz6Ik91fV1O7Ys6eKwzt7yxKRNjcXeQ3zwbfh4WFDfeGrBCZ9v2ThOdbov0d1Oa1yRCFTL0sFwLexC9k4oNCYL47P3tXFJW5PRRQSsko65I8CIwI7PZnWQeFVVpVAbXnT+r05c8PJtQ7e34XDa/anA/F336FMF//jfur8Sb/HNnpIev95RUyPYXG5ic1hJTbia+Hw+IiXlpt8lraExLNj7YHLNF9HeG43C1CNMCGjQVjvGL3n2qt26MlLyeo5LWS0ctF+A+5UmHjeCENMiaZYFTVEqhvxRhQLN1jF6lVg4gTDROCE1ka2FDDvtNG/h4iceeKA+2wGFIGR15TTFEbiBcXmckgBi5MbY9raCEHSQgMhdUfG+yGBCOiwIeezLdYGpf38ZOtJkAAAgAElEQVThpjpBvNPSqWuXFAcSjcaldH+BZc2CqEkahBhmAGDILJDE3FBbK1XvfqubR5g3Zu7k74+AkH2M8IPIhGwPag2TchWmZnuDHornXTnpscDyNevucBSWDLWHikNJRiRxGdRUhAgCFgCJhnY0Gs4DclV0nmBiJwUhpvVWJ7CgGMJUc6JLyTqfiEciu7Yv6exgpm9+enbeDYcOxXkauXSpZ+l/V14aEYURYjD4y6iscBanHfsaNFGnZyiE4Xu2BEKwnGWgD1w0mx1QJhsA4nFFkpE2heuhQXogNqtT1PC2bf873u6bOOyiSz+6OYcmXe15Hkc8/77jhY/+cWaNIg4Kdj/u/IhM/HaPlxHsIqmqqSBOt40kk3EicNYmabmZqYnZfL8jIGTvs/TW+vWuCU/Nv7aC0+5XA76eKVFkoQU9WDypkos25zR7xMA77A+EQDkQQAhazlmekHiKaHvC5QU6+3hXxvLMiqlTd2UbWmZoQqbKtkB/1u1tNxCi1FR+X6ClOiQTAiDk4TlP3JJyee/ki0s6p1hgYxsdltmCEHgNWGNpPhQt6YATRoR5vKE2LFXvejPEJB+d+Oz8NUdAyKEHIXm5Y7KZTA/Vc/48+e++f61ZO5zxB4dYA4UhibMShYHeNujGIRyCEKpObwJCsHGRUYrBlYOGjtEUS+pmwQaAqk54KRkNb928OCTKU3c8Ny9vS9WhOFfXPTO75/vffX8nHwr1Y92eQFxSGJfHTRIQz56ZWGjkBZjAItMJY4p19wdC0gDE0PqhIQo7nepEVzUicrSLaEN9fZjUNDx3Ybeec1+/e1Te7awP5DlduGqV8NKKf/3yh+3VN7L+LpcxDl/XVIrhbC4nCTfUEF3Qic1NS0s6uFcy0nH3HQHdNC8n3cPCsDe2VRPy17NPfrijWnSXrlrlmfLSMzdUCWSEHgp0TQoCkw0IMcOhzCA8tE2CLoznaY6QohCrRSBMXCJKdX04pJNXj/F6Z785atz6bMWpN0x/3vH+pp+mKjZ/f8bjdbUXE6LUVqwuJtKsAefnrgk5kPfEgXwvACHjHltwK/EU38kEC0pk1N0bDKup529WY9hb8N74jSgbBtoQbAtIrKAeitSGlcqy14/y2R99YM7EH4+AkFZASMITHK4bmhBojIZJoNATZT+x7RDQhTtVjtLdjRZdKqyE3wUwWqBFd3tZUK+fcGqJ86VcLLoHcgAe6Pe6uHSW/4tNO4YLBQWDGU8glIC4Xk6kzdCA4sRksYyIYkMTQkD8bLo/0usDJM7QEB+M3Fap+VZriMSUyl1LTi8pnvTPKXcfVgtmNucTItqf+eyfv/spWnufs0vJubIgWsGsJlggEdUsQdF3yswDwfFl2HHTlt0WYtyR9TZq7ijqNZ2JaHcixGKx4BlNxRPELlqIKqW0aE3ND0W87cExF1z6weHEgpTqOvv9pDmF/95U1qeGs97k63zUcYzgtmgqy8AixguQLaOShBzDBn+cAr0rmmblUB0IBbhml+jMQLymE6rRidlMfjS0S2aLdGyBDnHX2KJA0alFd9OSv555YofNCXlu3ZeB6U88f0uNQCDLprMs8LQzq5lZY3BvmNNjOCsy05Fx3Jrj0CjHKMCcaDJxWGyEk1SSqqlP+TXyzy6EfWTAhKn/y3aRAhDy4cafJqcc/htZt9fdHISwOrXoQr5yNhZdvOewHCNnlGNSslJbtbpQU2YO+v1FOVl0s5kXDtVzAISMefTx23R/4Z1iqFMnCfJL9uod1vTb7RuEUEGqlu6vRUEIEw3Xq5W7Xu0kyHMfeXLOERCyr4uN5ZiXXumfcFEQottsLIAQsF4DCKEJbzTnwpyUYHcOcxyAEJzYzB2nkRNiCrAAhEBTHSKrpKFie1mBFn/kHHfBS8tm35O1COtQDdK2fO7FpU/5v9i65R7N4xooBkJBBbzw2C0SzqORo5KRzYBaEDyfxiJhukDM+GLsR0H/g9NrF2wkXl0Zk3eUvdL3nNMnPXfntT87JqT0nXeCiz/58JYqRr2dDfh66BYLB1kqmHMhgn+o0bEBx7xXeSXDPZPesRh/QHYJgYqRe2F2zMQGgiz2U2HBHYNOI5YwqRSxqEo4Wl75xq+DRY98+uCErW253u393KmfrXfNWrDgvITLf5vi9pzHu70eHYzakExmgjSjVxF8F1GlS6Ni9IqAvAJ4MNDQC/QLppUUJ0o67uj5NZ5HE2Mw3hru5czET3y9oW2A/Ajo28zH6xvqt65/5YrTTx6/ZGTH7KI7YOHC4g83rB4ctXC3WwK+IrTRgyYExhl2X21klUwGaV+CRiy1Gg3LYKcswPZEU4kUiesOSf7vsRbn2FFjH/m0N2PsPloZYABCPti4fnLSGbyRcfncMg9dYWnYFwYkoh8PYRAt86ZFsaYwnv67yZ5hRRieq6YIaOQh/4mVJVmtqfquSJNmDfp9bjkh7X2f5PP+M1ZuCE5+/rnbU3bfUFtRcacEplCzRDGa2bEg9lWplmfvxOnmn0zTrAHwqQA0GUJE0FlFGur1yt2vdRf0OQ8unLI2W5CZz3EdqtfmL0wFEOIM3qX6nN2ZLEEIDnGtOQiBnhVgAzficjUeQQgwIfXl27YH1cQjv/OEXu6IIOTzLdvv03zO24RAIKixFISIjID0HO3jAWfM3HHSoYIN79Cai5wHTc7D3wGAyOk+BJrCEJeuxpLbNi09xipM/PqJ/BPuDuZgXblyJT/j88+P+3b3jrvZ4tBVqt3qUQQW8ltIPB4jgsWcNHP8Vk1AiKGnAQBsWKB1BjJm6ViFeq1VVZVkVcV6u6LNvMBRsGRRaWkyx08+4C9b+uOP4vwX3jtxXXX05qjNfpm9pFNRQlXR/gIGaVjo8Lgg9sigjUUYP0b3VoyrhkUHhYp4kxoxdoZN3Og1YdLHqGQwHR8M1SNBvqRZVmgZhEQa6retW3rFaceWLhk5bPcBPwmH+A0xqGz8+KPXhSvuUn2OvwkOhx9AiHkfYw8Z/I4UiDQHIWlXlzEzp2O8QakOdnG4NppO5GSCcOHYD0fp1lHzps18/1QGL0CrDwpC1k1OOkM36m6fW+FNi38jCKHfgUbKYzBYuhwMf90MhID2DA5FSewNQkhy5qDz//x2rhbdVg/mED3hmrnPhJb/Z/0APRC6w1lcXAwgBOz7mZ3C2wJCsH0G9vdSEIQAe802ROv1qvLXuuvsnO+fffjHbMtth+iU5PWxPxsQEtIT44/rbFn8yWE06ed15o0XXznpucBHG366X/M6bxUCgcCBBiEgPNTr62JK2dalnURm4k/PTf9ZMSFPf/aZ67HXXvvzNikxzNWj5JQ4SyyMRSACx5NYJEp4sanFNJdrAqUYkwnBplFGLw9YUDkImQKdsKYQKZEgXCxWa0ul3g1w3MwfJj36fS6f1x6vgTLMlyOndfpfedU1NRp3s71z12MFj1eUZBnDrrABFwAPKI0wLJFNEGIsibRlgGn0xmxPClpMXsnoKkrzVc2dPA3Vo4xJ1iAkUr9t/dJLz+pVuuyewbva41wcyvdcqev8mNF3n7YlmRqh+ewX8Q6HE88rpkEDE9IIQmiJkJ7LzBIgQoAMEIILnAJ2fdhZK1hmBSAS31mxuZfTN+ahmwa8ecnRR9PwmlYeBgiZknSG+hOP3y3DW+Lm5cCCEGVPxbeFujJzyO//lFPvmNaO41D++y9vG11YltAHyh7/oEwQgptG0I9BU8A2MCH7ASGvd9fZ2UdAyH6udroccxCYkJAaLz2uq3VJBwYht7QHEwIkuJCIxZjynUt9cmzS5hd/Xu6Y0uXLi17+8L2Be0T2Nmungk4NksTyNgsRGY7IKQlboufzoP06MBXKYJvo7t7sDgthgynDlusWBZ2pj6y3NESnl9j9yz4pLc07LTCf75752udXVzhGz5h4cYPVPdhSBL1hCly7qmsYiyBSZ4/hysBkRpakQQguaJBVYJRjzHxZBCHYu0ht7KyJtS7aXdNsfIgCauz2eQSEwFlZsWmTpfSp+Rdu11KjGL/7NMZiEQF80PbrjSAEFn3UdBmakP2BEFjUpFSCwLXUVRlBCKST1m8u29mTt5deddyvFpcOHJhVOwvUhGxaPzXhCN7QjiBEUvZUfFeop2YO+X1uDewO1H3RHu/Ta8h9RVVJ58C4zTHIXlhYlAQQB+DSDKIzWJFsyzFHQEgeVylTE6J6nT3asRyzLaBGxp3i6PLKe/PuzArx53FYB/WlGUxIu4AQnrUQNlofk7ZuXlbMaxN/TiAEygsLlrx45urqiuFcSeGFfMDrakjRy88qGp2Us0+sbvm6GhZn3I3CMpGRxw87fojNQGuuLBM9Emlg6+pWdHf6p/3l4cmr29pGvb0G1tIfdXH0YyNPLpfUgZoneLmjoJM3JmmMqjDEykKfZuh6QZUcsCMH1kOFSdPoV4KagybNjygAAeYEdQHNRDaNIjtaE2wzCNm6btnVp59Y+tLI2/PuO9Fe5zTX931n9277vVMevqya18c4uhT3kjDc2BDhZ3QnZjQqRW1MTW3KiGQyIbCYAeAWBcqEgK0TgvPqtpRVd2ftk7sK0qLlUxbUZfOdM0AIMCGudmJCJGVP5beFJDVzSO8/v9vRyjGnDBhdvCmqDVT9oYG2goIi1IRAlsuBBiGV5W90J+ysI0xINkyIKzi8vUAIoP66nVu2BbX4g6c4S5Z1NBACwlRDEwLlmNCBKsdAPRcmOJ7hiVJXF7PWVC275LQTJ754R5+fTU7I3BUr3DPfff2aiE0czhcXHCdbeQEaDgKNrSckYrMIRgkhm+m35edk7kTpgpvRKwY7W9JcBy2ZVC2p1DahtuHJM4864Zlld96ZTVZ07l8sy1dCGWbp8NLOW/bsGaJ6fH1dXXqURGSNEwU7ikt5bIRoBLoxVPgGCxwAESytQOsfABxGdDg6IyD6H44auv5gC6WWkyBxoTRcWm1gQqL1W9ct7aggBDJC7vr7rL/tEcgD9uKCozRoRmmIfc1OqTDCeKPhkXk90jZpU2huEHwgMEd6X1YQeECCKoiFwTmYLK+u7ybYHjvO4pn/4pgx5dkMGQOETI87gtczR0BINqdsr+ecctfE4nXl4UFMqGiANRRCJiQThMCfwYl2AJiQN7vr7MwjIOQwASF+JTa2dw/7smWlpVJOI+cwfRGCkM3bRmh+FwhT8wAhtIcKFabCIkJBiAAum0gkpuzYvOzKU34z8cV7bvhZgBBYXD9+8L5uuzV1oOR13hwVhYI4dMfkOHQIsLJMeHBYcbCY5vaA84UeIlD0Y0kBFlu6PzXFleFIA+kUDBK5Plwf2b7zw+PcBXOfmDTtv9kKAXP7Ztm/6pwHJvvWVYb/rLi9d1gLgifW64xNBx2QpOP5sWBfUZojAyQPtEBHRgRtmNB7CMorDBGh/AK54ioAFRAkcnhCMhtyIeNhvI9BqyDH0kYmpEODkNKVK73PL3/1phqBjGB97hLOYs3Qd1AfFwjuTRCCotUM91am6wTOMYJgcGWB+widW6C/gUZ4CuFjyYSzPvVuL09wzKtjx/6UTWDZNaXznf/etWt63Bns1x4gBMgAVpaACfmmSE/OHHLBpcs7HBNy18TizTXxQZI7MNBWECzMBCEI6Fn2AIGQire668yMIyAkexAC7hguG4suToJZumOQCdm1ZatfiYzt3d35aocEIVu232u4YwpyYUKwTp9h0YXkVJi8YOnhwHSXSMSkLZuWXXnubya+eMfPA4Ss3LrVevdjc87dpSWHc50Kz0/ZrI6UkbQAba6tRt4H5C/kA0KAEYBCDFDcMLljOBnW8OnAx3qtJKliMrnFmZCfPKWw50uLhw6Fjr+5fmz2CKOVZy5cpQvTFow+fbfO3eEs6fSHGGGDgttD4gkAaCyxi3aiSVC+oqAKAIhpu4SFEHbhprLfojHYPhwEjwBgVR5YEogaZ2mUksGGmLJKKuSF5uBCTiDkirOOH7/k3jt2HLCTcRi8EThjLho/vvj7mh2DUz73IFuBLyirjYDWNJKbIASatsoAolsBIbCwAZkCu2tgQaAzNlxXu6rLzgbp4xJRHPH+uIngoGh1TEJi6qerd81IOBCEOA90Oeb/Agg5fsDo4sokPzjh9AywF4baC4Q06NXlb3Vj9Rlrnpz4wxF3zD5u8GaakHYBIWDRrdu1eWtAi4/pJtS/+vUTT2RlRTsM5qSsvoJRjskPhMCOSaPWORaj3SkIgZo/MCFsLBpTt2159fJzTpzwcwEhD7z0ku+1r/7Tp9bKDtcD/mN0h42ToEygasQKO3ewlcoK0QSQXOb2MMsSwBDAoo29r1E9oRIVGCVNITzHEFFRo1JV9SdFovjYuNtHfNqnS5dDnlUDTNGKYQ92+6Yi3F8s7nG9xefupnKCwAhWogGjIetI38MxQJdyFRY72pYVgQYADhCjMlYraQiHiUvgiUsUSbw+onECr7BWkZcYhkUXDTonDBeM4aY5AkL2HnPQ3+ixRx7qtS5ceVfSYbvG1anIlUzR6QocWLSjOuTPEGKBbgOEEKkVJgQZOWBAWAoEddCEYEsGQvhESnM0JP7TiRXuWTlh6tdZg5Dvd89MOoLXEbcvbxACmimWA2YmiQJnIydEkqsrvgkpyZnDLuqATMiA0cWbo+zglNeHICSuaxhoCLlFqB8ztCFU2N3a7ETznnCTkGHR5SIxACFvd2W06UdAyCFmQtIgRI2N7iY2vNbRQAjEtv97/e57Va/rdiEQaBMTgtkhxvUxQQgPxRjGYEJ0HUPPuGg0pmz/+YAQWGA/Gn3vLzaGwwO1kP8Gze0KaVaRQGokA51fGY0Iuk59+Tz1feTygBtfNgOWNEjphR0nj6ITjG/XFWKF4Nq6cJlaU/PixSee8exLNw/edjjsSqDn0Bfrfro0LHrvsAQLT+BsdhuwQiwLwEPHfB2I+8bCHKsTiQXQQXNlYCcO5w8eQCXbLSJxszyp2lam8LpWZnHYy2KK3MPi83aRGeiRSkEIsEWGxyOjrGM5woQYg2+Vrgu3jbr77B1ycjQT9P6OczktskL5DyyDoUCVnsdMEALyEPg7eDQvx2SCEPpGtKsuABkukSLcnvCXvXwF97w/ZtwXWYOQNbtnJe3BvkdASC6zBiEgTD0oIKSq/J0uRJ4+7ukjXXT3eaUOKhNyBITQyd4A1lTX1hSEIG2rq2kQAs+ARZWLRWPKti2vXvrbkya+PLzfptxuvYP3KnDFTH/u6XMrGXKf5HWeK1lEu8bTZEFo6MfqCvbFwR0mB96P3EGIwtGeDZDLBIUHEPKmE1g1mdh0PZEsL//Co2p/H3jVjR+MPOecyME7Ey1/0sJVq+xzn3/7jC3VDXfZOv+iN+P0uggHWRKQ3Eh73cAOjIG/AxqfhUTUvUEIjCeZVTEj0yFpSri8cqeVZxZzHLdWddouqk1KVzhDIZfZNLE5CMGylXYEhJhXCey5d82f9acKVn3I2bnkRFngWWh4CLcs3q+GS8YEIXCdZF7Ha0TD8cwc2kYr9L5ACLJ2yRThaxu+6WZz3PvvcZM/zQYcYznmCAjJ6xam7hgyWPYG2pMJieiV5e90YeRpR0BI9kxIu1l0sRzTwUGI4nXeLgaCOTMhugo7eApCoOsuakKg7wQjAgiJAxNy6RknTfg5gJARzz/veG3V51eFeeYBW+fOxyZh8whWUIaGaBFdRoEk0NsMA+WT3EEI7FAxDdWIaQdelLIgGhFUmYiSXCtVVi75VWHh/IGjJm041PHJ0Jzu8efePXprXfRWxhvoK4Q6F6m8yADowAZYoGEx2TEIyIKyHMaGU5EpMBmgs4LGaPBnWZWJS+SJWl1bGamofKPQ73shqSsVdYp6nWKxDXEWFRVrjIi9nFi042KMMdWXGEm9uQhTO6ImBMbtW2v+e80OJTXK363bMYoRWoWyYEP7YQpTRZmO2tZACN1q0HIMgm4oxwDjBRuSZIrEd5Z//8tg0YjPHpr4z+xBSPmspD1whAnJEYpQEMIOlrEcU1gY15X2KMdE9Krydztr2rTSZyce6aK7r2t1sHJCOjoI+dfa3fdq/vxACNFobHtzEAJhZXw8BiDktUvPOOmRwx2EgLjvvHvv7bwxVX+b5HYNshYXF6TMBZalEzdoXnSG0tIE9vEZttq2zCtQp1eIimp2XhcwIwRKGQBCgB2waqqi19VtcKSS868879wlU/7SL6sshrZ8h7Y+96b5S4s+Wbv22vJIqr+vW89f6laXkARgoNI+L2bwEU0/pQuY+UBxqfELlGUAhHDQciQai2lVdR87ee4pzkE+1VIWpqy2cogYCgx2FJaUKAxPGA08SVAuoLoSBTUO8McjwlTz/F40YkTBRhK7tZohQ/1dO3eKqzToDV1JLYAQrK6YTEi6aaKJNmgoHIxx6CmSBiGqho3i8PpJEolu3/XDaZ16jvx41Nh/ZANCLpv6tOvLbVtmpWyh63S3156vMHVfmhBpT8W3BXJyRkfVhBwEEBLVq8uXdybK1NKnJn9/qDc/bZ2n2vL8vOImj4CQtpzqlp8LmpB/rds1QqOakJDOWbLuHZNZjmkOQrAfCFFxcWUTFIRcfcZJjyw6zMsxIO6bcOeQ06os7GjJab9A9AXs6MmGyRdspLCrZxRke5C+hl4WeYAQEFgCw8JC12cEIVQAaGUZYtO0WN3mLR/28vhn9b+6338HnnrqIRVFl76x0vvqv/71+017ogNZb+isYNeejoSiM3E5RThNIxw0I8O6ErAfHC5eGPUNfwXaBFMkB2UBDpok6kRPRqVU9Z6f1KrqBb2Ku71++bz7KxbfOtJRllIHE6/vTnthcYkM4mZNMASqGtFY9QgIaXY76//fUv67++765UYpfr/qdV3uLCpw1sfi2F4AGEooiUFJBkov0NTPotBxlgsIAdAMgBOYEG1Pw9qjnO4xd4995J1sFioAIf/bvnV2whrsewSE5DZ/gztmVwM7WPa3KxMS1avKV3RmlClHQEhr5ZgXl9yYcIWGt2cDO2BCglp8VFeh/vWOKExtLxACaaKcxv/MQMiP4thhsy4JO2wTNI+3F+NwMejiMEoIBNqG8xpROAXLD5AaAumTOT2weZ1CXQcYuoWdxnC3z6mqZpPlXWJd+NmLT/zNk/OuP7TpnnNXrLC8+MG/T15f0zBALOxxsW73F2qCjWVEniQSCcwCEUSOyHqKqMCIGKUAgeGxeZ0gM9R+i/1LGFz8YI+t1u2p1vbUvlzCic9PuufaH/uccIJ09v1TXWsra4Ym7Y47HcWdi6TmIITR8fznw4Rceu6vHl5218CynK7bYfgi6Bnz4Kh7zt+UiJZyhcHf8m4XF02miMBBqi/ocrScQYjZZRXLMcB4mSBEkkh8V/W64z2BB7sef+Kby/r0aazF7eMcAQj5qmzro0lr8Frd5bUdYULaPpgQhESYQbLPP7AdyzExvapiRXddnTL2mYmrswGYbT+Sw+MVeTEhs1eu9E5ZtLw/gBDd5+yuZ9lFFyZ9qPFjQrYRuw01Z0hvpB0bMes43UWXgpDIqK5CtOOCEI/ndkvAH1L5zC66SkYXXbpzol036YRGmRCa17AXEwILrA5NyFjCxxPIhFx51qkTnh967cbDY+i1/C0uGDUqsE2qv6mCaHd7unUtkeDwGA4XUk2ndlMAIaBJAHcMCEnzBSH0PPGEBREvCFMVlWjxaFKIJz4NKcqsIddc/O+Bp16aVW+O9jq3Yxa/2eWpt/4xqEG09yk49pfd6jVeiKZU4vG4SSIeT4MQSUsSiKvTgQCB8aKCE4YjVk0kGOAOqam6QlKMpPOaFFEqdn5ileNPjLzzgU/uO7EoBt//lAFTPGtqt49wde05kPEEQhIrEhbeEAAaanHAcUOZKOje3GZNyLa1yy4959fjOxII+VHXxevuHXRlFc8/THyeY1SLNe2GgSGM592w42I3XMMNA3Me2qb3U44xQYgpOE6DkJRC9Oqa9Z0ttodcrOONT0pLjYuy71GIIGTH9kdT1sC1mtPTBITA1eWNLrmYLQMJwlDyxOaFtPzWvIvu/8VyDPSO2VnHD1Z9wYHWdrDoisCWRaBEWv5ed1aZ8uCTk787AkL2MaYBhExb9F7/iNM3nA14uqsWCwthZRCQxUg0ylbB3AoKNuBG4w0PNYAQXEYzQEdLIITIKqkv37Y1pNaP6txBQcjKH8ruJX7/AHtBYUgi0IOAEAsHqXsSOhwQrBmTA4gDYYKAcgS2+YYSPaRbagLW/znQSwAdD8Q8dHKEnTCAkLKfXr/yzBMfeX7ojYctCAE9yGkj7zpmm5wYq/h9l1n9Xreu0G6usIsHkWVai2DYhHIFIJgYCqJUOFcalC0EAp8lsiIhUkoXZKkmsbvixb+df868BVffsqW9wEU27/vAu+/6Xl228pIww91uCXU6LW612xWbgyRUnQgaOKBYI5odgsZkQsCizdH24JrKEk3lCJEF4nP7SKQhTIiWIrwop7T6PT866vc8fYzf8/rKaeMqTYvnb+4q9a7b0zBGLOh8i+j1+2WGpyAEYS8EVkCiqkLv6yxACEIXFXQ3mi4kotGG7euXXX3WCeNf6EBMyJ9Kh7m3JrTbyhXlPk/XkqK4DECQlmIQRDSPizCEwpm9edDAazzP1PTQHRndsME9YL6PrmlEkBUiV1SuO8rhLnVwztezBiFlWx5N2ELXEqfXpmAJD5JYWRxHDKihMLCOlj/xYTR3zJyHzDQ/4NMgJ4QoiSY5IR1ZE9LrpiFFFYp3UMLhGWjvVFx0IHJC4DRjTghLiJAGIRX/6M6SyQ8++fARELKvidIEIVGnbzhjgBDo1wmLYmsgBEJtYBE1+4U1MiHGVKfx1IaJIGTLloDWMKorH3ujI5ZjVv6w7V7iDw2wh4pCEkMbIQEIUVWZ1vdBCIHaB3C/wI9GEAJ2P0i2bApCcC/8swQhv7r3jjO3adIUa5dOZxCLReRUHY8ZJkZY9gtpcfcAACAASURBVEz6GAObWssBamHg4m7SeAAIwfbqkDtCRKJKMrEwAhE1XWFi0TVaVfX8AZf8flnpJdc3ZAMW2uM5pc+utL61+uOTtuyov9XZuculvC8UjBCGjfEcYUWR6CmZCJBvghFWAEpBLwM7AACpsMAAgyEQVRZJorqOFJQUEguraOU71lfYknWv/MYXXHT9tRevy9S7nPPAA74vtibHO7v37M86vB7MH9EhPdXo+sqAswY23cC2tW7RbQJC4tFYQ9n6pR0NhFw0dkSPjYmGB+otQl9XUSdXXJIJI4gEfGrUfUVHB71/QSNCY1JRYNpEMEyfZ4IQZOmMjYgJQnD7ppogpGr9L5zecVbO1mYQAuUYKM0p+D0gYwauM592h6FWCm4XA4TQmZmGIrYGQjpyWNllE+cUfrK6bDAJlQwUCkLtBULiWmX5P37B6JNHPT3h2yNMyD5mVwQhz624MeoIDGcC7m7AhLQbCNEjD5zQxZ0V5dgei0F7vScIU1eu2XoPCRQOsIcKC/4vgxDIB3ng8dl/2SNyD3uO6t4rpiiMgCIG6opRMeaaTtAHCoTQ/TwwIRbstcLDBjaWiJBIwztHB4KzB3c97rs+WdTa22N8gEh3xrAHu36/u7Kf1Vdwg6uoc3eZt4iKaCFxgBywaMiQmQI5rxkgBIS7cCCwVIhWEmlIEL8nRBqqa4nfYddZORLbs3Pjv48t9s8betWF/xp46qlNSk1n3l3qXx+WJiWc7r6OYCe3DNYMgwmBhn+6CUJgccoiJ6QFEAJMSGlHYkJ6P/jAKT/UVkzmCgvOswb9YkM80ciEIAgBATRsImjwvUKJpaxBCDyXlg2pwwkACS/JRKmsXl8iWh66wup7ozTbcozBhLQ3CClQEzOG/uGyFR2td8ycj/5b+PBTrw6S/UWDxMKCdgMhpKri/Z5Em3QEhOxndj2oIESNjjyhm+vNbCjH9lgQ2us9EYT8sPUu3VcwyFFQ1I4gZNNrV575mwmHczmmb2lp8OPKLQPiLvtga3FR55SuYyt6k/GAZRUbfkEeitmII48Lg0wI2HEFlmgypLEyxK5zmhKu28bXxR//y2lnPvd4//5VeXxEzi+F0tSIxe8GXv7ok4ujrHCbq6DkNGJ1OmKgV+EtREXhqUZ4Iz0TynSw2EOjM2B2QLOBLCMvkHg0QVxWF7GznK401MlyfdVGUY09efUfz1/y+FUX73V8pwy4N7iTcUxJOH19BI/PBeUY7BODyx+AENAiGUahtpZjKBPSoUDI0qVLuenffPGHjfW1k1zdOv9GszuYFLQUYGlfGBivvMHAZYIQABXo+MqCCdkXCIFyTFfBPvaBU896Kxuw3G/uXPc/N1TOgXLMERCS2+355H+3FN4989GBJNh5sKWosF1BSA+OTB79xMPfHGFCDgcmpIOCkCtKZ3v/sXHXcMZfMNgeKiqUMXa7Pcoxhz8IOWvYgKM2KMlSrrjwUskqejSeJyIHeoRGihoW1kx6uy3TiNkRNv0ayLvQVOKwWUk0GieMrBK/xaGK0dh/vLr4yD1XXfMpuEXa8hkH6rlQhlny1cdnbIsnbhOCBX9ibC6f6HCxKsOTWDxJWJYjHEeFolSwTLvZ4mKFwlGNpqSyHPE4PSRcUQ25J5pTSe6SasvfPK4ktLD/5b/b2JLt+Nxhk0Lf19dPYYtKriZOt0dBINgUhIDuBB7Z5IS0xIRccfqvx7884rbtB+p8Hcr3uWbWLNua7RuHVDDqMEdJp24xiMYXLFhGgfHVFITQ8YvZIbQHcasgxOxmbDIh0GjRLMckduz+8VhfYNQX46cszyYn5CCCkK8LlOSM/v0uWlHau3fyUF6fA/3ZC/6zumDknEWDZF/hYHtJpyMgJM8TnLc75mCVY4Ja5P5eXd1vdTQmxAAhwxh/wR3/10HIb0ffdfKaqurZRb86/sw6TRYkaFYngDOjKQjBxS8HPQi+DgPOGh8Mq6OgTpU1YmMYYpH0BqWqZunpXY+ZtGzYsK153l85vRxYkOP639e9Qtf7Rqz2G71duveMa4QHoaMoWoksy7STKliUQdgNDc40AAr02LAnTtqNwRCn1ULUWExn6uvrxWjtJ5Z45PG//eGiz2b0vxjdMM0ffxo1N/TZzu1TJH/hVfZAgVfBVvKYO45sCH5MPiBkx4ZXrzjtV6UdBYRcNnp04Zpk3bSIyF1uLSr0RBSZ8JyIOS1UzwGtBuDsUU2XCULM896cCTF1cmbYHCbdGnH82IMQfleoJiS6fceaXsGC+z4fP+XDbEAItehuASakbzszIasCamLGzddd/F5HBCEPLnhpYMIZHGItLjoCQnKa5TLm4HxefxDLMZuDWmRkhwUhG3bdwQQKh9pDhUXtyYRcffqph21YWenKlfyry5devKEhPLOo13HHRjWVxFMScdjstAZuoA4U6RqNvjDfw7B4t3UcmwJVq00kiVic2CwCEVRCErvLN4l18XnXXXLuommX33pI+sQMWPhOcOXq1X+o0PTbiC9whuD1OSTCklgigY4ziwDppQxRIaQMzVIAQihQANEjOFhUBmLLwOOgETkRJYVOuyJXln9tidQ+c/6Jx7z18vDbqvbV8OzcUZNC31VEJ6n+gqtFr9cHwtRMEEIRoOkxpQwMi6AEPg1swBQIQWkIgrmauWPiDWUblnUkEHL5pEm9vqvb9VjCYTvXGgzyMVUliqKghoODUh82DqTN/7D/DgiGUVtDR20mCMkcx/sDIRC9D5qQxI5d3x3ldN/31eRZH7cRhEA5xt6OwtRVQS05/aa+F/2jo4GQ6f9ZXTB+9tMDhU49B7MBf3E7uWPioAk5Uo5pZWY/qCCERO/v1dn1dkdjQi6cstDz2epNQ5hA4Z3/l0FIv7ml7s+37h4YFrl7hFDg/7F3HvBRVenfP7dPSTI9lSaI6Lq6IthQV1m7u66rLuxaEZVeFEUFLGSlF0GxggVF11UiuIi9odgV64oivaeTMu32877POfcmQ0hgkpnwhzizHxcS7ty5c++593zP8/ye35Ov8bQnDNE5WBBCJjerTwxMunTVv39xiL2CJNtaefnEP8FlVFNU5HG7kF4fVo2yqlXHd+o29Yzb7vqsmGkj4bSWiBK2H7PgDem1Hz46ZXtUH+XK79TfkZsXrInJDO920pJ3HczVDGRoOgEn6CVChLuW0RpIdgFCQD9DHHPhPMoR5MbKrrrNG5/o2zX3P2OnT9y0vxzzRROnhz6piE6Tc3yXOwPBAICffb6pJgQOOAMh9mU7beLtZ21WIo+igOcYzuNhZN0gbd2dTictuySjlqbNbC0TpMkgzWKPxaYgYgf6qEfI3pEQSOEQrxFVQ1pp+bc9XZ7xn0yb9VGyEPL1ts3zYy4SCWlPCPk6qMfmXH/1hW93NAhZ8sPG3KH3zB8qduk+UgiFMhCSwvOOQHgq76cQ8ub10Sz/WCbg6aqLYntVx2wKosgdZ9VtX1FSUnJAV8BUvtPBfi9AyOrv1o8Q8gpvlvzBfKiOIb1MYBKBCSbFEl2omxDickzdtn7ZFf16H7LC1L/Mm1r0U+nu6bUSd4UY8LlBeEnW0PbT2DJLAmt1eDVMinaupoULB+eSdMm1UjHw0Af/FFKpwNGJQI5GUCgnB0VKyyrY6tpFpx95wqPLx40rPdhjAT7vpAkzuv+8o3KM6sj5W6Bbj84xA3PkXFgdWMFXAsALdAGkhNLyjjBUg6QAWFZAKlmFkxa3yClyiFUi0ZrN6z75Q5fg5LnnT/ymf39oGNPyCyIhX5dHpxq+4BUOvy9AYBCug5WSoe+0uhiDqmE/kRC7vBqbHPEJ4WPhWHjH+pK/nXlc8QujD39NyIClxeKPX1TfWOvk7zWyXfmiJwfVR2NIEkTaUNCq5moKIYmREDsakvhAToQQnucbxiyJqFjRJS4mY7Oi6uvuzuzxn0yf/WmyEPLZto3zdXf+lWaWJ2UIacmsTKss67AQApqQiQ8uGaoH8kdK+XkZCEnxQXlYQUhHjIRcVLwg5/1120cIuQUAIQW/VQi55KHpR3+8Yf0CIS90LsrOZhiWp6t+yIUnOOsChJBVo90v5gAQkhgJsf/esPqEiZxjEdY15DAxqtm89ecjPTkTLhcCbyZT7pjivbfP2697+NnA6199/5eII3t8fvdeR9cpOg+t9Ah3EQiBdIdBjassOsOajiTBQVbUcL6IKRjPI4kXEasbyIjWqUy8dh2qq3jkjCM6Lf1v8bjaAx03QMhXFZEphjd0hdPvC9oQQsHPMs9rO4TEw5CO+ePxkzsChFwzf37B+xt/nozy/deoTtGNoXIJOjBzdPyyPDUaSwVCAJYBnO2oIAx50kk3GjdwZfUXR7py7vho6swvkoaQrZvm6Vl5V7UrhFSVfRXS5TmDrjr/nY4WCTlYEAI+IT14ZmamOmY/T6yGSIjbfzMT9HRp10hIB9WEAIR88Mv2YXxewbh2hZCt61++4vTe0w7VEt1Tp088/cfysgcCR3bvG0cYKbJGIkLwACZWIVZmhPhhJEDIgdIxicOXVBckhLbJg50HS3gTmTW1UaY2/E7vvNCkdybNWHegiTrd/w4VFt+sK+9TgdFtfKjoPCkn6K6PKUjkREtMC+6uJjLB6dUy+YOwPCbGqDRcDytv+I4SJyEe2iDEo9hpqrv02vKnO2Vzz3w1956khLYAIZ+VRaYgX/ByV8AfgggIRDRohQxNg9HrQYWqrYyEEAgZeNoxxc+MG7E13efxYO/vwllTen26eeNMT48ul8o8y8jgYCsKSALvYk0jEGJD9F7pGNCEWCLi/UVC7E66cG0BQkD/A9edNCYMRzW2uubznm7PHR/cN/2rljQ+iecEhKmfUQiBSIg7VU1Ii5EQgBA1NnvQNRe+m4GQ/Y1K2oYDXk0cUzNmZcnczBkISeYs7X+bgwYhh3A6ZujCha5X1nwysM7JTfT36HaUIfBIjshIkiQy6dKeG1ZOvZUQApMywAyxabcgBMAGHuowSbizs1CkuhqxNXVbPJrxyMl53Z8smTChLvUrm/weoAPrpbMf6/nBD7+OFIq6XIqzvV05MQsZ0PzFsPsDQe8OiIPQJnQ0XM8Su3lVVkjYH+Yl0AqIDIc4xcSsHK8TY/WrJK3uwWsWTf84WY0LQMinpZH7kC/096xAIAifBFoG0J3AVEihkIpP4f9aASGIpGO2r3t54Gm/m3y4Qwg0FXzmsw9O3xSum5bVtdOpMdZEqsnQSFQ7QAhEP8CuHSBEZDmk1dTJztrIu92crntXTZv9Q2sgRHPngiakXSEkV5dnXXfV+e9lICQDIfs7A+lJx2QiIcnPOE22JBCybutQPrfo1naNhBzCEHLltGl5n1XvHB/zOK9GPm8B4niENYx0VUWcxDdACJl2jdalYw4EIbKsoiML8o3ta777rHu2Z9oPMx94pyHX0earmvwboRx38Jxn8t758ce/a/7QdbLbc4LkCwhVFbUoJ8eDOBDTkqgD7VprQ4itzwCbbR3riBOAVxQEjYcc0GguqkSdsvotrq146oRjOr/6+sSRNckeVZ/b5ga/r9xzH/blDvAE/CQdAy0UIBICWoaGRmyww9ZDSDy8fV1JR4CQwQsWhD7c8L9hqj9nhJ6TVajw0GtRImkYgBDSBApc84mcxhamWpEkC+bsSF5DAzvrItmaELuCBn4N0Q9D10l5No8YFKuoqvfE1Ge6SdkPrZoxY1PSELJt4/2ai6Rj3Bi8TFKwbd+PJuTLXEOefctlZ7479uKLlWTH3uGw3cFMx2Rs2w8wIh79+GPflKdWDopmIKTN985BgpCoum398kNVmHrV/Pnd39nw03Q9lH2hEAp44pqOfI5sFI1GEStCE0SagmgKIbSvRvKn3o6E2GJV4rMBs3d9fT1TWrm8u8M158v7H/o5+T2mvuUdT63IXv7Jl/12yfKNOd26n6M53D6NkxhRcCJdVRADIlqWilEhBQJxEdLN1rJq1636T07ESFEjSBQ45MKMFt5ZtpEPR57pKrlKfnji7m3J6AXsb0MgpKxmCgqEBnhJdQz0PLFCxohCIWk8SY6j1ZGQDgMhYxYu6FHy3ZrJjiM6Xx7hObfCISRKbqTIMnICfRD4gGZwzUMILfDau7eMvSpssMGB5nWQigGxOssh3fKIgfRYuLS8xq+bj/RyeBe9M23ajmRGI0nHHCwIMWOzbvnbWe9lICQTCWm3SEgGQpK57fe/zcGEkH+c0Wfa0yOv/TX1o07vHq574IHj392x7n4j138mk+2WoO+GR3TTNIPEkUkPHEDJalBvXSSETARWaa6tB0msloHqIbmycmeurC84yp/1zJuTZlSm99u1vLelS5eKU9/7+ve7ZO46LhC81MzK6azxTo6T3MS7BFa8HExi0DEZ/gQIIZM+D85liIGmchgakBkIiTrS9BhyiZyJY/EKZVf5m4Wi4+k//+XErx9q5UoUIOTH3XumMoH8v+cE/QFYjUOjNRqJ4UnfE8PShBC7eEjVtOAT0qQ6BtIxHQJCijFmf5k97eQPt2yYInQpOFt1OXmFlK4IRLchWjV8NoTYXcRJKbXVjThZCKHdsKk+CiBEYDkSCanbVVYVNNHcY4Ssp9+ckdy4JRCyfdNczZl7dTtHQr6AdMwtl5/5foeEkIeeHab7CsC2vd2qYzIN7JJ4EtsQEnH7b2YtYSpmBNpMCxp5wk0DpZWwLyunDyJAchNacUayorJKLqEbbOLPCV10O6xZGYGQX7cN4UP5t0n+3FZXxxCRJsMhjAVqjoQ0hNnGLrpWiW5U3bp+2T/O7DP9UIMQSEeccsst55e60FQ9kHNimDFZsLx2MCJJx0DfNDL52RBi2ZM3XTE2/dkOY5O2btaYI9oQEIBZJbo8x4HzpBEvLf0xX2Xvu6rfH98oHjjwoNi0Q3O6lbMeLFq1cfffShXm2tyu3Y/DTqcY0aECkyXVFSC2gModcHWlEIIQLVHmEQ8OqdBxGbFIxwriJRPpWgxhNSorlVVf+EzzifP6/P6dF4ZeWZ1MmD7xdgcI+YlASO6ArGDQT3vF0LQC2MbbGh1yW5NoCIUUuMdtzQjdn9nQAdkq0UV8rC4e3r6+ZOBpJ05+Ztzgw1aYWrx0adabX3z6ty1GbKLmzzna4fex0OtI0TXkFJ0Ia1DN0hgJoSm1xqouSHE1plpoqqa5F4xZInCFSAjPI1VRkEPgkYhYVL9zV2muzk87mncseXX27KSM9axIyBzNlQcQkpWOdAwHlVumTLKYUBrOaqqqVZZlIATcmSFftd9XRpiakiYEIGTa069fH87yjWX8OaQ6pimEkOmQiNisnKjVuhoghDxP7TA7qPmbgRCwJ96za8OmXBztkI6pACEfbtgyBPnyb3OFCgiEwPPcIbBI11XLJwSeZrSJGGeC2h6T0DydHKA75+ELIeOWLnW+9O7bg4XC4K1KltRdFhkGFPsAT6am08m4mRcduHRskQgJzIxkkmQRrDCpnYhJVqRwjuAFjwOd/ARVMhydOOVYWC+vfOcYZ/b0z6fN/741aYskOL3ZTQC8Rj72gve1b344q4LlBzmCeWc5srK9BsMxGkZIN6iIFozUMLRsF4jggwpVWRFqIxD8lYH2Z4aJWA7+MxCjRXUzXLMFV5f9+6ITj3/+ijGDtral8VWf24qDP+6MTuVzCwe4An6/QUqCaZUHQAi8oCssLBjsapkGEy5bsGqdc+JjAtfSREgwdSTI9fH6rRtK/nraiZNfPIwh5Jbnnit458c1Y6uc/E1aliPAihLhCDvqxkHnYWvMkT8T3FEbf7bdfxvHqL0IsyvA4LxC52KTxaT0l4iPVRVlMRySd5ZvLdCY4uv+ee3SW/v1iyczHv86a1b2Z9tq5yiO0NVMTjDL5HDKmhAbQliAEJNBnKaqalXZ57lGbNbNl531QceNhIBPSLvZtkfN8tK3M5qQA4zqRAjB/pwuZpIQQm5CsymE8MSQqWkk5LcCIYw//zZnKK9AxSJ5kFEIkYk/BJ1QSftYxJlQspochEDzLA5ziI/LUe0QjYTc+OST/pVrvhjrLMobamRJ+VHOZBQw/4bJzsSIGpQ3vux1BUTJGio0LAiBR7pmQQiZOC0IadAzkJ4qlm8DZklpbryyfKcjKj/xe59/0YfFc8qSeZCnus3iLVscd//rsRPqWOlaw+O5hPdkFwo85FHgutIJi5iNQfQDOuWyAjGoQiaHGFagjqiYli6DYyqLDOQUGdOI1FQYVWWvB/T44lE3XvZtshNT0+8DEPLTrugUNpg30BUM+aFzsW01TsYhnG8SXTJJV2MKJTYs2nBCFxiszlnlwwjxWEViPBKv37a+ZOCpfQ7rSMifp037/fd7dt+l+nMu1Z2Sk5SSWxVY5IRYPYrsXkWJAtPE82373djjmZRhw/kkJdEICQb1idHh95B2Y1nEqjLKNjmklVas72Rwdz09ZNSrxybZaBEg5JPttXM0Ke9qJsffvhCC4zOvPefEDw5WdDHV+zLZ9xNh6oJnhut+SMdkICTZ89bSdmmLhGQgpG2Xwo6E/FYhZOhzzxWs+OqTO6Tc4CAjS/LGeczI2CDloIAfNoQ0DWo2ByFwBexIiA0hPOgVTJqgh9+BBTnALlTZCIahM7V7/udD7Ox/nPynV4svuSTWtquY/LsgDfPkPQ93+XbbrssjLvcgV15+LyyKIikZBmiEFBEYqBFHMrMhnAsQwjHgo8uD5AAZEElkEXK4HSgerkNsPBJ3xmOf8vWVi668+Jz35w24oKa1aRj7W7QzhJDeMQNP6Vt8uKZjoDT36bfeOmezFrkrq0eXk1QB1M00CgIgmdgkcZ/OzfsMFUpxLUGIDXdNIcSlIYTLqn7MV5mJjz/8+Lt9Gauj4AGG4kGDkMryzwJmdOb15/VZlYGQ/V2UFtMxUbOi7K2eLJox4Yn7vm9LRDP5p9L/7ZaHB4Ts3LAxl43d2VEdUyEd0xRCJJ5BhqGkNRJyKJqVXb94cbf31353r57t+id2S05VYpEGQR8dVv4YSdBGPiGsbd8uDSmWFtIxNoRwBvRVoekYqLKBnh0wMbAaQpKmhlFV1Tsezbz/+fmPr0n2QZ7KLQtdk7/asP1iJcd3I8rx9WWzPdk6KzCQ9ycCRIFHHEd1LA03p0GdYwFCIFUDQQhi484ySMEa8jolPUuNb65at/b5QWefs+ThGy/e3lYAge9mQwgXyh/oDATTHQk57CFk4vLlgTe+/HTIdiU60t2tqEhhGdaOggAsN0Q/mgBJ8+OmeQgh3rRQ4WvShoDQgQZ0UWQcaAoSo5ou1oQ/7YTEf029/8GP+zP7t+K3P/tgQkgQx2YMOvfEDzsahDzxxf/ybp//9LB2j4RkIOTAj9qDlY6p2bVxY4iJdlwI2bj1JsaXNz4xHQMQAukY2gocrkXq6ZhDEUKueOiho7/YtmGKkeO6xHSJkg7VMDyLTI1qiBIjIYkhbRssbE0CRDxItMPSg9jt0CmEEJcNmr5gQaHAIEbRkRBXSqXa+id7+X1PvH3X1J2pTNwHvlsQWrsWi5fOveO0Gk4aIouu89z5BSENCQzmaG8QyPmTSAjk1g0TcQxdVdNSYookqkq7s4JOhGhnnCyWa6oixvYdb/VwOOePvPS0b1PNwfcZWhz8qT46ZX8QApoQiNQA7JGVfDLpGKRiMRaJky66fXtPfmH84dk75pIpdx/xfWX1HWEHe2VWpwKPDImphP5E+xsLTVd9DZoaK71op2MAQqjDKk1zaQzY9dNBLmgqYupikayI8uYxzuzZ10+d9V2yK+WDBCGKWln2WdCIzhh0ft+PMhCSiYS05p5I5lnasE0GQlp1uprdmKRjfqMQUrxqFb/inddP2qnEisWg/2zdJYhxENzyUJNLzZmgZTm8bJdO+yTaOg+7yV1LEMLqdPUIUAJGX2QlCfNnXNWFcPRnf1SeM2ro6P+OOvbYSOpXs+U9gCvqcUPu7LU5rIzE2b7Lsos6FSkMT7QdDJizER0IRixHO6sy0HeEZcnx6kgn0AHN62RZRiLHI1EUkYk1pBqyFqso+zZfUR+95pz+K2YNPC9lt1eAkB9rw1OEvMKGSAjAG6nosDQ6KUHItl+X/u2k3sWHI4QsXrXK8fibK0/brkYnMKHgWabbKWmkKmTvNAyMhMS+RfbIaAlC7MhecxAC6KEyEA3DiMEY8bqGcFV9pVc1nunKZi18f/bsLckKqhuFqXlXszn+LKN9hKkEQkJmfPp15524OgMhbYWQ0jd7sszMTDpmP+cvAyGpT1staULaIxJyqJXoQpnjs6vfuyjikG6Xcv29DQfPR0wNMSJP0jGtgRDiR2H1NCHVMVbnV+itQkSV5He0CRgHPWPCcpivi6zqbJrznpn36OfHMlBU3n6v466a4Kvg8UVRh/NOR27BMRpiBd6ZhRRFoxBimVpBVQWFEBoVAXCCnhK8SCFEUeLIIYjIwXNIiYbNaH3lFiEeXnLeUccsXnHbDUkZVh3oW1IIiUwV8goG2OmYdEPIFaedPPm5WwZtP9CxHGr/PuO113zPf/DOVeVYGyMV5h2p8iwHEEJSfFZFDEmlQSGTdS0JkLTwRexISGN6sbHii1TIWJEQG0IgFycZOlJL9+wImeyCI3JcS94pnluR7Hk6eBBS/mnIjM3osBDywFPDdV/h8HYVplaUvnkEb864e+G0H5KNdCU7Dg6l7Q4LTUiHT8e0oAlJdzrmEIQQ/7OffnBVLMs5SvB5eqo8w8WRgQRJRIZmkrJU0qjLSrPYERHygIfSZAxlt9SngkJIY8WM/XAnDd7Aa4HBkFUnJk+ibmKmNryb31P33Jlduj754u13J72SbMvNu3ANFqY/MuGkUg2PceYXXsC4s32S041iMZmUr0LKzXaFBfAg3gLQgwQs0gmEmAiJPDJNHWkqGJIJyIEZFKutrDbr9izt7GafvvXqy34Y1rev1pbja/oeAiF14WlCbiFAiA8qhD9CEwAAIABJREFUYDIQQiJVzPjly7uUfPD2qHonP9jXrXOwTlOtrsaNEEJ8aCwIaSkCQsYyifDR8dschMA2rEHTMQ2REMOCkF1VGwsQN/3sI39f8uioUUlH8SiE1M1WHMFr2JxgO0ZCyj8NIXn6deec8HGHjIRkICQdjxqyj8MGQvKZ6J29OmW/+mFxsZ62b38I7OjcmTM9n/9UMQT78m51BHMLdMZB8ssiaT0BPiGplejyiEdsNBbVt29Yfqg5pk564YW8Jz56ewhXkHsjcju7YJFnVXDjBD8EsL0GDwxriNr9SojraQKEgN8MbAOdZEEnApM2/L+toQGY4SQBqQAhhoYkjkdcLKbzNZFfPHHjoRF/G1Ayrn//A7a3b+tQWboUc1NX39Nlc0S+JsI7B/s7d+tqsgILcKTJCnI6nQSOSEjf8uMg39GA78MixLFINXRkCpxVLaMiCb6/qmhaVfnnRbx531Vn9P+yeGD/pCeiA30XGgmpny7kFf3dFQwRCCGlw1Y6Bt5PSnT3owmBKhH4d96kJnpQciwgDfPRejArW3o4RkIgFbPgtf+evD0WHisV5F2AslxZMqQPWdrFOPHV1HysuQctQIgtP+asloQgYAL3FUjBQOqFMwVyP4BNEECoEwpxwmHM74muzRfF+x4aPu61fp07J+URAse3N4RAOgYcd0E3xRJYh15ExOsE/JzI720vJ8tkEtml2JbzKywALLOyBJ8QRass+ySIlBl3Drl8dbrg+EDj9mD9OxGmPrB4uOEvGC7m5eXHsEmabaqqSrVaifqgtpuVRc1MJOTAlzQhHXMz9ud0bi+fEIiEdGgI+blqKPaExrU3hAw47eTpz4y56qC3qW9pJI1b+mzRkvc+HMsXha5l3M48Q+RYSKXoJvUJAXFmg1MnKRegj/IGCDFJPIRACF1JgseC5ZdNIiRgey6gqBInYldIabhYhERZi+PdlZ/kmsz8saNvWzX4iCNAW9guryuL5wZf/2njBZHswDhHfsHvkORwspyAOBUjSQBdh07KOhXOICJPolmB72OCHTqLNBMjVhBQVFeQ5BCQgzWQXFtrenluV2zrlqdPzMt9/MM5d6TV36T3mImhn8rV6UJe4RWJEALlzbRxXuoQcjhqQhZ/t8o769/LB9Qy5mjW4zmG9+YIEU1JGUJIKseq4AIDQlsfRCIhmE5qACGGppDGeE5NU5mq8Nc+2bjvruGjPhyYpEfIwYaQkBGffsfwv3+cgZD9PVr2V6KbSccc8KFMIGTxG4PDbu/YdocQNj6hV5F7RYeMhKytHIa9eeMcwVB+O0VCYvr2DcsONQgZ/p/F3V76ePUEsSD0D+RyeUyBZWwIEcAPw1pRkBUjCDbB54PGOOhKHIP1dWI4uxFCiJ04wyGBl1BdJIJYtwNxUHUTCaNsVa8RK+pePPuYYxcsHjp6fbKivgPeEE02WLhyjWvBipdP3W7gUWYw9yJnKM+pkNJjBrGKTgSmVKmCkcpDpYnVwoCUZ/IEQoiLMIhTGbBlj6NsgUWcHK2J7Nj1RhcX9/hVA879orh//7RGBwFCfq7Qp3O5+ZfbZmUQCUmEENumvcE8rkl1zIEiIYcjhAxf/Fi3V79ZM4rNDV7HuLJCCsswpG8PRK6aREJaGitNjfcMS0dit7NoCUKgUaOhq0jQMXKoWr1UG3+lR1bW3LcnT/u5NeP3YEZCOjKE3Llg8QjNWzCsfSMhZW8dwRvTM5qQ/Tx5MxDS2mlp3+3PnbnQ8/lPG4ZjX+4t7Qoh2zYuH9DvpGmHUiRk2L8X91z6+Sf3CvnByxinww0pByIqhUgIAg0ErWwhPUtgEd4ChNDoCECJZlnZQwd1iCcISNdNJBsGEnLcCBbyZn09zpLVnf6w/PCwy//61OhTzq1O/Sruu4dVq1bxU1d+3v2nPTWD5WzP1cgb7KyLIuJJd1wNOVgeIegvAqJZZCAFIMTqjwORHtGgkRzDZJHkcqLqumrk97iQpClyeNfOLxzx6KOjBl7xdvHFp9an+/h7j5keWltZM1PILbjUGQgG7HRMWyGEhqdZSMcgPlofg3TM4QYhS9euFec+8/gpG+ToeFdh/nlcdo6zuq4eSS4prRBCo3k0NQcvSMfQn00w6Ue8ZiKtsqrMr3EPX33G2U8UX3550qLUxkgIsW2/is3xZ7dnOqajQsgjX63Nv+eBp4ZnICQ9T57UNSF2JCSQ08UURCaZ3jFw6K2xbSfpmA4bCVno+Xzt+hHYm3fzbw1CBj2z6NhXv/0KIOQvrMPhgpQJ6U9iGEhkqJYAXtS2eu/+G6RE14qE2BCCEegyaQrHhhBNNZHJ80jjQTiIkENVdK669pfsqvp591z2j5LrLrggmp5bae+9XPvYktz3Pv32r5Umc31Wpy59+WyvFDcR4gUJqTI0OZMQA+kmcD9lTSRzWgOEQAkxQAhnQudUAYVjUeRyicjJIyO8e/tWvbL02RMLOv/743kTQFB7oA5Zrf56ACG/VNXO4UL5f7WFqW2NhHCGpTGwIEQgXXTXLx1wSp/DyjH1+S++yJn36ouXl/LoVtbnPxaJDjYmy6S5oN2dmTzXWnG2adl5Y3qLjne71xbdkakg5HA5kaorJGXjMhgU2blra64hzrpnzM0vXNOzZ6sg9KIFC3K+Xlc6OwMhrbhQTTYlEDL/6RGaL39ou0ZCykvf7skx0zMluslGQjIQ0qZRDQ6a72/ZNcL05N4sBUJ57ZaOOQQjIWfdN+GkH2v23MPnBc7jRMlBIASsr00TCazQYFkOUZCWIIS08GOgLwlG+0CIySMDGmo5nahOjRPdiFNTY7is8uMeCN0/5y//XNU/zakMGASzVnyS/dx77572S3nVTVJu4Tk5+UU+g+UZ8ASByAzpkUR0L7QhocFiJIMmhKVZFQAsSWcRGK2BSyp0T5WVCOK0WI1aVrqii4t/4rYBN307uH/7aFnOHDM99E1V/RwmlAuREG8qkZBmIWTH+pJ/nHziv54ed8PmNt00B/lNUBUzbNGDnT9Y99OIKqdjMBfw50UVHblcbgjbNYBIWyEExrydjkmEEIAbJaIhn8+H4koM6XIc5bCiqZVV/BLS2enT75z030sKC1vVaiADIakPngyEpH4OE/dwWEVCCpkjX/1m0bC0lCGm9zS2fW8EQjbvHGl688b+liAEjMqWLH3u7BqnMEnIC/TjREnSLaMuUh1kRUKIWReD94EQ+tCGNva0fJQnglQqToXmKjyG0l4WKQpGUnY2qtdkxHMMZiPhWmdd5MUrju77wCODBq1v+5Vr/p1Ll64Vp33w4rHb4vHrzGzfZbzX1wkJTg5a2QOA8KJImpCp0Oae4xCvM0SYGuN12ryR0REYr0k6QrxOqxYAnlikyXt2b/s+n0ePjPvngNfG9e/dbhU9BEL21M9mAgRCGqpj2pKOaSESsuzv/foWPzv2+k3pPv/tsb+1a9eKg5946IwdRvR2NTf3LDEUdNbXyygnJwfJ8RiCqpCmmpCmEZHmGtiR6BIGUbXdEJDEPmgqxhJhA4R4PB4SCTHkOHJqKM6HI5/nqdz0m666qtWVJxkISX2EHCQIiaGKsrd7sGhaJhJywEjI6zeE3b4xOOVIiCXCs/LiIMqDFSFj6Kh+x+YNIS4+saNCyHubdo3C/tAYyZ/bJBKik06qxIIc5PFQuGqCQDO5LrqkFwnDIy4ai2mHWCSkeNUqR8mKkr/sZozxQn7gREaSBLAhJ+WJFoQQvwyrRJmU3lrIDGWDpHQQ+sFYEAL5cvAWbUjHgLgE00gI6xBRWFeQg+MMrbJiqzcmL7rl4j8/Pb7/JVWpP5Ia9wAr5hNG3FpYGRevrjDw1Z6u3XoxDrcY0zHjyfKgmuo9yOv1ofpIGDGSQEoieYNGf2Rep8JUyP0DhIBHio6RAA34kGaqkdod6p7yJd18rn8/+MCUTcn2CmnL94PeMesq4rOQL/dyZyDg1VmWVO6ACNiujmGRTq6BXboLqaNGnxazIZVGZMRQ4QM6F2wgMVYXj2zf9PJlp/f51+ECIavWrs0au3D+gJ1Iv5PtlHcU48ph4jEViYJAymjtlEziuU4GQsj4BQQhpbhWsa6V3oF/gzopsOkHd1xSLmvoiKuP7XGF5Zc6M9KDH8yaBaLq1mSA0MGEkI5aoksgZN5TIzU/pGPy89JSogvl7ibowhASoC1UOJqBkGQeXvPe+sx//9JXB4fdvrE4kNO5LZoQEFwR8LcrAQiEmORnMKBidR3t2b5xQ76gdFwI2bJztOkNjXH483Ib0jEstGsHn5AWIITVqQgT7BgYaCNONRQc0hBmDTKZA4SA34YQl2Pq1g2HlDB1zttvux9e+dI/a53izWIweAwj8jxACNGEYEhV0O9jh+qaf9KyBFIAUIjlOfReQXAOSLKdqENU00CCy4FkNY5yeE4Jb97+dWdBWjC4/yVv3J5mPUjxW5/5H178n4v07MBN2Ok5WQoGXSrDIcXqCwLVMCykjXToA4JonxjdRODHpmCDfHdOEJChaYjRNOSCsmJVxZKp1Nbt2vJ6QERPTh9861cD+yXvC5HMfdx0m9PGFft/rKifg/y5VziDuR6Vg3byUA4Nw5FGZjisk7EHKSb4NyIgJuWltMIHfEEgfqPrOtG/mLqMXIaOHPH6eP3mX5ddevJpxc/ecehHQgAsL7jn9m4/VFeN1UKea4XcUCCqGUjUGZImI3ca3IcJ1TG2lulAFTOkMR25fwE3bMtfOuYhVYdYHsWtEmCRY5ETm1jeWbojZDCP3HLlDU8P69u31RANDs3flJfNijuDV3OeQDak2lLxCSFjFjjKUEhECLR+vK6BbfsnQSx3SJ+Qhat/Lpj46JMj0gMh1t0HEIJhIWJDSDyGKkrf6S7w0yY+Pjnp3kBtud//r9+TUjomZQhhYaqkL1hJkVw50WntCyFFgjIxr4OmY97bvGuM6QuObh5CLLMy4s+QEAmxIARWzVDGiSwVfYsQsm39skPJrGzBG2/kzF65dFA02z2KD/mPZHiOS4QQ8PcgEGINkOZ6btghboAQMobI2hEjaHsPs7wGMON2IEWTkalryCfw0fD6LW8d5Qnef/Gf/vx1Oktb5y39zLnw7VdOrDTFG8OM+Nei7r38Ed1kFA463RpkouE5lqRaAELI8XIcwibtEaPpOgUT8A7RNYR0DbkEFuNwjepQ4j/wsZpFPTvlrXx78vjK1q5+W/uQAQj5X0XtdCFUOJDzBX0EQqBaCVZoxKkWIIQCMMIiBUciHAbHWisKYo1XKEmCzIIuR1E2CCuV+nh02+aSK07/432Lxv7zkE/HLMWYmz/htlPW69FpbH7wNF2UJEU3kIdzI1NXkWaF5ZpCyIEAxL4m0BqJdEQGsCPwjEnFFAiryXIM7PlVGQksg7KwoSrbS38qQNz8uy4Z+N+B/VtvUAclul9srZsNEMJ4/Nlwz2UgpHV3SNohxAL3DIS07jqQrTMQ0oaT1uQtf57xqO+jXzaP/q1ByPxVr3jnlfz3pqjHM0II+rsijuFoyJ9GQpKFECiSgcmRLByJkyo81aHkhJqeMQ4OaZoGHWmxpGg1uLR0ycCTznjgkavT18EVmtOdeNP4zhvq6q/V3YFB3k7du2LeIegsjwBCAIbgJUL6BY7X0EhaA+za7cZnmtkIJpCCZAwVueBUhGtK60q3r+yWk71oYNG0H4uLrSdW6kOvxT2AJuTb8rKJXCD/GmdefkhleQTfhaAeib4ROTCNilit5m0IIZoGUuXBIgMziIO+OCA2VmWUzZrYEauP7dmybul5x5047b/3DDvkIeSpTz7Jvn/5C1dUOLhJTNDfU4Gu1iZCObwb6ZqCdECFhBQKjQLtqxFp6WTbjqlUzwRnjWpEYHzAEo0Ft19VpmJlWYnIW3e+dXSWZ+6MP//9m7aIqolPyNaa2YozNwMhbbyHMhDSxhPXwtsykZD0ns9W741AyM+bxpj+0KjfUiQEGoE99OpLw/TcwAjW7+2EWQZiOzS9kiSEkGe1VR0Dy3KAEDpBWiXgCCMwk5IEDrGmacZ3l2+TausfG3TxxYvvv+SqVoeyW7q4E/79mu/511f2j7k9N7Ge3DNFTzArqhgICQ5k8izSrD43kOuFihewoye4ZDXWI11+wRUTBLUQOTANxBoq5nQlWr9r56ceBi/ue0yXd16fOLKm1QOsDW84edT0wNo91XdwvsAgVyg/T+F4ZEA6BkjPTgFakyaHBfIJcJ5pZMqCEJMmGBiGGrJhU0NuxsRiPByp3PBryQldQrO+un/yBiJ2OERfkIq5aOo9R62tqhitBHOulh2Sj3O6CSnzGnHUR6pJdVttjYSAzoba2tPmiqTc1xq/pGcQjF24HwwDo/r6ar5qz5Kzuvd66D+3TNjWlogYQMjnW2pmyq7ca9srEsJpaoe2bc9ASHpv2AyEpPd8tnpvBxNCrujXe+qS0emvCGn1l/7/byh+6y3/wuXPDzfyQiM4v7cQ9KM2hJAVINi2HyAdY0MI+fyGuczWyUDugEGypqJspwOxiqrVb9/5dVDV51/xl/5vzr3gurT4g6zCmB9z460n7DCNwZoz+7Kcgs75islD1xQwBUEGiIgtl1c4RIiEQLoINBMwAUH0x66EIP06TEz1FrpisrKyS6uvfqlbIPDCHwuP/HnBmIvUtkw8rbk+MPH2HDsjuKs+Ol7y+q+XfIFclQhTqYeL/bJPN0kbEBM5gBCrqSBEQkzaeBBZEGKYOhJNFUt6LBIp3f7yEVn+uaGAun7V5MlGS98JjqXpsZeUlLA/DxiAi5n2jwgtXLNGmPPkI38Ku6ViriDUJ8YxAis6CYQwskF8Z0AT0hRCWnO+CYxaELKX3wimMK5jE7lFEeF43DCqqzcXYv6Rq847+/lJ517eJpM9AiGba2fI7hBASE660zEQ0ANNiFZV/nFIj83oiLbtGQhp3Qg/0NYpQ8jckpU3RFxeqI5pvTA1owlBv1UImf7e8sBDL708wszPH8n6PfkmA8WpVjWMBSEQHbAb2DWnCWkKIQ1mTyztaAoP9VgshnxuNzJq6+XYjt2vnVp4xKwhd6VP6DXq2eWBZ5e9NiCWkzXC27Xb0YboFhHvQIZqIF50kHA96CTsih7QPkEaw04j2RVBpO07PMENnarjDVVXI+GNoWxnCavKqwWslJ7Qq2f8KI9f5UXaFUvgWKZeVRmeZRmdYxlBBVGVweosQ3/HsgyvaQxHOow1vgzexJxpYlIzjCTECzm4TpERkhzo3U+/EHdGajvVycZQ3uO70JHtyYbqGLgSNhLYAEIrlCBCQsWZpAEf8duizffI5AowCVoR0MUYMnaauixXlb/l4dDTQZHd4uAZldUN3PvI36Hqulq2a+fOzDc/r+UMRmGVepkct4AEFNNlrMXj2CWxhqDFo5f0P3XP+GuvjbUnlF0wbpx/A6sMqkTabVJeqAi53Eg1QA/DIhHxSNdVWizUJBLSAGog1rUM91p+ENPzZKdjqMCXCnvh94qiIL8nB8l7auT4jp2fdHe6Hxx0wWWr2iqqHlD8SNaHZTtmxJ2h6wBCsNXBua0N7JoKUzMQ0toGdnaDQMi97i1MxZVl7/bguakZYep+MAY0IRaEQHVMp1ZXx2QghELIL5vHmt7gKEcgL7RvdUxahKlRdev6ZVec3nvaoRIJAQh54MWXRzMF+SMYX04uhj4cTSCElhhTR8mWIMT+FyhbhhdYoMOD0YYQLR5DXocTy+VVYXVX+fOXntpv7nNDxmw5EJ0n8++wUj/2+lt/t642Mt7dpcslzvzcgMG7UCyuIYETaTdNW7hoBWsohIDQE+zoQYxNS5JZjiHVTFjXkChA8zrDjEXrqxkt/q1b4HcgVVYNJa7zmm5ILIt1XWYUWWXACt5kWIZnOA6zHMdizBFtI+AbA0dIuuuwDMYMdOYxMTYZxjAwxqSemUU89EFlNBNj7JDYunCE9RQV+RST6yc6XYWs6GAhDQPHSgNOcPyJZwcgi4pSKYTQklxasgslqAAv8G8Y8ayJRFPTo5UVWxy68g2ra3s4hsPI0FkHx7OarrEMyzMGizlssqwkSIwuq8ghOhBmFBPDyZGjET1Ss/64Tp1W3fDAlI0DGWje0j6vfpPG/36zFrs7KrGX8h6vg5EkBFkRjuGs7wfxn5YjIQQoDgQhQN9QWQPnyNKT0G7KHPm9Eo8hX5YbyeVVdVpZ1cvH+YPzxvQ+5deBAwe26XsTCCnfOT3uCA7KQEjbxk1jJKRgSOqOqRkISVckJAMhbRvPv1kIKV65Mvj4qy+O0fNyh/N+TwiexXZqwk7HJAMhpGM8PMShOgPjBgiBFAgHmgtFRlkwbdaES8Xa+icu63faYw9eNaS8jZdrr7eBIPWIa8aevEvjp7m6FPUT/H5HjNRcckjiJKTpCoEQItMEQyvo6mtCbEegehAI60O6xqqeMQwNGaaGHAJP9AaRSNgQWSYai9brHMakQgJKfAUWqmpILQ3SOY7gBUP+o7YVJD5BzotVNsRihoUPJIkhOB4DkIPMeZD2qo+EGWdWFg6H6xkpKweLLjdnMoxblJycbrciBxEqARAbRuipINMwSSnRfidQWk8gBaIhAIUMg1QdnNcYJIgckhiMYzV7NIepxTkTGwYcl8kwPECYpjPgmyG6HEjXTMbUDCRxItH5qLqKBVbHWqy2zqHGvgxg5tEXJ8z7/NhjGTUd17LpPsa88Yb09jv/vWiHoRV7juh8vCk6GBl6/ogOAllKREaSU0Q6Ka2mJbpNK2JaAyHgNQKmdTR6BIOXJ5VepqajLJYz5fKqUr9pPnFGj+Mef3JI28fv+XPmuL/bVD097gwBhHjaKxKilJeuzsPyzI6djml/COnOommTFt33bXvCdnvcP63ZZ8oQMvulFTfIOcGxusfdCUsS6R0DDyreoDlhE2rHrZUSLFZJzw9bOJhkJKRu5+YNIRSZWMj36nCOqRAJWbV241jkzx3lDOaHNASrLQM5wIMAGkdYZl1W3LfRrKx1JbpRZeuvy/5++omHTCQEIOTRV/49FhcVDuN8OSGIhCSW6MLkuL90DDhNkpW5FSkhkyuMMxYTnQVMjrAFI2so6HCZ8W27fhHr6uf/9cwLSh665ppW9dto6YYCCOl+5a2n70L8LH+PHicrDpHTGZ6sYklzOqicTvDOsCdx0pgOphhygODnQk2ARZEnERxVidP+OaLdd4XqSOwXES4CQwAUsGJTMCI/N41W0LNF7z37T4hOQHmo3TqeGo/R1Ts5NrJ/KyHWAoSQVIt1HydCCGs5ywHEkOtqnQu4/3msI1Gn+heFgBhHSn+BRzDplgxRABptIOZ8cDwclO0riFMjslxZ+k0+xtNKbpv5fntByMWzi/O/37Hz1mqBHeI/ootXMUxSFeNyuJAuK8T/hEAH6Xe0t09Iqx7AFtSRZ6It7KU2N+QagobIjbEW3bH7f0GDmT/oTxeuuPPSS8Ot+YzEbQFCvtlYNU1x5V7PegOedGhCIE4GPiEAzuATwqmKolSUrc5j1Bl3DL38k2F9+3Yol+uFq9cU3PPkyyOiLt8QR0FBfmpmZc1HQriIHDMrSt/txaJpt2cgpOXhDumYgwEhNTs2bchF4UlFwjErOppt+8GEkIGnnjz1mZuv3tDWB1g630fSMf8pGYsLCwBCSDqmKYTsT5iaDIRAqa6oYeTSTKNuw+bVR2cH7r791DO+bGsou+n3xxhzR1x5+5m7TW6Wv2ePvpoksiq4PcDTuFkIgYmFt8ovGyEEKiPgPzC/AnBRVZX2zxEE8lCnL6rJaPyZ/t7WzJBQEEAG2d6GDeutVuXQXr+3TcUAcq3wiY05AHD2i7NazZM0i2UqSD+rEWaagxDQTUDEANgJeuNAt1YARHgnAwZyukH0Iw2lvzAJczRqBCeBMbmGyBHEt2BGZrGMODVsqOW7v80z8eSpt818f2A7RUL+cOuY3ltjdQ/wRQVnOEIBVtUMarzGS8g0DAKJHAeVTySJuE8UJNl7BbQf1HCQXk8CdZY7MGtg5HU4kFK5J16/aevbvXzBKXf2O+uHVMbvJcULXZ/v3jRNducNzkBIsldp7+3mr15TMOXxF0fI2cEhzsLC9oSQ93qxaGoGQvZznQiEvPjfG2VPaEx7RkIaISS24ptFizoUVVuakJtNb3Bke0dCDjkIeWHpaLOwANIxeZCOAQixS3QPVB2TCCEUVqzyXtZsiISA4242xyO9skbXd1asOPfoEya9dNttaesXAxDS7arbzyrXhVm+nt37qA6BAQhhWb4BQhoMvKzKEaoHgbUjhRAMxt0QkbC8JUADQ8p1TdpbhkIHbSFMV8rUtI78HgSvMEHDLGapQlkiaGyEEDq5NYWShJ+tiCVEImzeSYQQsrxNiKzAJ9pQBKWjBEWaiYQAhBBHVUj+gPcLpFtYWj0D14UDN1/4d5ZW1xBZMjkfdhSAp6kdUuprkGIb1owjXq03tbLSbwuwds/yW+d90B6RkKuLi3N+iO25tJJDM/jc3CJNoBEpXdVBDEx0SsR7RoDeRVTLkaw52b4guzdM2hBCxoOJUQ4vYKOypkYKx547r/cpcx4fNGhX26ZO+i4CIbs2TZGz8m5gvQFvJhLS+rO5cM3PBXc98MyIeFagvSMhGQg50OVJgBBIxxS1VzqmZsemjblsdFIRF/lvR4OQAcVP+t/cvA6Eqb8pCIES3UdLnh1tFuSP4HyePOJ71QYIsYWpACEwiZmgc7TSMayJUcjpRvKushjeXfP8eb2Pu2/JiFtTeogn3hMAIV2vvO3sctMxO9Cz+4mKKCKVgcocntixQ54/GQjhOOoTAv/BBEe0BKSXCBTAWqWukCaxgYRigdWrRUeIgQndioRYv6fVrTRNYIf2bcdT+2eSbgH6o7mXhpU4/AUEvvAiUZ2EVyKEEGdjC16IwMQSpoKLbyKEmCxGOgf6EMpLsEcedk/6rrAUYixtBUTMkyZQAAAgAElEQVRNYEecyVuREHAOxcjgAWBkJChhQyvb+U2haU5uLwj52+wpPX6qrpxUZmhXert0doY1DQnEyRaE0gjxPDRGVBDDN5ittxlC4CpTMY/NktRnBb4zpGKyGc5QSyt/cUeUBRefdErJA4MHp9S4cMC8ec7315VNUd15N7YrhFSWfZRvyjNuH/73TztcOsaCEDknOFRKuXfMftMx7x0lcNPueGzyNxlNSAs08vB7XwamPr/sBtkTykDIgYithX8nELLpl5tNX2jEbykSAhDy2LIlI4283BGcz1uQLgiB1TZ1XgWDJ4w84PRZuaeUr6hb9Mffn/jQktGj2+Sv0NzlIxDyj1v7lzOu2YGjuvdWeAEpiEUsxyPGAACwNCGs1ViPNN6z0jGk4gQAQacRD8MkIX4eUhEwKVkaEOj9Y78aCy0a0yGYMWj3XYAQSLE0/dPCCxszEv+kkQaoxLH1CPS8kehGQxaIwknDzwkaBopCdHvbR8SeTKHxnh2ggWsCPUrsMl9aIWTrVmjTPjgPRKNCPp9GQGxHVgohACcy4pR6wyzb9XWRrhcvG//AqnRHQsbNm+f8pKL0rJ9ryouzunQ6RfB4Ub0cR5JAtTcQZeIFlnS1pbC4ryA12UcBgWbSFBCugeWxkqAvAQhhIzEVVdW8183hmXZBnz5rigcOTEmIa0HIv1R33pAMhCR7pfbezk7HKDmhoY6CghQb2O0XQt4/SuCmZiBkP9fpoEIIE7mriI++0iEjIQcDQrasf3ngaSdNO1Q0IeCY+sB/Xxhh5OeN4Hw5heCY2pZICAhT7XSMHQmhOXUQMhrIzznQnnUb13binHMvPvGIkrnX3Z4WkzI6IWGu05U3n12FXXP8R/XsLQsCUi0IIc6oMHlaDRltp1ESsQBLbsv8izQdTIiEAITQWd0kotDEJn50FkyITFhlnfuDEKrCsO3S9r6ZSWrEKqVtAJ0EDzCaJmmSykn4fNpHxrLat77PvhBCO4OSlAx8dVCxEOE6rZ4hq36osmXAeRS2pXbwBEJINIRGQjQeYl5xxMlhXS/d/lVXnSl++fa5H6UbQq57bF7ROz98Pyzmcg1x5ObmC9lZKKaqVqk4aFx0xPJgWm/pZgBCEkCxNdMaFezTVE9TCAHAkTDG8fI9dUJt3ZLz/3DK/c8NG7a9NftvbluAkA/WlRYr7vyhGQhp29mEdMzkBUtG1Dk8Q11FRRkIadtpbHhXStUxBEKeW36j7A2CJqRd0zH5KHp3gRBZ3iEhZOO6W0x/ECIhwXarjjkEIWTeq/8ZZuaGRvA+D7FtbwuEQNMYWlQAy0bayZVMesggEJLnyEYbP//68xMC+fdOPPnMVamI+preawRCBtx8dgXvmBM4uldvmeOQApOnICBOp+kQSEXABEt6+jZM+tR3w44u2LbtsH+IitDUjBUhITXIiSCwNxTARE1fdnpm77SM/XtwC2n2RdI1jftsulWiOBjeD9+DfFqDipValoOhWaKZGVnFk20oWFAQoQBGIYMamlEYMxFmNSsaQs8Tb4ImhEIInD2Ng8iSgni5Xtd37/iiEzb/9Z+Rcz7q25dJm0ZsFV7FT5n23sk/lZfdzQSD5ziCfjGiaoiFSjWD5I9I2gigiRFAlwNN50BE28K5PcDDmUAzROoSIMQ+v3BORcPERnV4Hbends61/c9fPmvgwLoUn/fo7OJix/92xYoVd95Q1hfwtZsmpAOnYyASMvOpZSMjTi9oQjIQkuKgTCeEQIkualWJrhU2Jw9f0kWXo6HlJl10QRMCEHJ615xXSoqLUwpHpni+0v52Kx0zzvTmDScQwghNSnRhpQjPP5hs4AFOA+qmVaJLlfUH7KIbVQ4xCCle9Yr30RdKbjLzgiNZr7cL4ljSRbehdwyybNutM57oj0XOgDWDM5DKoJYXNFBgpUBg9QziR0lWzNoNm9/p1/nIuz4onv5tOi9gA4SI7jmBo47sHeVYpGIe8byAWGJ6QnMSMMmCiJP2tqHAQCbkhMmclKGyDPEAIc3sDB2xAo+QSbvr0ldTGIHJnI6L/b0a309PkO1sSozSrA6uDdU1e0VOAAgaOxk3hRDw77DLeUFgaoOODVt0QqVuqgAhVEwM0AipFutiWZEfEOja+hn4HAIx8N0wB/ZzSIMAEVaRoIY1rXTnF4Wa8a+lY2atTieEjHr22cDKrz+6qoZBo7M7dzqSdWWx4WgEOd1ZSNU1xFqQqxoqEiRwTNURuHm0BCG22Lila9OQjrHHgdXEkAagDCQZjFG3ZesHx+d3vuv8M//0XTq6PhMI2R2drLjyh7UXhLCqIquVZatBE3LN+Sd+lmoKKZ33bDr2dctzywoWrVg9UsjvMoQPhVKHEHJjmXs5pkKJLiov/eBIkZuSScfs56o1iYSkEUKo6RFpF65pqG731o1Bo/6eP3bzLO+IEPL6hl/HcaH84YI3SCAEShShhsLEYAttezZQoZ4NIXaYn6ywk4KQdS9ffuZJU58fde3GdNyIqe5jwRtv5Mx+9aXrIx73KEduoIfBcmAJgViOQhgx9rLKFonFltVhlwAqiSjQI6CTG+3aakMITOYgGRRME/GRqKLvLHvluMLce9+9Z05ay5MJhAwcc1Y5657rP7pnb0UETQiPWPC9gOwCidHQAwWzMVLNAiWr0DOGpCZgsm3so0qqLFrQcJCdNNcuhcDp3q+WWsLZkYpEoWrDOwFOLFFoYrUN+VgrokGgyfo+ACD2C/ZLoarRWZX4hJDSYKr5IFEhq7qnESgbK23IxW/wFaJdesn1JGUxDCmEhZ46vCZr8s5tX+YacvHyMfenDULAW/bCWVOO/6GydJzmcl0mZHuyeZeDiUajSJBE4mGiIx384Uh6CDQ8kC4jupW9HGSTuzNsJ1UW+gtZWiDwi5FlGXk92QjLMsLhaB1buef503scNbvklgkpp2LgyK4vXuxYsfvnexRn7gjel+cDIbdOrhP1hAHNEvWggecKbQppXz9yfaAnEnk13m+2TwhUcxNBtKrIWkXp6lxTmXF9B4SQPkMnFWyKGCN1b2BI6sJUK3IJEGJSWCdtG8LRGK4o/aAnz0y9c+F9azLC1BbuqwQIsYWpKURCeLISpJGQRAgxUN3uzR0WQi6b/nDg7V+2juMCRcM4nz9oIIk8dPeFENuxkiwJG7QGSUPI5l+WXf7Hk6ccKhBSvGpp1tMvv35Vvds1xpEXPNpgOR5uQIAQUoUAD0XLrB2ea0TYSAyc7HA9fQxqLMCaVcZKzgwDGRryXsnQkVZdVcOWVz5//jHHzlpy691pq4whEySU6A4cc1Ypcs/1/a5nb5lACItYMOzTwZSL6jtI23tafNrQa0WDJzbRrTQ1FktuErO3IsLGhJedJmk6MSYCSOL2NswRQ1WIsME5Tyj5bdzWbjXffGqo0dqdCm5JhA6STjasJICIbYTWmL6xzQ1paoYaHIKY167XBS8T0JDoSFRkPb5729dBQ74nnRAya8WK7Kc+fOvyGoEfLfgDf9BYRnBlZ6P6+joKIVDhA9+lCYQ01dQke/Ua7dxpNZSqyignJwfFlCjCmoZE3UBKefUvXtWcek7vo1Y+feOdbTYoSzwmAiE7f7lbceeN4H0hfzoghDRC1hXS0O+3ACG9R99RuLmaH2n4vDelDUJgQQW9YzIQkuwtRLc7aBCya9PGII7e+8eu2cs6WiTkYELIwH6nHjJmZcUrV7qef2/F5ZUcN85RGDrO5HgBbkCGpU6pHAYXTWseok1O9oEQujKz01WWmZcFIfBcdJgG0srLdzsikQfPOarX4sVjJ1W2boTvf2sbQiqRa6736CN7xyUBxSHZwEqI1TDiGzreEAUILZkFt1RSLUKPty2r6MSjsidy+3f2/lqCkMTtadrEjr7srSWhcNNElNrkdNjfibKCHQWhV83+/EQIsdNCNBPTuH+iATFghU1TRRRC6PmiF51CCDitCmpMl3dtW+M31bvTCSEX3X13j++qt9/M5+X/k/P5gqphMiZxr5UJhIBuxgABrSUWJgJVht9H2Jvs+LIhROQlEnkIR+uR5HQg09CQWxAQr2pqZPvu947JCd5x3n0zf0lX1+AMhCR7hVrejkBIFTfK8PtubF8IKVvVk0dTMpGQ/VyzgwYhuzdtCprRezoshPy87VYuCPbl/kB7RkIOKQhZtdjxwopPLixl2Nudhbl9MS+I4CWBwOiLdCrdP4SA4ZVthkU1M5YwEiY3Kw0AkZDYzl0bizjx7pODXd94+s70rCbtWwIgpMeAm88uZxxzAEJiIk8iIRwnQOc2xDcs9S2dkxW2h+MlaSS74Vsbn4tNASRx8m8NhDT38XvpSPZzfHZ6xvYPSdSFwNsAQhrgw9K2NIpyqc8IhSEKIST1Zvmr2BBCe7AwJB0jqDEjvnvLN3m6dtfSsfPSIkwFIF7+3usXVXPMLWJe6CRFECQNjNTIfwYSBGqoBhBCRMQ0FglqEMQ0CINbdxHtqieJl4hDLifxRHeiawrySg4U211ewe8JLzq54IgHVxYXV7Vu7y1vDRDy6q6f75Jd+SMzkZC2ndU/DL+raGutOTIDIW07f03flS5hajunYzZtChrhe//YzfNyh4yEtD+ExJTNv7x8KEHIwjVrhIdefPL0rao20VWUdxaSJEkj5hE0EgKpDNvYikzh1qRta0JsnwkQLZIXlI6CcBAmBqIfMEk6Jrxlyw9FomPc7049d3VJGzuPtnSrNUKIc6736B4nyAKPZEjH8BRCYJJqiOU0OKZS+LA1IbYdettv570jKnv3jNl3r4lAkKj1aFZvkvB2u4tuUxFsojbkQN8BAIU6otLzAr4goLQgol1LYAu/IYZldhWO5cMBmRAea0gkELL526Cm3lVyywMfpkOYesGkSQVrK3YOi4jsUO+RPfLjDGKgV4zD4SRdbPeGEBp5Ax8X6ueyrybnQOeBfHfLKl9kBOK+yrtEpJsGgRCnYSBlR/mPnR2OO76f+dC7DNOcGCiZT9l3mwyEtO28Jb6LQEgdHmV4fTdK+Xm5qfWOaYwI7pOOqSz98EiRnzLh0clfZzQhLVw3yyfkJsu2HUp0064JQaqO6ks3d2wIWbv1Ni5UNLQdIyGHHISAELDn6Bt6l2HzHlfXoguQJDkTIUQAARz0pLemo2QhpCG5YBrIoeuoev2Gz07p3HXsqntnfpP642fvPQCEdB84/k8ViJ/t7dXzBFmkEAIpJZikQOhHTb3pap+u+uk3SjT3OhA47O+4bU1IS1qQpu/dVxsC1StW+mSfua7RX2QfCLF2RBv17j9tQzelAEKiHVbkCpxekdUEl0ZCoGrIav1rhXKgfwqog2DS5rGBRDUCkZDvgpoyKR0QsnjVKscDr/zntHpeuEX3uM7lA35XraLRZnog0IQePiJU/kD1AtWEkG9hYuIdQoSzbXjZECIYHJJcDlQTDYOXPZI4DnHReJgt3/NaJ1Ys/mreI2lrMwCHeTAhJKTHZw6+sO+nHa065vib7ui0LcqNMrz+GzIQ0obB3+QtqUdCnl92UCAkoNdPPusIb0lHi4RcMndh8L0f1t/GBzoBhPjbKR0TkzevW/aPfqdMOVTMymAc3vDcU72WfvbRve4uRX9DTodLhQoKnq4siahTBxtzq9CzSSSECh8bu8uSdAApN6WrTKg6cRq6Ie8qfb9XwHfL6ntm/5L67bIvhBzxj/HnViLXLO9R3f8QEzkkQ0MyaEQHk6cFIaBxIOW5yLQ0BKCCb9ROpAYh9Jia7qOldIz9DRIjInZVTiNMNAcVjZUs9CTTc00+x66CobMz+X2j/qPxfRDlaHIGkcnSinvWBEdShsAZ9S2h2MOCDANqnQiEaIjXInp89+bv8nR9UjrSMdNXvxFa9ELJNWqWe6SY6+9ejxAbNwzk9fmRrmlIleUECIHwFnV7JYAM+pAUIcRUTOTOdqN6OYYggCYxDI7tLN3irq6fdnpRz6UlxcWRdI7bgwYhlWUfhbTYrI4IIb8feVfnXXvwKM3nG9yuEFJR9tGREndfJhKynzvgYEZCAEL65Bgvv/nQQ0o6b8r/630RCPl+w3g+WDTktwYhNy154oj/fPrxPdldiwZglyOrKYSQMkhr4moaCWkKIdD+3V7lk4602EROVYvHdux487i8Lnd8cM/UTem+1kSYOmD8+VWMe6an1xHHx6E6BlbPBEKgh4wtnKUxALs1O/wd0jENk3iDo6kdeUjtTyoG3de0jE7ujb9v8AvZiw1sAGkKIk0ghPBG4xsbqn+ahRBaMZMILXYqyOQohDCmSLADIiF0t5BSsyGERiUEuK5aRI3t3vZNAMl3Lxs1/+NU0jFL164V5z752PHr6/aMFPNzLxP9Xm+c41Hc1FCWw03SekpcJnBAypDx3hDCMbxVmdX6kWVHQhychMCLhHXwyOkQkRkJy7Wbt3/wO09w6rfT53+ZzlQMHOVBE6Z2dAipMUdrXv/17QghcVxR+lEPgblv4uP3fZVJx7Rwjy1ctSY4+dmlN0az/GNQwFNkQOtxRkACKyCkWCtBonSnPSmIAM0q2QOzKXjY2L0qIBzbXIkulDrW7tq4KaDVFffxmCUdEkK+W387H+p0U3tBCB+Lx5Qtvy67rN8pU164+eq0emW0/vHb+I7hzz5b9PzH79wpFeVdI3o9XuwQGNk0kU6qY1gSTYCQt73wto3IbNMvOxICuXkDQ5wBI1EUSV5dgjeFw7Xm7oq3flcUnPDB3fdvS+VYm3vvKoz5G6+ZdGEFdkzL7tbpOFWSGBncLzkeiWA6ZhjW2Lf0A+CyYM3tDeJMEGGCCydE+qHTrAHbYiQIEpJhdcxDhKB1UEJiR1YPGdKNGCzGwZ0UbL8IqTWmWeD+ApdWaMjmdLmIPgFKUaEiBP4Oq/3E194RFogE0A6ye0MIfJLl+0FIh0OmTn01ROhIq6nI1FQkSjzCPC19xRp1U0WCQCZ7OCeSZfoGHhbgpSGAuVqsTpardnwpResml7zw6Kf9GbuWt/VXd+7KlcHH3lz5TznHNRplu3sYTolXeXBopSXeJCYH6lS7w29CugrSaqSS+QBGcU2Pyq6KsSEE6xi53W6k6ArKcUm4YtPm3Y6I+tC5Pbo/859b7ipv/bfa/ztsnxDVVTCc8wZTLtElpoDQ1Y/00sFkHDOaKmsdGEL6DL2zy+YwO6r9IWT36h4C+68MhOxnTGcgJPVHhBUJuYMPFt7E+QK+9kjHHKoQcvMLL+Q989GbNwt5oRs4T06uIbKMRoACVsEsKR+FyQCmQdqUjjaEs6MKdjSEtISHVbQ1eeqKTCGkrracrape1qdz92mv3lm8O/WrtfceQFw7Z86LF+82hOKsrkW/570enhUlFJdVZKgaASJiSW4dM4Vwug+AJqozgNU1OKXySMcGyWZA+gZqgziRR5qskp/BpO5Af1L7M+r3QTrjkkIh+Bz6s0ngg+4H9k9KY02YP1TECiJyZ2ehij01CHMsyvF6kKqbxBW0aVmvff6JhoM49loQYvEAtTanJbuaBTmg6xAYmNgxwuApoWmI4xEKy/XImeVGPBaQqtHmg5wAhm801cNpGEYCXFto6GvK4er6SNmO9wt4Zs7iJQ9801YIWbNmjTDqqaeO34HVMUbA+zfek+PRoLqJWM7A92EQYxiIJdRFr2GjrwkcmwXHrYQQewTZMCIJDsRgKkg1ozFFr675tJPkmHXvtcM/HHjssWl3hyYQsmvtvaq7ECAkZbOy3y6EMKM1b2BQO0dCPu4hMMUZCMlASLrnrr32d9H0BaEPf94OEHJju0LI1l+XDzijz5QlowelVeiWysmZuPzZwNPvrh6KQ57hTHZWJxXcvCWRQAg4bgKE2F4bRCVgRc5sx8/mIAQmMFhlS9hAWnXNNr6i6ukzi3o9XFJcvCeVY23uvddff73js0hW/wpDuI3L9R+t8pwT8SLDmJiBdIwoilg2FGxaLXEhFkHMrUyIDlLtgyhyWNFkxLMC0k0N/sQw4UUjcSw5BMRzAjihYJj0CMxA/SoIOkEzs58/eWp3R4IeGA4Is9hksIkxwzIs5ixHWgPCNSxAhCiiqKyzYlYWjuka58zO8SNekOyITWPprWU/T+JO5BtRKAQAsiAE+vbAv5HvSKw14MLSiiVeVzGnKxqjyrWmoWomo2EQKWMVOIlDLA+29RqLDB3zLGdyOoMZsHZneIZhsB4LV1XEq8veP75LwZIJj8xa39YwdfEbb+QsX7nysp1IH8fn+X4neHIEmTizQuCGJVEQQ9NBAtIEQii8NULI/kfVgazboRJMYCDqp2KmPlqG9tQ91dWd/dTnM+ZvT3cqBo70YEJIriHP7IiOqb1H3dV1K6RjPH6AkFA7VcdAOubj7hz/r0mLJn/Z1nGe7mdee+wvJWEqRELufbbkpliWb/TBSMec1d0HQq20rw7a48Qmu08CIb/suJMPAIT4ve0WCTkEIeTOpUs9L6x+/0rV4xrL+jxHydA61SGRdEwihJCwN/FpoOm7phBCVpUMWS2T1ALWNQIhSnnler+qP9i7c9biklvnx5O9Jslut3DhQmHhh98fs7kqei7jzc7XRMnB8zwjcBwDrX1UTccMiw0dgg8kG6KbPEAIdIAHPuAwZk0Nh8N1yO3ONqF/CjiZsQKHVVlFDqeEZVkF6CC1NaSRC7wfbFbB6hJIB8Ia+3nxLFTrELMO8Jo1WMZkMcPxDAMRBmSYum64nTnY5EUmqmicwglY53kf78451+X1HcdIkkgreWwh7YEghCR9LH0HtXKHKA5AiGjqiImHdTMS3mTK4Y+REtvJIE2DYyQN6wSOQTzDaIrGqbqMBKAsDWMTc1gHsQiHNIHT67IE/teL+v3uh0dHjKgFMkn2etnbLcWYe2j8+F6baqpGav7sgYzXE2Sz3Az0p9EAgFloGQH++rpVZk2b8NlVPokQAvtM9gAgYtQ0EgK/c/IcMmprVbms6juPos0defnVb95+wQVp6/aceH5IF92fS++VswqGtXckJAMhELo90OhosUQ3jst3f9KdR8WTFk3NQEhLN3kGQlr7+Nt3+8vmPJb7zg+bJ7DBwhs4n9/zW4IQMIn69/tvXriHY+505AdPVDjEGw6RaCkgHQNmXw0aCrifSTRk77A4gsZv4LnA8gRCiIQBG8hhYhTZuXttQNdnnvc74aVFwxalrdtq4lV8ZOmqrDc/+dC/O1ovGg6GNTSO9HjPQRLSdIAQHcM8ynI8ZjUNKxyPGRWssMASRcAIxVAWz+NTT+uHu3XrhjSDPrU0EIdYL4n8PQshBIUSTf9sbgzCNo0v1dn8k9CR8BkyxzGw9xXvfMas37W9QGH46yRf7rVOnz9XBwEmARHgoAT7dqsLLvkuVo8YiO6Q3iokVWOZjCEGOVgWSaaK9brqmFpd8Va2xDzZyedZ9/seXeO9unTFAWcujqAwMlWVJV8RXpEIcpMf3KjWMDGcE8aM6rwQU8eff368rZGCO1asyF727hsX15rGeHdB3vGKyIsGaFUEjpYIE7M8THp4UE0IpImgIzL5prQTsN05F8ZjEo+B5gCE7E1gEI7EkBCOV+HyqpeOzvE9PnLOg7+018qXQMgvuyfL7sKh7QohFaUf5prKrEwk5ECjo0UIkXH57o8zEHKAm4tAyJKlQ2JuP0RCCttbmNoRIyEEQn7cNJENFA3+rUEIaCoWLnvp1I2RmslZRQV/VEVW0AUeKYaOHLxEhKl2S3jqWLk3hNDJDyEdGoDxkMaBBT+02MIEQmq3bv0xqOv3DQ4e+UpxcfH+zSySmEha2qSYBBXoa3ILC+O2rNhTOKSU3nrkmImh7dXqEMkfGuUK5haqAHggcLUW8nsblNGvvi+EABRCIolqQUQSCZGxUVlRa4arXj716KPnnjxxyMZ02ZEn+4UxxuzJE249Zkc0Mprxef/u9HoDMawzCsCHCPZylggWIySCMMWkY4pCiCWetXpbkc9MEkKaOz4QDPMih/i4ool7omtdtfKCIeec/8q4yy6rTfb7tHY7CiGlxbK7ACDEm2rvmBY1IQAhWmzm9Red9HlH8wmBdMyWPcYY3Ru4rh3TMTKuKP2kO8MUT3ryvi/aC0pbO37aY/vU0zEZCEnpuhAI+X7TXWyo6HrO589pt0jIll9fGXBmn/sOJU0InLiL58077rPtv05x5oUu1B28pHIs0gwdOSUXhAP2ghCakmmMhMD7YdqwIQQcJ+F/sIKFvjFVGzd/d6zHN/mbqQteO5wgIKUBlYY397mtOPi/LeXDhWD+cE9BpyKFFZDGNkKI7SdCEyGWbwbEqUiqjKZjDExLpkkzP6h20lXkNnRs7CmtNeuqXvrLGafNembElVvTcLit2sW4efOcr2/b/NdyrE7K7lR4LGJYDkzydJZDBk/Vz7QcGPRIIOgFh1QqmCXBD4s3k42E2ALUxEhIwwEzJlJ1BbkNVKds3rXiGNH78IJrr/2+b9++7RK1g8/NQEirhkuzG2cgJPVzmLiHlCBkwerVoWlPrxwSywqMSiUSQgTpJoswyzXbRbd258bNPqN+8p86oCbkr9OeyHtv3bq7uEDh9YI3mK0xArSSbUUXXZAYkKYr5OEJnUZBuwh9LqAbLZh+8bFoLL51wytXnHbSlOdvufbX9A6h1PZ27ZInjnj3xx+KxaB/oO7gHXGMISWBXC4X0lWtoTqGfgrVg9AGaPQ3xBAMvicPttcabX7HUgip/nXj172yvHd/P/sRsL4+UFw0tS/Sgd592rhi/49lNROkYMEg0Z+bCwACuhAwWLNPIunebP3QYJRm6XUIhFgpGRZ6AQFMGgbyCQw295SGw7u3vHjRqafOeHHc4IMOIecUTzxqfU3tHYov+wrsdHhhvLCigBCkYsAsDWHEg1AUmAqqlYgeyRp3ZOxZkR87HWOlCPe6/FRATEcsiH9IwQ11gk2EETiHPDLMWFnl5mDUfHjkZf/89/j+/dPWJ6VBw50AACAASURBVKa5IdkIIXlDeW+u1+CgczIcGUvuJRbz1CkWFESWyR41oLNM6GjhsuU3Q31wmi3RzURC6LVuhSYEmiLC8w1YmIlEZVy5+9Pu6P+xdx1gVhVne+bMabeX7Sy9KGAkIqBiiRKNBcH2C3aNDSyJkcRYsF0LomgsGDXYoxEV1CgqiiWgEZCAIIiIdFjYXm89deZ/vjn3wop0dmFZz32efSh777nnfDNn5j3f937vK9ztZkJ2sLhyEPL8+1dnwgXX07C/w9ay7TCZ4V7clk4I1y3gNzUvoXMQgjFBVtZbHP7NNUVMG8U3rV4TMBtjg8NsSnvTCTlj3ONFny4ru1Mp7nQp9ocDVFS5JoIigmaEyesNjnhTthbN7eGdpzPOjwCPFeDswboHiya8X8DI5CRHyltVpUwynVy18t3/G9j/3n/dcmWbAiGjXn215O25X471lRReTgJ+H+iEaJaFJFVBJlhbO2IgSKJOeye0uMJGYUArL3A0Hb86BITPzfbo1EAeilD96tULDvYGb/nm4WdmuiBk11ESgJCFlfE7SbTkYl9BQX7O8ZcTVLPycVCSAa5tTq8sZ2nvZAxy5FQYG9Ehd8JcZDqStaZ0fN3yN4Yf2f++N8Zcu09ByKhJk6T/Ll/yf5sM7a5Qt669NczvIg7aoS0XwHxzZ+PmT2g/R7BOl0zulWvDZoBeNsvzI0Qth+gKWie8QRp0YeBDmII6KiLpTCqxoeyjrkr0sbFXjl7QGm25zUeeg5DlFTHNWzRKihSEuZEigI4sCIGuK4fo7ejVOIq4W0AIYj8FIXDdvEplanwdAh0a0AnRq8pnFtDUg1eecuTX7a4cc+VfuqxNK3+0whFejkkhCtZX3IhQIg6I27oraruPQJCBs00k8f4y4GFTXgakmbRuV236qiuid9/9/ANuOWZ7yxcHIS9MG5UJFV63RyAEGOf8BgAXTdhNMOJOqqD6QMXNIKSxfPXakN4QGxxBb7Y3EDJ0wlPFMxevulMp7nIpDgT9lHibgRDdsTFvBkIIhYUyB0JgAcH8KYtQJ5ZbQAjl7H4FNu5kU1pfv/7dc4/tf9/Lf7x8+a5vR63/zlGTJ+dPn/vFzaQwegX2eaNpw8Yge04UGSXNDLKhTo8dGXbgh8jQnYoRMgQBQRodNhAgsBJQKOVTiSJGLeRFGNWvXDW/ryd8y9d/e2qWC0J2fSyPuO2BvMUbGu4RosUX+PLzogBCcn43UKRw7tct5RcurA73L4iKCcCd2AJCgGDMN3cKIMREotaUSa5dPuWsgQPvnnzTVS0uILejqzzmjjsO3pCqv7dJwEN9HYr8wfwoqq6r5UCfm9E1617JZTK2f7wcDcjRZeGZgs1iZjn6keM1wDclaDknxBF/wyDIZyLRMG1WW7euUBCfPeO4oS+NHzq0ZtdHac/e6YCQTTHNW9LyIASmADxMNgMhdxxxwdzRo1uvvLRnUdi7T/XPghAzHLlU3QsQwgEvdPXZJpJ5JttGJqJIyoGQyk2zu4jo7qcm3f/1nurh7N2V7ptP73055oVpo/RQwfVWOFCy25mQ3QEhZuM9g0PsjfYIQv6zZOVdalFXACG+lgYhMmgzpOJpfcOG98495rB72xoIuW7KFP+0L/9znR30XC/nRTqlTBvLXg+U6lFjKo4En8ozPgBCIAsiZvXOLegv5bLotqNuSbdwE1wQsneLB4CQJWUN48S8Duep0Uh4b0EIbOg5ECLp8UxyzQ9Tzxo06K59CUIuefhh3+yyVSNrmTU22KljT9HrRZX1tVwobe9ASC7WW4OQLEiBDAhXlRW4D1LuQQF0UFA6k7Arqz/sGoxMvPXCKxe2dhYEznRLd0zxNVKkINQSmRBe6QTF1F8wCFFlJxMiirueCdklEIKsu5964UEXhOwsE9KaIARbFDVsWrUuZDTcMziMXm+XIGTxqrvV4i6X7D4IoYgyssNMCIAQOZNM6+vXTTvtsF/d++YtV7e4kdvebHnQWfLO2FuGbdKbYr4Oxb/WGRYEVeVy4CktjYhX4iUZqM9zL5Es2ICSE9zEFnbq9hKUpbi9OtSz7c2ZkD7+vFu+fugJNxOyG4N0wl9i+fOrMhOE/JJzlUg4sDcgBPRets6EpNYsm3rG4MPv3lflGNAFef6B2/v80NhwV1qVh3ry8n2CKCHNciTquaXEHmZCHG5Slh/DrSmcLAjXVYHMECRJuPgZQdS2kW2aSCEilLIsFE+skuvr/zHiqBNf+9uFF7YqFyQ3/L+PxdT3NyVjmq9lQAh/CAC8BSq4BCNqNyvHmJnxdww+7+v2lgk57Jpbu66L4z9aoegluXJMq4CQqk1zujDrLheE7GDxcsox74/WQ/nXtVYmZDMI0evvPaxn/uuzYjFtN9bTNv/Wc8ZNKpm+7Ie71aKul+Bg0Lt7mZDtgxAwg3MyAgjKMRlt/fppZx7963tfu+GKZW0tKMMm/u3Xc1b98LC3Q9EQW1FFqIvC0yMnnYpOxgO6XqDcAml/LhaFoW5HOQiBVw6E8Po0tZAHyjGrVi7oE4jeMm/8ky4nZDcG/bjbHihYuDE+geSXnCOHQ8G9BiFcewM55ZhMXEuuXf72uYMG3PnqX69euxuntcdv/cvkSfkfLlx89jo9dWNej259mKLgVDzlPLVyMLtnIGRrGwFoU3aYH46NAGirGKA5Ah44ID1v6LyMpQoiY7qewY2Nn3T1esb/ftjIRaNbsSOmeeBcELLH02jzBx0QItxghSIAQvKbK6ZunQnZER1+J5kQwwYQYtO7nnrpgbluOWY747avQEhj+Zr1YaPu3n7d8ya7IKQ5J2TnIMQvCMiur8lYmzZNG35E//te//Pvv9/727Blj3DJc092e+9/88appYXDPQUF/sZMBlAHUlUVWcxCvPSSJagCwY97ygARFfiOgrPwS8CV4URokHy3OQipW7Vm4aGhyM1zxj3xH5cTsutjtgWEFJ8th8OhPQUhfCvOEhlzIETSElpq7fJ3hw047I43bx7d4s7GW1/lzJkzxce+/u+hny5fMjZycI+TWdAXyFgME8ggEkdjBnhUP2uh3SL9sp3AbZl/8AYg0QMnFf50pO4d4r0BmIQICIzqOADBBBHNpHYqtcGX0Z8f+usB/3jqssvqdn109u6d+wyEVGyaGbGT42ODL2p3mZB+V93UbWNKusEIRy92QcjezUf49F5xQp6ZMbvw7tf/PdoIFlzbmpmQxvLVG8Jaw339ekb/1S5ByA/LY2oRL8d4WjwTAiSn+toMKy9/f0Dn4ntnPnRrmwMhl0+cWDBtydc3mnmhy6NdupTUp1K8m8CjqAi0PyyBIjBZ5R0MvCTDNnNDgAQJGwiQVh0QAsjEQipmqH7FmsWHRvL++vW4xz9zQciuLxZH3/Rw4XeVdRNQfvFZSmTvQQhwdiCzlcuEpNatmHb2Ef1v/9efr1q162e1Z++MTZ6c/+bs/5y3gZl/UjsW9pCjUSGlG7x1HYiAfBFsBkKcDg8o6f3UPfjn3+6AEDMLgp1SYTODwhwIwdD1hxE1IQMiII+FWaauoUkxrE97RfMfiw0ePH/IkCFgWbNPXi0NQsCAMdeiC+UYIKYiQ9f09g5C0vKfjFDkIhUyIUC6znbHbI8Tsq3B3WkmpLp8bqml3znppQluJmR7d0cOhOjBwuvssL+4NYipUI5pLF9TFtLq7+9dQF6d+1jLe4Dsk7t/O1/CyzF7A0K4xmOuRXdLd0yuHKMihqRUMmNsWP9BgZ25d/Wb/1i6P693W98dmzTJ+8p335xVLZh3hLp36dOk60iVVC5YpmkasglGpujYpuScaEUTAAnjPm5wM+fk3XknUQ6ErFzz3aHByE1fj5/o6oTsxqBzEFJV9wjKKz5TiYSDjncMCHbBxrxr3TGwkUMDLKGiswkDCKE2ErW4nlq7fNqZRw+8ffKfLl+5G6e122+duXat+sjrLw5aXFFxgx70nirmhX1M9eKMrnFdGWqZTgYkW47hgGS3QIgDjiETB/MPMnS5pzqIFS/HgGAb+PdYCPmJiMS0ThvXbVxcIKuPHTlw4HuvXXxxfLcvbC8+0AyEXCtFCoJ7S0wFEMIbfmyDc0J+CSDk0Gtv7b6pSbjBBSF7MRGbfbRFMiEtBUKAw7V1iy7c2A2bVpdFjYZxvfKEV9obCDll3GMlc1aUx4S8DpeQUNhjMNnR/eD6KdZOWnSBVOdwJLi8SrZF0EIMmdDjjyjKgZD0utUfFIvGvatfbXsgBFxUT7hv7FHz1q95rOhXvY/UBIIyGR35vQHOOAcSqiU5+ic5wCFZYA6fVVDlCpegq2IjLIsIUxtcSVF83YYlh/git/xv/BMz3EzIri8YAEKW1tQ/aocKzvBGo5yYmgMhGMT0ICll21lPFee4jk6I4wwM2Sl4cfVaJPO/67qJfAJGQrpR1zeu+eDsAYeMfeUvo1rV0XnEo/eXLly99vIKU7usY98+3ZpMg9iEICzJ/L4yDHAvBofebSj671ImBIztHH2eHAiBdnm4fy24+zBIByIEFj2gCeIDT+j6pgatuu6tX5d2fPiTO+5Yta/n5QmxmPrdpmTMCHS4FgciwZwEAKw4HJBxHSJYS5y24xzxdnOMcuW1rFog52CBPpFtICKCazJGAm/RrZgZSjeNjx3X/soxAEI2xoUbzWDkQqWoMC+XCTFNE0mStFknZGd3XC4TQqm1uUXXYDZv0WVaxgROSAc3E7LjMPJMyOR3r9FDBdfuaSYk9w2wiG0LhGSJqRvz7MZxXeToK988G0vvbHAPpN+fEXuyw3/WrI+R/I6XkFBINbm8GMiR2whjmy8C29cJaQZCsqx8+GxzEKJAd0w6lUmtXf1hMaH3rnnt79+1xficMT7Wc2FNxSNa0HuaFI3KoH9imk77LSyUkAmBjEhufVQsELNDvFTjyGzD0zblypc5EJJYV7akjz9824IHnvjIaZtxX7sSAQ5Cqhses8L5Z3gjET9s3NvLhHCuDgchToYkJ6IHXRN8Lho2kmWVb24+4GA0VuuJtSs/PGNg/7FTW1E475UZM3zjp009vgax63HYd7wnkudlkoQtm3EtBphLwB9qDt5/EptdAiEO0ILNWoQ2cRDq4p53mJv32ZghWfWgdCKJvERCHoPaiXXrF0WJcv9v+/X79NnRo/f5WtbaIMS2ECKWCWJls0J64/jY0Ze0O52QX436a49NSfFGMxS9oJVByNwSZt757PMPznGJqdtZuZqBECjHFO1JOWZXQUjUbBrfVY28/EsBISJ/OrN2CkLg6ZPzJLKsfNiQYWMwBWhdBYEodECAEOCFzFg6/5ZUNHCZkp+fbxGCZElFluYItsEDGmTJnHZdhACEcAktrhoLgmUkC0JwFoRYKFFWtqSX7Lm718Da96eOnOrsiu5rpxE4cey4ogWbUo/TUMFwJRL2cWIqtwL4eTlmWyCES5VlswvQFQI/hm4jD2FOJmTTuunDjuo39vVWEs6Dtu9Zt/25+zozc3UjQZfkdepS3BhPYr8/yE0OeWsuXJJCEDzk7GkmBAK5+TqbSdjDQwMAEaCo2qaNwr4A0usaEUmlaoSGhuf7lXR5+qNYbONOB6IV3tAMhFyHA5FA80wIB/g5WfadZEI220RslQnJghBdr66YFUw3jb9m+OB2ZWAHWdtDR9/cfVNSGmOGIhd4ioqiGUqRLMuoeSYEVJ139tqFTMjXJcy8wwUhO4gkgJB7Xn/vWi2Uf60VakUQUr5qU9RoenBAofTSJ488ktrZ4B5Iv3cyIRvuIfmlFzfPhLQ8CFnzUZFI713z6sQl+zoFvCvj8fuXXlLnfTv7zBpFus/fpWOvpEURPLVChoNzCsDjgoMrLmCPcuWYbYEQSG9KlKLUxo1LuyDp/nODJW/HYrF9Rv7bletty+858k/jin5oSD6BIkXD5XDIuzsgBFLz0LGUc5clXLSdIF2zkE8iHIRoZWs+Gjqoz9g3x7SOZs1jM2eGJ73/zlnlduZ6ubiwXzAvX66prEF+nw+RLGFUB4hAmsuSbzUiu5AJ4RkgLmVvcwDsyJ3nTI2IYyfABKRiAZxyjcS6DV+XKsqdix7/+3/3V2Zub0AI58vQbLkm61XlJBjpZk4IlGOIZepGdcWX4Ux8/NXDjprdnmTbAYT86qrbepRnhButSPQCtaCwVUAI3DB2VfnXpZZ5xzMvPjDbzYTsIBNy35vvX5cO5F1rhXyFe5IJaS7bvq1yDNi5N5Sv2hQxGh/u54++MOvpWLItL+C7e24AQmauLbtXyCu5mITCSq4ckwMh8DS1o3JMLhNCstUGZxNADieEUQQVfCWd0tJrVn9UKlj3rnjtqcVtEYRA3I64+Q8D1+iZx0hp8dFpLAi+gB9ZaYOXZGCxg+uCJ9hc5iNnLgZqnBI4ywAZUnR0QsA6Pl1evryb6HmwlxJ9fWosZuzu2PxS358FIRNxtHiYFApyEMJN3IA/0YyYCptvrkQm2k45ZmsQAq2pPKNlAqC0EUrW61blho/POPLwsa/dcHGLa9ZMX7lSueeZif3XWJlrjJD/DCUvL8KIiEzdQBImTsmEgLw8QzrwGMiec0I4FytLZOVzL8tZ4qAZCOOUIT+RkKDplNY3rcX1DRP7F3d849+xWPX+mlschJQn7jH8pcAJ2W4mBGztuBQ9dJs1l6TfihPCAQisNVliKmRCZGrrWlX57FCmafyoYYO/bI8gpFIjY4xw5HxPYVE0bUPJUXa8Y7KckNz47igjwl2mBRHxhybu3rxFth1ACK0u/19nSm9/8rn7vnJByHbumMc/+7powuvvXacF8q4xQ75CKsuIgXU3E5BoO7oNFLPtG9hlCWz8iWI7nBBYNOo3riyP2k2PHVwgT5o9YUJif93ArfG9Zzz0ZIdZP2wcJ+SVXEhCYRmIqTweWWLqzjghW5djuJB5MxAiMsZBSGbN6o87SPS+la/+fVFbBSGnxm7tOr+q/C5v967nZFQxlNR0FBA9TtcBLwc44Io7TYLOA6fe2lwSXMYSfxrl4mbU5DohelXV6s5InNhTE5+b2s66qlpjLuaOOeivseLlFZknSUHp6STg9+yQE5Ll6QAIcR4oYP5tyYTANAYQomXAH4NCd4xhVJbNOKn3wWP/fftVLd6p9fhnnxU9Ne2tyxq9ylVCQaS7TgiB8kvEH0KWboAwCM/NwAO9SU0k7CUIEUynRZyBFogIx3VafKkNGzNFHhBpM6x4Yt36D3rnFU886YEH5sfwtpiwrTmiW44NIGRJefJe08+Jqf6tyzHbI6bC/eegzNw451qYt4AQqNZBJkSitqFXl88NphrGjx5+zMz2BkL6X3Nzz7KUNMYIRc/LZUIAfGwNQmBe7AoI2do7Roa5pGVsWlM+vxOzxv590rj/uiBkRyBk8rvXZ4J511ghfwGAEKBoAQiRaPbJdCcgZGeZEBkTkG2viJhNT3b3m0/Ne/LJfdrS1tpLA7jozlqx6REhv/Q8EgpLrQVC0mvXzCiR6P2rX3nym7YKQkY8+GDo66q1FyX9yk0sP9INnryh7CJnCX85EAIgiz/Rcja/zR1aAYRwC3nCmoGQmo2RZOa1/qUF46fe+lBTa49lezn+cTeOK/m2Lv60WNDxVMHvU3dYjsmCEOK0tf0MhIA+hiJ7OCfEKwpIMVNG/cofPukhk9uXvvLIkpaM2ZTvv5fvf3ricVWE3qx07nh0AzX9TJaRxRgKeAOI6ibCpsnJo9xlHRASLPh72B3DtUFMZ3OGjBAAEMiGQPYSLNwFi6I82WOmyyuWKsnM44P7dHp/8nW3NbTkNe/uscA75vMfy+81fR2u2R0Qsr3uGC5IByVSanKyFs+EMGoYNRX/8yebxt9z7IWftifZdijHHDZqbK+NaWGMEYqcpxYWRjK2jaStMiE5F92cy/S2xml7nBBFJAjpGqU15d90tOxb//7cfV+6IGQ7M/2pmf8rvv+1d/9gBCOjbL+/wJZkxHi6FszEciAk56Xg+CuAoqCzVDlukiB1nEPYnNCVBdiOPTtCqoBQ46Y1lSGj4Zl+heoTnz3UvjYTcNGds6zsESG/6DwhEBLB1NmGVC7EBUiXzZ5AnL86Acp1IfBMCFemdKIKMeSeKqDbyGNIkaSltfSaVZ8WE3L/ZQeFFsRisW30JO7uctby758yZQq5f+Gc49ebmXGeLh0HahiJkCGDxR6yIZwTwkGt8/QJV85v9iwIgb9bIuMOpdASaVTXVkXj2jsDO3a8/41bYuUtf8bt84gAQhbVND4jFnc6VfD7FQAhDuBztC9ycw3mJwBFiHtOIwOmIWRCePmGa7aA6JwX6RkNKcxGHlMzGtf8+GlXr3z79y8+tLilIgibwzF/+EPnCtG4Kh3wXW56PSVC0M8xAoNykmUjBvNEILyEwoVLAC6AE3OWxpH701mPnPts+z1VDiEcumIgA2dThizuJ0C4YB7ESGaMpsory6MIvxEx8fPnPP74yv2ZBYHrcUBIxb2mr2TbICS7vuQAJQdUvOSSU3MAt1f4P8dZGX5IlpzK2TEWRSqjpl5VuSCQrht/97GXfdweQUhZGv/ZDkZHykWFESjHbCsTwoUTd/LicQVpf5ijjCGD2kgVMRJ0jdlVFQs7CcYtT/xj3BcuCNkRCHn93T8k1MAoXySvAMkyyliIt6dRkNfmrX3OkwJslM3/hJucd3QwEAyCN4h8gYMN2GYgfAx+IAypzECZqo3VXq1pUu8genTW44837mxgD6TfQybki5UVjwZLSkcy1SfGLYqwqG5O6+YWwRwWyV0baDHwyEKssgCE16L5E56j+AhhFUwTqZatJdev/rSUsHEX9fDPb6sgBDaSU+4Ze/C31VW3oKKCM1E0GOGCT5bNF3vYPCiDjiGoVQPYQEgmMpdTIRY8kQnIlpwnXMvQkTdtNMmV9R8dVlxyx7t33t/qEuEH0rzb0bked+PYksVN5jN2XsGpQihPoVhEUG6BMcjNRwAaAHRzoNh5uHDAB+fuwIYEzrGCwkXlBMtCPsaQJ5MyEhvWfFbsEe9Y9sKDi1oqZg/PmOF7evpbJzYRdLOYFx6UEYhMPB4kSE7XAoUOKlHkiz0s+vyBCMoH1OlA42XPZifjeBPBc0B2/dqq2YEb1HHQT5Eqy6ipPo4UxYtUyYe0dJqr/bJUMm7W1c30aOl/XHXaWV/Ghg/f5y25W8eXg5Bl1fdkAvnXypECP2QPgTice/0EiG31YYfr0iwQ1EbU1pHqUfhRtEyaS9OHZNFMla1b6EvGx4866/iP2ls5ZtB19x+0piHzZ5xXNALnhyPaVmBjM2ADjlBWlXdb8xzWZ2JSRLDI7xVQh4bPqgQhIZNgrKZyUSmmtzz67H2zXBCyAxDywJsf/CHh9Y/y+kIFpkCQCS15sgfRLGELBKQQn6LwyrpN5o63ORMCN7PIPRdA5AdeULeVkIkCIkZVK76vyUfGc4cXFz/y4YP7N53ZUotm7jgXPD656MOFix9VI9FzpVBU1glBBhGRRR3vCWDX42xWI7dMOgDEWQRBHMl5ZYlkWdY6/B5+E5RklKyp0eLrV37SK+QZ9+PzD81vq+UYuArobHjxw3cvXmdoN4S6d+6RwkyAthawAIN7HUinfLODsgvPu8k8RSJZDlcEOCEU24haNvLqhok31H5xRGm3Mf++/fYW5x+09FxoK8cbMOrGkh919DQr6nAq80dUKkgchEjgkIqczAHIlUPWUmRZ8TIobfCyRg6EgE6GgAzQCZFkpNg28oKnTyZpxNeu+7Q4IN7ZUiCEt02Oub53A7ZHNyn4QrUgv0D0epFh2ogQiYMQmCvA/wCgCnMIwAV0tkA5b1sghGcYQXgMnJm30W0JIMTJRlpONs4SUCgQQZm4hoxUBvkkxWDJ5DI5mXh++JGD//3k+edX4v3IBcnNrRNiL6nzVi2JKR06X8f84YCdFScD0OWUpXIZjp//yX8PGSK4brjZsMW5azwTBAAVUaRgAXmRZSbXr10Y0lMPXnnGb6a3SxBSnx5jeAMjlE4doia3EXYI8zkAwjiJe/sJZ16KQRTJdtaok8hIp5azbgkIyVqKkYaqRUWM3vrwP+6Z6YKQ7YKQmcX3vP7pdWl/ZLTXHy40kYAMyIAoHm5hbdo2f/pwyi58mH5mVpOzvgY2OTx08DINcPAF2HgshDMpRJINVaih8oVDopGHZz0ea1eZkJNjzxR+vbH84WBewQjm8XtSFNRBZWSD6qJlIUmQeJcLlCQgfhxu8MXPqWU7C2RzrYNs+Qs4E4wiDyyWyUTGrNz4UaHMHlj93CML91d74K5ssgsYk67565hjKgV2sx7w/cb2eXw2WKEDAoEJwp8sHBDilKJ46gMJPL0OtXlHLhw6E7ymxTKrNy48yBO8YcxRx84bOXKkqxWyC4MwYNTYklW6PtHMKxgqRPO9FpaQxGAe8gSUUxYjTrlFsAUkcHDijEuuNRcACPxgLCIZrOs1DXmojQKGrtetXzMjXxHuXvnyA9/uwuns9C23vvZaZNrC2UPXNtXdXNCnV19dEkXwh5FkFUlEdvyHwGCOl5UY3zQBXAg4B9WdTMjW5Zgc+Ng6qQ4zL5cJgZpxKpVC2CYchJhpAwVVL6XJVFWivPKdTqr04h2/v3rpyEMOaRPdWQBCfqxYcXsmEP2DIXnCWAk41wLrBSy90KXBLxyuGjZV/p/837wix8c/+28KZQRwvM6uR8xGxLaRYhlGeuO6b/KR/uCVpx/zcXsDIf2vubNnZZr+iQWj56O8gjwtmzVrPlFzcdtRZokDdmry8p0tEJ5lgtB6MENSOmGjhqqFXWXptglP3OWWY7a3Cjwze3bhnc+/c40WyL82Ei0stomINFiLRAWZdnYzzKLBHPcjV5bJpXE5s5yjSCjDOGiSgxD+9GsiL7FR7ZpVmwqI/Vz3zv4nZsXaFwi54JHJ+R//sPR+wRu80BPJC5iigjK2k8oWROLU2puJkTXnH08sogAAIABJREFUfWwZl+alLqeGCy9IkRPKmNnUkE5vKnu3azjw0PJnH2qTiqm5a4Gn2hPvuKPzylTDlbrPc5UQjZTYMuEiU7DYQd0ZHjK4WR1fJ0WEeXtbFoRwDEuRhBHy2DZKrC5bUSrIY48/6NAZT19/fbtq797p7ryHbzjxT2OLZm+sfVjp0u0sHIwELAHI5hBnACHQ3kqRQZxsHGRCeFYBNvksj8nJh3CmEv9TEURELAvJlomUVEJPlW/8sH+vHnd/8sC1e52dik2ZIr8/e3b/CjP+ZzPgOVUpzg+mYK5AzoZipKpeLucPZwv8D8fHBkCqk/p28oVbARD+H7nf/DyIzUEIzEXgA1gmRdRiKBNPoajqy5i19V/5TGvSyN/+7j8PDhu2X8moza9gRGyK/NmPs/5K8/NvlKNF+SZVkI0df5/cWvzTzTSrUpzNuDbv9gBAapk6EmWJl975QxOzkRdTPblh7TyfkXzozmMvbXfE1COuu6dbZTLxh4wauFgu7ligE0eq3ZlIWS7R5gz1NubW5gBTTnwEJ2dO/iYCkrCAFCg5xxtMVlPxdTFGdz353MNui+721rJ/zpuXd9cLb/++UVCv9PnDXQXFo1iIYCoIDAAFJlCBzW2QziDlwAjU+uEFCn3OZrI5pQWanwxqiyIzKbE0LVVTviZPYC8dHC14YdqEW9pVi+5ZscfCc9ZX3iAo3kvlQKgACqwmJogKAhfrAro53OwOVMvO881S7twCtFmGycrybBxmiEBtwSspZrquulKrrpx24qABT7198zWtahq2h/veTz425fvv/Xc9+8wZGZ/yVyscPIR6FElnNl/kRFFAInF8YmCTcWr3TnRsIENCSlRwvDpUylDj6nUVhYw8+pueh/7zpRtuqGmJ82vvxzhhVCx/fuWamz2lXf9Pzi/sYGGiCEzkulTwhAcaG0AQtqEzlWLGO1QpY5g6bDC+FiMBNHshGUexTZlg2YIPKjSJeH2mpvLDEwcNeuhft12y1y66v7399tLVDVWja6zMFcUH9SiB8p1BBORRfSiRSCBVUfgGwbkPWc6Uc284/26eQs+Nq5MByRFwt4x2rtNhCwhBKJ1MIJ/Pxx+6JCIibNq2lNY3KMnUK6f2P/LlZ84/f0NbKMPkrmLUpEnSjDlLRjWJ8o1KXkkJIl4PxaKQKyNkzzW32ECxqnlNgV+6U3lwhpm3O3MvSYYB3EmYMg+z44mN67/y6amJd5x4dbuTbR98zZjSsob0lXYw71KxsEMnTRChJgkxcPY0fqc4NiRbCL3bIqkyyCQxyNRB5x9vArQpE23LFjOJJtJY92W3oGfCDY8/sGAkeHi009fO6bs7uPCJ06cHn3pz+gmbksbpFsJdsCSrjEgSIhKBNnlCMIGNA/MCIq+BbcnzMQGSHxhjCXQLeUIXcn0wuxmiFmGmJTDbQloy4cVsQ5fCyAeHdS+e/eIt7QuEjHl0iueD72cPqqhrOtsmciFRvF6DYYmJomJZlqhICsYMPFSaLYaw7PMVAGoUwKqGTKkNTfqIQQmL2YxRi6uc2xktpRJc4cdo7vATT/j4H9deut+Eknb1HprJmHjvXXcNWFaz6U9iafEpKOiLZpiNdC6PLCJJIPwJDKYVkLogHHAT8+4EBE/lkEVDSAXhtqamtJrU/n1ocafYtD/ftteb3q5ew4H8vhFjxngWlOvHrW9oONdbVNLTZiQogcJXlu5PMWUmcG+AdmdTyN5TgiwGyQZC+T0OUxLodWDFaFmmaSDbsr2UaaKWrCemMff0E3839aWxV+wVKPzj9InK/NmbTl5eW3lHfrdOA1KYEcHvQ2kQIUMiolAOziqkAjh1NDFyWUJng4AMG1+bOMDaQryFjM/WL955tvlBwPm9IjkiVeDMG/B6KEul6zIbKqZ3UXzP/mX42QsvHzJEa2tzoddFVw9Ly55zapPpTkT2+akgclbDZkYIw5AHYsD8YIxZvIbFGAy0iZEAA80rNiBoJgoSMS2DMC4kQuHpIKFiu0419G8OKo1+dtll520YPXCg2dZisDfnM/wvsfwla9ecnETkJDsQ6qQT6CRAEjhXQT6DQqc2EKa2EFY357Kbx5lntQ2TFwUAx1iMmpae0UVGdb/A6j2m9lX3/PD0/z796Lq2BGT3Jnbb+uxegRDwaPj2nnuCiSYtajJRgaKnjbEgEJVQeIAXbCzJDnENIRNa5LBIBGxQwN4CZtT5QaAyZ1NMbFg2EBWgrC9QkzCT+jzEVi1b9yKl6bXxtza2ZVLlng4OSJavXrw4IpF8WQwrQjKuCYyIWFEVZKRSTCDiNqhxgDkIhvdR28LMJpiKaQz2d9S2sYF0pFoEqBPU6/WZAVWJH4LijW21M2br2L20aFH40cn/HFmL6R9JYbS3JhFRAyVU2XEZBuEpWPaAMwOpdyMrZsa3PeiEgEyabSNiGSxZVv5ln3DB7XPvnTCnPc6fPZ13O/rc8FExbznK5JsCCWJEJJESfu/CZ2xmUksgzGIGxYQwW0JUsSyGbZthgTBkQJXM5nMSNmjsIUxlMhVSacasjBWMCE3HFRQ07M1cjMViwseN1Qev1bQxLOQ/l4T9EVuVuaKuQRlSRBBNhJN12kt5bhC6IbkxJMwRRw0UOqzg5XgAOyCEZx4ZcK6c3zXPgHDwz/8/2ypvORk6RVGYZJtasrzqy0IsTTz910d89eTFF7dJTaMRsaf8m+oqipRQQEw3NRJYs3NzgY8nY3wNBq43rD3Yspggikw3nT95TCxr895BMRK47aaqIJLRqSqrVp4ipAu65sWfHT26XQEQuEyQEpi5uja4onpDJMVExRIpESghjNocecO9gSngMpthmzBBsJlpE4ZJlhkJMMWQkERsjEyEKKFYIio2BZtptm17GKYBCVkeKRMv7tKlvj3GsPnas1cgpDUWP/eYbgT4jf799/KE554ZtN7I/FHtVHyy5VPDSWpjSZGd9LpmIMII133g7YGAtgTYXBxNESjngZS0RyaocsXKpd2UwCNH9x34zotXXtmuynm/xNkCqf8rnn6042dLv70srXguDXfu3FMjDKeZ5ZjsCQ4PhZqW45LLMyAOmIDCjJPxcGzqN3fjceDhAJGf6vE0z340j7ajEwL7t2UYyCtLVqq6ehlraHzpnIHHv/Hy5ZdX/hLHxr1mNwK7GwEXhOxuxNz377MIXPDII/nz1q28qE6ko4PdO/VKUltkksQ7rgzN5BsNNp0WSx02GeLYqXMgwrUgbOT1SKhyzZrKAhu9/NueBz3x8vU3u5vDPhvB1vmiP/5rYnDmtz+euCEdH+MtLD5C8AcU5pUR8IZ0G1hpMA8IAvX4nDgiaJfwjEa2HJMDIbyLB0p4kBjhZO6finJxfRFZQibU7bPdfkDEhWYsWZQQtUAATWBWMl5p1Na81Vn1PHvO785eHhsyxDVMbJ3hd4/aziLggpB2NqDt6XIgG/LsO1OPXlix/tpwz86/S0tCuCGTwf5gCJm6xQEHqOrCywRhoKxSJTzJQkkGSNFAZG2qrtTVpPb+kZ16xAaMueWH/a1a2Z7GaF9fC3TDfLJozoByZP4hJYmnCR5/mCkKpjJBBnCAYNwFASmUcCVdhx7IhVuz2RBHBCAnDQBdCVxDhM+ZLSUZ+BsnOYPZHeRPsi2+IrTD2FDLBz6EgDCIC5pmWm+o+6RIUideMHjIvLYgSravx8X9PjcCexoBF4TsaeTcz+2TCMRmzCh8+YO3z9dD6lU4L9q7XktLgUgUZTI6Al8h4H5wjgh3eoXNBTtPtRgcThmymAXvoXVr1y3qongmnHncoI8mnOmWZPbJ4LXwlwBh+dUXn+nx5Q/LLtuoJc4r6tG9i0YRsUAkERR0AXAAxYyIXAQKzOoAhMC8yHYfOBoyUKEB3S0ox4CA6lYghJ92lhPCRIGLnQH5WRZFBK7eXGabCrzDRhUE3YonvjXq6p48qEPe9K9ue7DNtOO2cPjdw7kRaJUIuCCkVcLqHrSlIgDZkBenvz1gUVnZ9XJpwVBDkcPYo+BEPIUCPr/DLudkQVB8zLqPZ1uaAZxk9DQqyguz2vXra8RE6l+n9xvw+EtXXF/WUufnHmffRAB4INe++mrB7GWLz6qxtStpwPtrKRBQTNAt4QquDgiBLAh0T/H2vGwmZHsghGfQILHRrBzDyancHmCLBQKILoIOBvec0S3OQ1IFGQm6YYM/rtXQ+HL3cOFLc8eN27RvouF+ixuB9hMBF4S0n7Fst1cSe//9/De+/PSCJgVdLRcW9LYIkZpSaRQIBJBpQE8WZEMcI7VsNzgSnLQI0i0d+RQZafFGPVNdPfOIki4P33PUiV8OcWv2B9R8eWXxYt/D/3r2+PXp5LU4HPpNuLAkYNgUgxIqEJKhHz3XQsY7pDgfxCm75DIeuS4Xx9jRKc9Y3GwPMiNb1FObgxAANlzcTHAyHwBu/ERGxMLMaGyq82b0j1XbfOKuwb9Z5CryHlBTyj3ZNhIBF4S0kYFwT2P7EZjCGHnh4Xt+PWfFquvUjgXD1LxogckEQbNMJEhOWyW0VHKlgqx3DnADQEU1LxJF9Q3VIKJka7W1KyOGPemKY05/OXb22e1K/r89z58FCxZIj303t/esZd9fafi9I7HHVyhghfCuF9DGEQVkg4AdlxpyrCFEG8pxThfMFj6IE6UcCIG/WyA/z8szPwch/HP8OwCxQAkGJLVF5MUiMhNao15TNytk2q9eNGLEJ7EhQ1w13vY8Cd1ra7UIuCCk1ULrHrglI3Dze+8F3pw5/XfVtvHHYKcOR6mBsFLT1IBlHzh4gh4IRiIXLnPKMpYNvgwW72DQjRSSiMBk22wyN1W+1a+ww99m3vbAj65mSEuOUOscizEmjH72iY4f/7D0nFTQe0WKCH18oajoYSoydYP7O4CCK4AQICYDCAGQwTtjstLZXEYeuB/cNKw5CAGAkmU2Q5YjW4qBK+Guprxn1zGagNKOxDBSQB5UM1NmQl/gSWsvHySGp894+O4ady61zvi7R23/EXBBSPsf43ZxhcAJGPnsE51mLl5yBQ0HLox2KOlZl05g7JGzXiCCY1AmODYAICAFP2ClHY4EUTLehLwCNlJlFd8V2ugf1x8/7K0xbjakzc+NUQ8+GFpUVXZKmWRf3ySTgUq0wKt6/CjTkEQ+j4eLj9kg6Z/tfuFCZKD1kW25hQvMgZDm5Rjn96Ap/1OnU0dm2+mpAb8ZiyEkE8GxSrQZEjK6rjc0LVN0NrlQUv59y6BB69wyTJufRu4JtuEIuCCkDQ+Oe2o/jQCoZE4304evrKscw4KB0wu7dgnFDQuZjoi9Y1LGWJZECKa7Fkqkksjj9yCQNBMpYmI802BUVL/Xwxv5+/ihZy5xuSFtd5aBo/Kfbv7zUWVG6vqUVz5ZzM8P25KMTd4BJWS5Go72h+P8ukV6PeeAm9MFcfxetlwrL+GBSSamHKzahPB2XEdBVUAS9NCAHohpI1kSkW3qKKSoll5Vv6Gxomxqn4Iur9906aU/tBV33LY7iu6ZuRHYcQRcEOLOkAMqAle88EJg5oI5p2Y80q1SXn5/2+PBZtbWBAzsuLEds5FKJCTJBFXX1iBvwMudTiXLRjiesVhDYk0hVp++4PgTX7mtDTmcHlAD0conC2WYIbf/tW9ZJn11RhZG0lCgCHl9WKPcHQkR4rj3bvb1yqKOnPfttkAIh6rNgQiiXMyMu1Vx5V3QBMG8uwZyH5ZhIpmIiBoGkjFlsmFVpzaVTz+kpPPLw3578vw/H310ppXD4B7ejUC7j4ALQtr9ELe/Czzzb/d3+nbDxjFJIlwkFxbkW4okQDqeW7WDuJRtcxEpaKsUJJGDEgwGZoaBRM1AYsqIs5rEu11DgSf/dNlVS9yn2bY3R4bdfXfnDan68+qoNYqGfT3FUBjpAkYZzeQlN1DNdVxLqaO3nn3tDgjhH2GOOSnBYATJzWX4vGFYQLppIFWWEdU0JhlaHDWmZgUM68XLhw354tbfjWxqe1Fzz8iNwIEXAReEHHhj9os/YyjLvJdpOLY8lbzF07n02IxMgiDZDcRDWfXwzcnK6FxkKhSKIE1L85gJloVkxpCPCnamsm41rWl4rm9B0eu/efTRCldFte1MqxGxmH9pQ8V5Vbp2g79DUR/qVSVbUpBGKS/BEFFCRBB4GeUn9tJZEzq4kl3JhMD7uJ8MY0iG3IeNEbNsR95dJI7DLrOZh9EUaUp9q6b0147s2OO9V2+8sdIlorad+eKeyYEdAReEHNjj94s9+xv//VL4k/8uOCcZ8f3B8Eq/oqIgQZoe0uqgGQJPtAzEqgSCLMtEqqryGj82DSTDn5qZoHX1cyOW/fyF553x2a3Hnt4uHZoPtAny0tq16vP/fPa3SzaWjY907XQw9XkUCwtckh0ExHh2C9RxQTo9q4ba/BpzmZCfX7dDQG1ejgGwAVkVADMyxVyEzDZMsFRHWJGQSDATTD1jNjQu8yf0yYd2KH33ki4Hb3CJqAfarHLPty1HwAUhbXl03HPbYQSuf+35LpPnfXmN7lPP90UipbLXK2VMiiybIUlSkCiI/POwyYAJGbVshEBXwraQCALviUQNraz5sEc4/+WTTx32v9iQIZob8v0XAVDHfe7dqX0Xl2+8CUUCZ3uLCrwJw0CMZEsvAkbg3UKptdlMDiQ8mgOL3QMhAqAQB4QggdsAQFs3L9+JBEnU0tLVtctJU+Lto0u7vTXs5GGrRw8c2O6s6fffiLvf7EbAIYi7LzcCB2QEwEvk5vtu6r+qseZqqihDQ/lFRSYWRAM0H0SV705Q54cnW84eYBZSVBVR2GQwRiyVNml9wwZU1/DOrwqKX/5j/yN/dJ9y989UAEG6Vx+5v/Oc5cvPlzoUXmF5PT2I14/ThoEkWc4uVIyDEIuayKYmJxtTTukANxjn5fBEtrycltvmry0tucD7sMEjBjqq+Dc4/BJJwAgbmm03xVdaVY2vH9PzoHcuG3rWCpc7tH/mhvut7TsCLghp3+Pb7q8uNnOK/70v5h61rqrq0kBR/snEH8w3iUgokZFmQecDRrKi8KdlXdeRqIhIM3QkgMOdZSM/QhpraFxpV9a+0auo6LU54/62vt0HrY1dYIwxYfmECcULK9YNrcP25UpRQf8UE1TZ78OGaSMFxs8yeVkNOp4Ypsi0DUcXhkK2a89ACHzOtBjPesDLtk0kCgz5RNFm8XhlamP5G4d37vrqtcPPd1tx29iccU+n/UTABSHtZyx/kVcCImb3zJga+eS/Xx33Y1XlZf6Skt/4O5REyxMJLCgqsrmCquB0PEArpgWOqI6eBKM2AgUROxHXMpWVSwpE+eULTj7prfFDR9b8IoO5ny469vGU6Hv/mXN6eSZ1MYmGj7R9ajCDCPYHQtwbiKugQhmNs00dlVNKoD0XI2yT5s0xPwEkcDk53xc+3lzK3/lcLmsCFTpRkbMkVAt5MbJpPFmtb6z4sHs074Xf//6kRTf0Gqrvp9C4X+tGoN1HwAUh7X6I2/8FgqbEw9OnFr4/e/ZJ61LxC42Ab7C3Q3GoJpPBWFGRRbmpDE+5QytmTp4bJr+eySAPiFTFmzJ2U+O8CGOTLjh16OcuENk38+ap72f6p0774tjv16+9Us6LDBGj0YglEiEDvB5Z5dkqaKMFKXYbqKjYASBgPAdgQgAZddBk3/xq/nfEsyUARHIAZOurkmQFaZrGOSYRv5fpdXVVSkqbnkfRv2487ey5l7s8oX0zEdxv+cVGwAUhv9ihb18XDkBkwrRpxW989cmpVdQYaReEjmQBf8iQCIauCtsEAzIBKZhwHxDbdHghoDdh2xbyKAQlaqsyekP9zE6h8OQLhhz+dmzI5S5RtRWnyfsLFngf/+S9Ad+Vl1/CvMowb15ekU4EgUkSQoLEy2eq6IiSOZmLLVmQ7YGQLSRVB4zAGDsCdo6SLhBXc7yRXHYEgKkIUmXJTD1OxD9WEulXRg8/96u/nnJKqhUv3z20GwE3AnCPulFwI9BeIgClmYenTy+a9MnbJ5dpiQvl0qJBOOALY0kSgDuALeSAEOo4o0L7Lt+oRBCmSiNFJgxbejpeWTEnH8mv9Qjlf/z57Q9UtZf4tKXrmL5ypTLx9RcPX1JTfUlGlU8L5OV1RB5VTBkmQhJBZDMIkbkkv5MJgZIM4pkQ0ISBl8CEn5RjtgYhvARHnawJEFmhouN4CjGeFZPBgTejUw9DjUZN7Rf5THqp1B/64qNYLN6W4uWeixuB9hoBF4S015H9BV/Xbe/8M++zJd/235BOnG8FPccLitpVIMBoFHgxRgCTuyyZUdN0FA6HUMbSuNsuoyaz0mndZ7MFISZMzWPqhydfMKgsdshI4xcc0ha9dGjF/fsrzx9cx8zz6iR8HlU9nZlEZOLxICRKSDMdHgiABsT1yCgHDzmAwQXGspofOQ+YXE9M83ZdJ3uSddYVHINDaNPmImeUIVnAzCuJNkqlq62GppmFguf1zkz4ctqECYkWvWD3YG4E3AhsNwIuCHEnxwEdASjDYLyVFSpC6KYZr/i+/Gphvxorc0zCNs9isucQ1RcICLJCqChy/xHdtFHQ60eZZBIBRrGRgTweBR6VUdX6DbqH4RVeg35YqPrfv+zUs5fdeMIJTa5S5t5Nl5kzZ4p3fvJ+9zorc0kjpedYwUAPJRJWdMtEBrWRqKjIsK3NmQtQMM0BDSfz4Xx/zhE3dzY7AiHNiaggcsaPgzCTETNpY9Mm1pj4vFQNTDmkY2Deaze4GZC9G2H3024Edi8CLgjZvXi5725DEbjkppt8cZqOHn/UCbV/HjnyZ2ZiE6dPV74uX1P8zYrvf1vZ2Hi6FIkcjgPeEubxyrYiC9wbhEmcI6JIhAOQxoY6JIoCKi4sQhVlZXpjde1GL8Wzo5I4rWvU//VZ5/2uti10SwD4+qaiQv3ns+PFXtFe+g033NDmOzgAgIydNrVroyycU5VKXqzmR3tkJNkbyItw4JE2NGRD+YRgJMuyIzKHnXJLruwCCxYAEcwczgcnqmYzI86/fzpBQcwsB0J4CY6b3xFGLaoLmr6BVdV8Xigq/z44EJn/bizW2Iamt3sqbgR+ERFwQcgvYpjb50We8YcrOpRr6aP79z3shxvHDF95CD5kmyWTP01+ruizb745rInZJ2Vkcqzl9fQiAX+ICoKIbYZUSUYCxsjIpHkJANL2nBSpqkjLpMx0U1MdzuhL/Ax9ViJ75l004txlnT2F8f0hXjWFTSHLnqz0ra0uKzAy6e7YQnpx55K1j/7ljrK2PMoAQB76YkbHFdVVZ5eb6csLu3frkWLMq4ZCSLNsZBgGUn0KByGmbXEQktY17mILLwAdBAAFmM1RB5QgcE0Gjkh2Fds6G0JBjMy2+XgCcIFSjIwQIwwqb5k1tCHxcalAPhjUqduil8eMcQFIW55A7rm12wi4IKTdDm37v7CHXngh8PqsT/9PDnnVfj0O/uK5G29evr1yycMzXvF9tmhl15X1lcdXa6nfKuHwQKYqhaCEhUVRANDh8wb4hpXRDf4UDn/3qh4kUEb1RCKpNzSVC7r2nWRZX5bmFSy+5NxzfyQpnBgzeLDWmmUayHp88M036twViwJLlyzpkDGTvS3d6CTYiOSp3vl9O/ddEGvDmygAkIdnzy7935ofzkXRwEUkGjxYJ4JX8vm2UjwFlAFtuMDlcNxtGYjKNSOgQlaEZDMj8P92NhPCNUPAMwj+jyJkYYe8Clq5sighauhItTHyM6wlKqvWqhRP7+4Nv31k165LJ1x5pcsBaf/LhXuFbTQCLghpowPjntbOI7CAMekv111+VJ2m/5/I7O+PP+boaY9f9afq7QGCKVOmkLmeTPHM+YsOq9NTJ6aofYQQCXSzBRIJRfPU2rp6rHh8wIVEsqqiRCLFn8Q9iopERpEWT9pM05IyRusTtQ3fhTzy4gJZXtKntNuy3n0Pb+hbU5NpKdl3UBHtMmuWbCDkr9Zq8r6YNbNnIh7vpafTnQ09HZFlaX33jp2/OPd3p3134ZDhtTuP1v55x6QFC6QvZs3q8PnSRWfoAc/vA5079NFl7ElzB1wRyUTe3N2CQcyF/8DLMajjbbR8lXLKMk5pBoCIU46hvDYDBjKgB4KQzcDEEP5fQBSACKPIp8jIiKeQatqZgInWCfH0+2FRee/0AQOWxEaOTO6fyLjf6kbAjQDPcrphcCNwIEdg6HXXFdda6Uuakk0HFRXmz+p/xBGfPX7BVdsFIpBVeHrZLO/CH1d3/d/S7/s1apmBdZo+SA34egTy88MZy1KRLOOmVBp5/T6eDdGSKeQlMvJLCrLTaURsW2usrk0w06yWJLbc1owfAl5lvUzk9Qf16r7x191618uGlEHJpNYXIXvEiBF0R5mSWCwmlAwrIY1asSpTxV+XigfnfPNNkalrnRviiRKB2IXVGysKw4qHqALZlO/zrIp4ggsvP3H40qFD266aJ3TBvPnee92/27R2aCOm5ypFef0MRfJp4M2iKI7YmI0dEIJplnS6xduFcz2ynGNQvW0OQnKcECwwRHkbrlOWIaKMMBGQZplchEyRZeQhBImGmU6VV/0YocL7Hf2BaZecee4PowcOTB/Ic989dzcC7SECLghpD6P4C74GIJ++9/G7R1c21l+YsE0xkh/9+KQjj/r8bxeO3mF2AAzTEj/O9n42d1HpklWrDmlIp440RTIojVlPNRqOyH6/mjZ04vV6kakb4LqLBIsiM62hSMAPSp7Uti0jbWbSDQ0NjYjaNSLGVTIRKkWGK4hNK8M+TyW2UR2mNP7bowYnsYlNaluWl9cMFCEtZ6SqyhrPxqrKsCgLkXhK60YxLtAtPc+0WUEqmcjHCKkSY4ZK0Q/53uC8LtHoslMGn7jO36VL0/7gpOzqVAMdkElTX+vxY+WmM+MYnSFEQodgn9efYRQzVUJEUVE6nUaK4GRCoA3XeSpqZjDHu2DhJF3hAAAgAElEQVSy5RmcFR/bnA3JKqNSJ1sCWRMbGq+JhASR8HKaoWWglIaCopRIVdUsC1NhapHHM/3UE09b6zom7+pIuu9zI9C6EXBBSOvG1z16K0cABMqenTGj+B9vv3puZSZ+KvLKdcWFhW8d27vPrCcvvmGnglMARjwVFcpb779V8v36NQfVGNrhaYENTlK7ky8SilCEg5IiezHGImYIA9FR9SicSAkP8CaDM0CWAJ4jumnqWlpHph23MukGEQsNArWasMlSAb83qaU0i0CZgNmCIqmCIAmiYelqUzLhx4z5i6PFwXQioWrpNJKIbPgUubYgnL9Sa2paWuBTl5588u9WnllycKJv375ma3JQ9nbIXlq7Vv3XGy8eWqUlz6rX9VMMSTwYKaoPez0YidAKjfkPKKGKSOCKLZjlWmezBRkAH9lWXM4R4fyOLVZ1TlYEDOwYxMoxKDRN7rALyqgiIUhByJYpq2/YsHFeVJA/KBHFT0865YwNsSFDoOLmvtwIuBFoAxFwQUgbGAT3FPYuAkB8vP/DKX2XV5X/vjwVH9S5c+fvCv2haccfNPC/j1x66S5Jb0OZ5qNVq6R/vPNOXq1e0yVO7U4b62oPMi3WT/KqXbAoFagBXxCJ2GMRpBrUxoFgGAN9EoS1TE3nguACQ0yVFGZqadvSOCrRZUmy0+m0Bp03/kBAtC0bU0YZ2NGDM6yiSowmDSpTrMtMaLJSepmHCEsKAqH5UdW34qQBR1ccfdppmYEYm3sXqdb/NACQf059rveK6przG23rDCUS6ir7fSoTZAyZCiyIvPsFyieQZbJ1c6cghHM8tjp1B7ggJDKJK6JygAJdMAQqOzZiumlgXS83axtnRSXpgzDyzP7roEE1LcXZaf1Iut/gRuCXEQEXhPwyxrndX+VLM2eqz3/01nE/1lZenTDSPToUl37XOVrwQj9/yf+e3A0NDchrTEVISK1bJ/37vcmhxni8MGMYpRvrqnsnbbO3IQodpZC/kyUJeRaiqlcJKLIoySIhYsDrEyyQHacWbweViMgEQaCEEDueaLRsSpkoSyilZahpWyYgFIJYWqZCPCAo9Tijr/YzYVFYCiwp9IcrftO3b9WYESP0bYmxtcUBHfHoo55qu+Gw7zduGJGUybBIaYcuBhIkSVExL4/o0HqrIiKJyDJtZNkmz4QAryMnQsb5Ibwu47TfNs+CNNcAcUo4AEJkZJomB4IeRUESERDVNd2IN60TktoneQS/WxL2ffPpLQ/G23L2qC2Op3tObgT2RQRcELIvoux+xz6JwDOzZxQ+N+3dERsb6y5uzGiRDoXFc7pFIm936dD785cv33MzOgAmlz7yiLdJMvxxagYqU03d6xKNvTMW7WYYZlQmJGiZNODze3yYYo8oE9k2TERtymzLZkQkBkiPAOqgmGmmYeqKKscFRKo8irqqMBRYFVA8VWHJXxf1F9bvzbnuk0Bv9SUQn6H33BOozTQdv1ZruET3yMd6igsKNUYJkTyOTw90s1CHQAoZC0JEbkgHrbiwCHGSag6A8OM7ImS5LMjWAATewUEIsHXASRczaN1ldiaTNpPxZV6Lvh9GwvT/O+Z3P8SGD3cJqPtjYrjf6UZgFyLggpBdCJL7lgMnAheOj3VfWl1+5YZM/HSbYNWner/t06HT5O6h4FfPXzmmoaWehq+b8pQ/UZf2pkQqZzKGYtl2IB5PR+oaavKYgP1gQ68ZGkjAM4/i0QRKG0VCGroXdW60ZNuU0rapRMOmqJjJVy65Kd1S57WvRwo4Na+Mu6N4XXXdMXHCLs545aOl/HCeKYlIz0mkCyKSACyACV3W0ZafJ3TJZFMfkMnYvBhxzQ/Mf29Sm/9pGBpIuvCMh21ayJ8lDAMfxEhlmIQRlRFqZJnMfLsx8W7XguLPTzljxIbYIdsWsNvXcXK/z42AG4FtR8AFIe7MaFcRAC2QySsWD5hbsf7KjIxPwJIo+2VlaRdP6M1f5Xf//KRRo6pHYk7laPEXZATumTpVKm9oEA1ZpoGiBBOTFm/j2Ig6GlNHjmyV723xC9nFA0IL7usfvNNjwdo1JwhB/4XUI/0KBbxhqiooTW2u2QHZDZ75YIRnLgBEwA/PdWTJp7ksBxcc28qoDjpdgATs9aocfFDL4u630KXEyaeihGzD1EXTqmKZ9FcopU05pLj7/Ku7daty+R+7OJDu29wI7McIuCBkPwbf/erWiQC07b676Kvfzi9bdY1akjcwkUwQvyUs7xyOTj22Z+9Pjj3suPVtub21daLSckeF7MfHEyZ4f6ytPGxJZdkwKS9ySqAgr4eJsV8MeJGJMEobJiKSzEswXOU0CzByFFMORjAoniJkgwJ7NvtBeOcMlG0oFxoTRRFlMhmkioTzbFQiIZ+iIi2VRCLDDFlmGpv2D6n6hi9KAuHpfbv2/vaQK69sjG3D1LDlIuAeyY2AG4GWioALQloqku5x2lQEnp8zJ/rc5++cuaxu08WS399PJRIWdHNZ0GTTOwUKPxk8YPBylyuw+0MG2Y9Z82YVzZy34GjLo5zZJJNjvMWFhRZmqqabSIKMBUXItBkHELnMB2RBBN5062iC8LIKgA1R4I7G8OK8EEHgv7OozYEIHEORZKSnkkiCzIpFEdVNFFRVS6K0qam2doHM6IdF3vB/Th98fFls6NCdtmXv/lW7n3Aj4EagtSLggpDWiqx73P0egYkLvyx47u03z15dU3FZcadOfTKZDLVS6bWloYKZQUH+4Ohe/b47/MIL461VntnvAWjBE4BS09OzZvlmr1zWc9GqZSfUptJniqHgoUJ+JEolEYM6qQDcDwlaZp0vtkHLgwuJ0c2qqCIIimU1QQCEMCIiGzPEOLkUbzajAyADYESWCJIx4aq1PiIjLyjYxpMasaxNQkafR0ztw05+3xe/uXBwTeyQkds0MGzBMLiHciPgRqCFI+CCkBYOqHu4thWBC8aNK1qaKBtRnkldECjK76Vpmmgl9QoVkbldooWf9u/c9X+/GRDaNNLdwLY7cDMZE//58tP5S5YvH1Rpar+zFeUE4vN2ywjIJ4WCOGNakPpAPo8fMduhvWAkIIs5/i9QNXH+z0KEUZ4RARM6pxwj8B/u/QKZkc2OuILTNQMZEdNCPkFCksVsD0NJmjZWpepq/xNV/Z8OOfKQbyeOuLz2QCX2tq27xT0bNwL7PgIuCNn3MXe/cR9H4JSxN5aspcbZG9NNF4l+70GRSJ6aqqmvw7r9fdTnnRXC4swTjvjVjxPOdN1Utx6aR6dM8SytLDto1vLFJyQEfBIOh/oLIX+h7VFEAxIdREK2zbg8uiJInDCqKgqiYCSHEbKYlTWZwxyECNRGIpRZAGJA9wuDNlxgghAOQgC4cMCCCc+M2JqBvKLMQrJi6A3xSq2+4VtRt2Z1Kij68tQjjljlll/28c3kfp0bgRaOgAtCWjig7uHaXgSglHDyPbeUrErHz6nRUxf6o3kHS4T4qGVntFR6jYzQ/CIl8HH/7t2/OcoUK0ePHt3mlUlbO8qgIHv9y08XLv5u2eG1tj683rKOJtFQNxbwenHAR5K2hZhAkK3bvEOFUMwzFpZuoGAwiHTLRpggZFD4EyOQksWgCWJbHIRIWHDMAS1owRV5KQfyJcAFAR18yINAF4yMGJMoziSqalZIhvFlwMb/6RAILzz3mGOqb2jD5n2tPT7u8d0ItJcIuCCkvYykex07jECMMWHuA7cXVSTjQzc21l0oh0O/Dubnh5pSaSudTFWytL4iLJHZXSP57/Xt333ls8NH/2IFri555WFfoo71WrJq+fmGSAYJfn9f7PflMUUWDZFgaDo2SNZQLmMhEQtIxCKPP+9q4SUYiijoe4AsvVdFlKvIWrzLhQGAMS1OOGVQnBEw0jSDgxJZ8aBMKo2wTZFfVWyiGzV6Q3yJmE5/VCSr/z3jxFNXotNOS7rdL+4N70agfUTABSHtYxzdq9iFCEBG5LG5cyP/fOe146vM5AVpAf2moHPXPHgWTzU16RJjm8xk/AcPQ3MP6tT93cP6dtnwyCm75j2zC1/f5t8Se3+Sd863ZUUbGmpPqkwkzvQWRPsJPm8JkmSBSZJgYoxMzDiHgxJn6RBNKK0ICGddbh0fl6yzreCQUqEsY5o61wnxKLKjF2JbSBYlZJo20tMZFI1GUVNTAjEboYJIFJmpVEP9xvLVRNe+CAnk885B37d/POzoalf7o81PI/cE3QjsVgRcELJb4XLf3B4i8Mrixb5/znjr8BU1VefVaKkT80o7dFFlRdW1NBjRpSSGK9N1jd+WRqKfqpY9+5LjTy/742mnJQ8UD5fdGSMou9wybZpv/vzZHTY0VPfPSOIwneAjid/XOVxUKKUMA0NGA9poLUSRBeRRgfAsB7wgY8FLK1lXXEAc3OE2q3jK1U65YZ2FQHgMsAuopuZaaLyqgphNeWbEI6pUpMis2bBpLTb0r0Ki8mlpKLDwlONP2RgbMkTbnety3+tGwI3AgREBF4QcGOPknmULR+DROXM8M+Z+dtC3G1YPbzTSp+SXFPfxBUMhhgSxqSlBmxoam1QmrBdNurBLtOArlNGWFASia88ZNiwxeuDAA5ozAhmhb75B4qeVH/o/nPffzlV66vC4qf1WUJX+hkQ6Sz6PX/J5sSU4aqWOiZyAWBZY2AJFtJnyqYAI73bhpnI2RkJWeAzIpiA4BpkRBO62QDS1HbM5eAGZlRo68soSpWndUgSxxmhIrLISyY9K/eFPD+7ZZ/XU0aObWnjo3cO5EXAj0IYi4IKQNjQY7qns2whMWrBAmr98UdHXq5acvLGmdiiVxYGBwg4dlGBAkmQvq6muNo14qsGOp6oKvP7vZMOYHUF4Wde8oh+Hn312QhVFc0TfvuaB0h4KrbZlS5Yor//7tUhtTaq74RH7lOmp4xupdXhBaUmRGvQFdGYTIJMm0ylEJGWzXws00AKIAP4GmM4BuLDB74VAKYYgQqEFFyECjnNZ4THedkupA2KgNAN/ZzZSZRkRAqxVg9FU2iQWbcCavsKKp+YHiTqvX49u80hh543tTeZ+385u99vcCBwYEXBByIExTu5ZtmIEHp3zcXTyBx8cuaGx4UQa8J9qKko3TziqIFEiPtmLUvEmM15Z06TaVlUQi6tVTOdFvP61PlEoK+kQ2XDsgJOaOoVC2mk9exptDZBAueWDb75RawTB98/XXuvaQLUeKWb3TenGII3gg5SSonzkU3w2RcTCNm+ttZGNAoEQN43jWQvqiI2B2Zzj7ZJVI4MyDTjhIsFpuYWiTNYJd7PrLQOQkgUg1PF9IYwySzdMpmnxIBbXa/UNC8OK94ueJR0Xdi8o3TTxoosSbS2OrTj93EO7EfhFR8AFIb/o4XcvPheBSQsWeN/9z0clq2sqzqhMp0+SCqKHWETMlzxe1ev1ElPXkZFJW0Yikaaa0YRMsy4gSytVy1zVIZy3ViHCGo9Eyn7du3dd/+Je6QJdN4cMGWLt6whDqeXlWbMUIxBQdCsR+PCzLzqsXL+2lzea36Uq1djPJkIf5lMKmCgF1WDQAxIfSCS8TdamJgchhEDZxFErZdBCC2xRgBgC4oZ0AFKgkwV+TBvKLbnsB+FttlyEDDpkGOPHAt8YZjrtucRmtpFIxO2Mvt6PxQVKKvO/Q3t2X3RI175r+599dqOrXruvZ4z7fW4E9m8EXBCyf+PvfnsbigC08eoffZQ34+vPD2+g9MTaTOJIpio9vOFw3v+3dy8/clzXHcfvrXurqquffIz5tCyZtOEEouE4tAg4igxoE0QwASEBIuQv8MpZxH+BtgECZ5+ltBMCBIhjBDAYGMiDXgSMHSGUFVmiJT5Eekj2aF5dXVX3kZzqFsUkcKIFySuJ3wZmwdFMH/anz3B+ulX33GI4KvcXCz0ajfpfrovFonX1oh4s2329XN41QV0ZmPzqbFBeHxXFjaE21yttbj3/zO/uFGW5ayeT5ubZv/Uv65fXywgP5oVL6PjLS5fs1tbW8Or169Ubv7i8Md/fPuWNfWK+v3cy2vzLqix+I+T2cCiLSShtpQcDowe5CrItKCpVFWW/M6WqqnsHyXVdd9/qR1yHjvUW3PV9Hf05L5kEj/XJMBI25NJL9Kv7QEJUspNXJoDEpgum7XayprvZbu++PrT2H7505Mi/PHfm3C/PHz++/Y1P+X02D+bd5FkQePwECCGP33vOK/5/BF67eLH66WLrib+58MOzm8u9b9baPDs8fOipOBxO7Xhk53v7ajiZKtcsVd4so27azjVuWeW2jU23r7vujqq7G6XONitjtgfW3BoEfc1os3ns2JHNL37+xGJ8YNYomfildausbdX4TjhUH+0vZsz39tYXNe77i1aVLbUumxjNfl3bTKmiDsvpP/7knw+1Wh1pnTvVqHDAZ+ZYKOypkNuT3pqJzQdVsHqk8yJTudFyYFy/xXYdEmSLbdZfY1mtZnz0WP1ZApctZCtt1+9wkZ0tElacc6ooCuX6SKX7G1jlY5AXqihzFVynikwr470LTb23feNXtzaGo0ulcxdPHt54/Y9+/w/ePFhVO5xmzI8jAo+3ACHk8X7/efW/RkDupfizCxcmF35y4Qs36g/ObdaL5xe2POuG1bHZ8RPTVuus/0Uslx6apeqatp97UWQm2Jh1vl50sel8t7fnx8Vgp9D6drdY3u3a5Z3c2kWR2YXWYV9bs+tUrLOgOu19f369lvPutY46hGislbsysqh15aIeh+irNviRC3EYYjgYvD+oy/ygKcvjpiqHelDmMTelN6aQjSoytlRWK/ots+tdKxJAvJzuEkM/vfS//SOwDiMytbS/rBJlv5Dpw4fJrQrO9yfbNk2tjMn7+SDy3DbK6PX++Fw1LsrY7O819dbdef3BB7em+eDnnxuPLpp2+dOvfunJt84//+Iu4YMfPQQQWP0vDA8EEPi1Aj+OP7Y/+uurs396/Wenr9f7z8zb8C01HZ9tM3t0dPjgyKuo5ZezXJpomqb/kF/UlS1UlRdqkGWxq5vQLfa8azqfKeUzFYMxJpjM+GW7bGMMjXLBxRBk56t8TZRxHPKXCvK5TBtjZDZ6VmV5PtDGWGv6bSnWyLhSrU20mfVGZ96sZnjIlloftcozo/ppYUFuKpVLJH59B4ckHaWCkVew2l67eqxXQNRqtUROuZWdLRJCJHzIaHb5R6M/4Vb+W4wqN1ZlLqrcBb8/n++28w/uZPXy+pHJ9F8nxl46Ohy/9Yff/vaVb85me08//TQn3fLzhgAC9wQIITQDAh9DQLa3/tUrr8z+7f23n3rnV7d+LwzK31lm6nQsB8dibiblaGjlsoXOi/7SRT+QS86jD6vD3eT0WNkZIr+0ZauqZANZOfE+9Cse8pCvXc/QiLLtdR1C+oPetGwXybTWWaa1ybSctSK7VeR7JCzIttpuPUxMG9vfRWqU6Wd2ZD72Q8Xk8Lh+l0s/tkOrYKJaajlgrt/X8r9DiFaqad1qO61sv7VahWZ1r8jA5qvn0THube80y62d24WLN2a2+MVIqZ8dzodvjJV6549ffPHWqWefrZ/X+pHfpPsx3la+BAEEEgsQQhK/AZT/dAnIZZrvvvLKwf947+0T26H92vX59gs7rvlKl8UT1Wx6aDCbFdoa1cWgXVT9SoRcrrgXQORU2fWwLvm8hAN5SPj4aDVCFiRWv/j7AWH3PfrViX5Q2GpeR/8csgVWVj/s6tKI3Cjaf76f26H6QWKyAvLhQDGdxf6GVAkhC7k3RELOesqp/h/3hsi3GtkJ039ZVLrzUYJIrpWvd7Y/2Lk73zRdd/XQePb61BQXN4rxlVlV3Tx//vz2d86edWy1/XT1N39bBB61ACHkUYtT7zMj8Kff/351s4wbd+aL01fnm99yNn59afQpOx4ec1k2jYXNrS2yEKPu+tHlkggyZaysYkiIkDNW5HLJ6lrIvdkakhnWP5mrnSeraaMffnwIKN/v2u7eiHT5frnDo39eeU65VCLft1qxWH+bnOUiQ8PkkDnVX27pH0HuEVlNMV39uQ87cVCU0XdN7BbLoFy3H+v2rl/Wtyf54Nb+1tblJw4fuHRseujt0cDcfu7MuS1Otv3MtDcvBIFHIkAIeSTMFPksC8ilmh+++uqhN65dOfHzd999Jk5GX99qlk86HZ4aHTjwubwaDAfDKldZZjrvTBd8HzJW91rI7R/rgV7yuXXokBUP+Zr+htL1ow8XMrbjvpHpg2x9eu29L5P5HavLLX3QkUsw/dbZ1UFyQUau69UZMBI6iljI7A6lg+5ngmgXQpRrRMH5zMfWu3Y7tO1WHv3mOCuu5m14Mw/+za88dfpGlWW3Dis1/4vvfa/+LL+/vDYEEHh4AoSQh2fLMz9mAjKz489/9OrwvXk3e+vdG8dv1zu/dWe+fXrfLY97pU8NJqPPV6PRIV3Y3IeQt9FbWw51kIle63NZojbKaQkmsqohSxirGRwfJZHVikW/OiIfTrbYyqWX9Q4Y+Vx/34lbrbDIJZQ+yKzGp3sdlJz9EuUWkxBjsQw+c9op571ynYttt+dbP9c+3Mq8e195d21aDt57YmPjl08ePXF9GuN8cvDgzssvvcQNpo9Zf/NyEXgYAoSQh6HKcyLwXwIv/+AHw72trbGeFJO/u/D3vxl1+HJn9RfbEI4tm+Xx8cEDR52xk07p3MdgTZnn3hjjVLSmqozcaKpNvloduXf2il7tRpGTbGWaaRf7m0Rlu7Ds0NExxOhlB4yWTbOyrBF956LJVOi6zsUY+o8QQldkpnFb2/NJXtze3dqeV2V51zh/Z1yWN6bV6N2vnTlzczocbh6aLRdPbg+WL7300mp0Kg8EEEDgAQkQQh4QJE+DwP8l8Nrl14or76uqrtXs6s3NjbevvPXEbtucbHw87JSf7jXtTFl9MhsMD8Q8G4c8HzfeFbJNRiaaZSY3RVGaTBvtXKeDU1HWT1zroiycFNaG4HzIogred177Pmg0pc0b3yxr59ye1XquvLs7qKrttmn2S5MtNqrxbRvczcqazTNf/e3tjfF4vzKmPjed1inGztNFCCDweAkQQh6v95tX+wkQuHe+i3NlU3bFfK8u3/r3d6prd65/YenjzKkwCrkZdSqO6tYPtNZF5/woZKrKrbVt47KudUpGhJRF7t2yc9PptF4s9mWsaRdD6IZ52Rqjl+1iWY/H1Xbswm45GMw3ZrP5N86erUfGtG447KbOdb6uuz954YVP3OF7n4C3ir8CAgg8ZAFCyEMG5ukR+LgCr12+XFR1beuqytrd3WwZgl0MnPF7yr597Vrx3pUrResXJjjT/9xm3sfO+zibTNxz5861w8kkZEURMudCsNb7uvbTPPcza11dVU5dvuy5pPJx3w2+DgEEHoUAIeRRKFMDgQckIKso9z8VczgeECxPgwACSQQIIUnYKYoAAggggAAChBB6AAEEEEAAAQSSCBBCkrBTFAEEEEAAAQQIIfQAAggggAACCCQRIIQkYacoAggggAACCBBC6AEEEEAAAQQQSCJACEnCTlEEEEAAAQQQIITQAwgggAACCCCQRIAQkoSdoggggAACCCBACKEHEEAAAQQQQCCJACEkCTtFEUAAAQQQQIAQQg8ggAACCCCAQBIBQkgSdooigAACCCCAACGEHkAAAQQQQACBJAKEkCTsFEUAAQQQQAABQgg9gAACCCCAAAJJBAghSdgpigACCCCAAAKEEHoAAQQQQAABBJIIEEKSsFMUAQQQQAABBAgh9AACCCCAAAIIJBEghCRhpygCCCCAAAIIEELoAQQQQAABBBBIIkAIScJOUQQQQAABBBAghNADCCCAAAIIIJBEgBCShJ2iCCCAAAIIIEAIoQcQQAABBBBAIIkAISQJO0URQAABBBBAgBBCDyCAAAIIIIBAEgFCSBJ2iiKAAAIIIIAAIYQeQAABBBBAAIEkAoSQJOwURQABBBBAAAFCCD2AAAIIIIAAAkkECCFJ2CmKAAIIIIAAAoQQegABBBBAAAEEkggQQpKwUxQBBBBAAAEECCH0AAIIIIAAAggkESCEJGGnKAIIIIAAAggQQugBBBBAAAEEEEgiQAhJwk5RBBBAAAEEECCE0AMIIIAAAgggkESAEJKEnaIIIIAAAgggQAihBxBAAAEEEEAgiQAhJAk7RRFAAAEEEECAEEIPIIAAAggggEASAUJIEnaKIoAAAggggAAhhB5AAAEEEEAAgSQChJAk7BRFAAEEEEAAAUIIPYAAAggggAACSQQIIUnYKYoAAggggAAChBB6AAEEEEAAAQSSCBBCkrBTFAEEEEAAAQQIIfQAAggggAACCCQRIIQkYacoAggggAACCBBC6AEEEEAAAQQQSCJACEnCTlEEEEAAAQQQIITQAwgggAACCCCQRIAQkoSdoggggAACCCBACKEHEEAAAQQQQCCJACEkCTtFEUAAAQQQQIAQQg8ggAACCCCAQBIBQkgSdooigAACCCCAACGEHkAAAQQQQACBJAKEkCTsFEUAAQQQQAABQgg9gAACCCCAAAJJBAghSdgpigACCCCAAAKEEHoAAQQQQAABBJIIEEKSsFMUAQQQQAABBAgh9AACCCCAAAIIJBEghCRhpygCCCCAAAIIEELoAQQQQAABBBBIIkAIScJOUQQQQAABBBAghNADCCCAAAIIIJBEgBCShJ2iCCCAAAIIIEAIoQcQQAABBBBAIIkAISQJO0URQAABBBBAgBBCDyCAAAIIIIBAEgFCSBJ2iiKAAAIIIIAAIYQeQAABBBBAAIEkAoSQJOwURQABBBBAAAFCCD2AAAIIIIAAAkkECCFJ2CmKAAIIIIAAAoQQegABBBBAAAEEkggQQpKwUxQBBBBAAAEECCH0AAIIIIAAAggkESCEJGGnKAIIIIAAAggQQugBBBBAAAEEEEgiQAhJwk5RBBBAAAEEECCE0AMIIIAAAgggkJjw+hoAAACxSURBVESAEJKEnaIIIIAAAgggQAihBxBAAAEEEEAgiQAhJAk7RRFAAAEEEECAEEIPIIAAAggggEASAUJIEnaKIoAAAggggAAhhB5AAAEEEEAAgSQChJAk7BRFAAEEEEAAAUIIPYAAAggggAACSQQIIUnYKYoAAggggAAChBB6AAEEEEAAAQSSCBBCkrBTFAEEEEAAAQQIIfQAAggggAACCCQRIIQkYacoAggggAACCPwnBd8wvuANEPQAAAAASUVORK5CYII=;clipPath=inset(21.43% 3.33% 22.22% 2.67%);fontColor=#149086;" parent="1" vertex="1">
          <mxGeometry x="20" y="10" width="59.58" height="30" as="geometry" />
        </mxCell>
        <mxCell id="OMl_ndMxMbbxKL08wirc-6" value="IT4IT / DevOps Tooling Landscape" style="text;strokeColor=none;align=center;fillColor=none;html=1;verticalAlign=middle;whiteSpace=wrap;rounded=0;fontSize=18;fontStyle=5;fontFamily=Helvetica;fontColor=#0c83a3;" parent="1" vertex="1">
          <mxGeometry x="390" y="10" width="390" height="30" as="geometry" />
        </mxCell>
      </root>
    </mxGraphModel>
  </diagram>
</mxfile>
